<svg width="465" height="372" viewBox="0 0 465 372" fill="none" xmlns="http://www.w3.org/2000/svg">
<g clip-path="url(#clip0_1966_3226)">
<path d="M220.913 295.203H133.029C132.681 295.203 132.348 295.064 132.102 294.818C131.856 294.572 131.718 294.239 131.718 293.891V274.216C131.718 273.868 131.856 273.534 132.102 273.288C132.348 273.042 132.681 272.904 133.029 272.904C133.377 272.904 133.711 273.042 133.957 273.288C134.203 273.534 134.341 273.868 134.341 274.216V292.579H220.913C221.261 292.579 221.594 292.717 221.84 292.963C222.086 293.209 222.224 293.543 222.224 293.891C222.224 294.239 222.086 294.572 221.84 294.818C221.594 295.064 221.261 295.203 220.913 295.203Z" fill="#D9BC9A"/>
<path d="M220.913 275.266H124.96C124.653 275.266 124.355 275.158 124.12 274.962C123.884 274.765 123.725 274.491 123.67 274.189C123.615 273.887 123.667 273.575 123.819 273.308C123.97 273.041 124.211 272.835 124.498 272.727L220.215 236.681C220.376 236.621 220.548 236.593 220.72 236.598C220.892 236.604 221.062 236.643 221.219 236.715C221.375 236.786 221.517 236.887 221.635 237.013C221.752 237.139 221.844 237.286 221.905 237.447C221.965 237.609 221.994 237.78 221.988 237.953C221.982 238.125 221.943 238.294 221.872 238.451C221.8 238.608 221.699 238.749 221.573 238.867C221.448 238.985 221.3 239.076 221.139 239.137L132.164 272.643H220.913C221.261 272.643 221.595 272.781 221.841 273.027C222.087 273.273 222.225 273.607 222.225 273.955C222.225 274.302 222.087 274.636 221.841 274.882C221.595 275.128 221.261 275.266 220.913 275.266Z" fill="#D9BC9A"/>
<path d="M317.349 275.266H220.913C220.565 275.266 220.231 275.127 219.985 274.881C219.739 274.635 219.601 274.302 219.601 273.954C219.601 273.606 219.739 273.272 219.985 273.026C220.231 272.78 220.565 272.642 220.913 272.642H310.108L220.913 239.136C220.745 239.081 220.591 238.992 220.459 238.875C220.326 238.759 220.219 238.617 220.143 238.457C220.067 238.298 220.023 238.125 220.016 237.949C220.008 237.773 220.036 237.597 220.097 237.432C220.159 237.267 220.254 237.116 220.375 236.988C220.497 236.86 220.643 236.758 220.805 236.688C220.966 236.618 221.141 236.581 221.317 236.58C221.493 236.578 221.668 236.613 221.831 236.681L317.789 272.726C318.076 272.834 318.317 273.039 318.468 273.306C318.62 273.573 318.673 273.884 318.619 274.186C318.564 274.488 318.406 274.761 318.171 274.958C317.936 275.156 317.64 275.264 317.333 275.266H317.349Z" fill="#D9BC9A"/>
<path d="M221.438 275.267H152.343C152.034 275.268 151.735 275.16 151.498 274.962C151.261 274.764 151.102 274.489 151.048 274.185C150.994 273.881 151.049 273.567 151.203 273.3C151.358 273.032 151.601 272.828 151.892 272.723L220.871 247.302C221.198 247.182 221.559 247.196 221.876 247.342C222.192 247.488 222.437 247.754 222.558 248.081C222.678 248.408 222.664 248.77 222.518 249.086C222.372 249.402 222.106 249.648 221.779 249.768L159.699 272.644H221.438C221.786 272.644 222.119 272.782 222.365 273.028C222.611 273.274 222.749 273.608 222.749 273.956C222.749 274.304 222.611 274.637 222.365 274.883C222.119 275.129 221.786 275.267 221.438 275.267Z" fill="#D9BC9A"/>
<path d="M291.104 275.267H221.438C221.09 275.267 220.756 275.129 220.51 274.883C220.264 274.637 220.126 274.303 220.126 273.955C220.126 273.607 220.264 273.273 220.51 273.028C220.756 272.782 221.09 272.643 221.438 272.643H283.717L221.385 249.783C221.058 249.663 220.792 249.419 220.645 249.103C220.499 248.787 220.484 248.426 220.603 248.099C220.723 247.772 220.968 247.506 221.283 247.359C221.599 247.213 221.961 247.197 222.288 247.317L291.545 272.722C291.835 272.827 292.079 273.032 292.233 273.299C292.388 273.567 292.443 273.88 292.389 274.184C292.335 274.488 292.176 274.763 291.939 274.961C291.702 275.16 291.403 275.268 291.094 275.267H291.104Z" fill="#D9BC9A"/>
<path d="M308.796 295.203H220.913C220.565 295.203 220.231 295.064 219.985 294.818C219.739 294.572 219.601 294.239 219.601 293.891C219.601 293.543 219.739 293.209 219.985 292.963C220.231 292.717 220.565 292.579 220.913 292.579H307.485V274.216C307.485 273.868 307.623 273.534 307.869 273.288C308.115 273.042 308.448 272.904 308.796 272.904C309.144 272.904 309.478 273.042 309.724 273.288C309.97 273.534 310.108 273.868 310.108 274.216V293.891C310.108 294.239 309.97 294.572 309.724 294.818C309.478 295.064 309.144 295.203 308.796 295.203Z" fill="#D9BC9A"/>
<path d="M214.617 370.232H203.258C203.083 370.23 202.911 370.194 202.751 370.125C202.59 370.056 202.445 369.957 202.324 369.832C202.202 369.707 202.106 369.56 202.041 369.398C201.976 369.236 201.944 369.063 201.946 368.889L203.698 294.448C203.702 294.275 203.74 294.106 203.81 293.948C203.88 293.79 203.98 293.648 204.105 293.529C204.229 293.41 204.376 293.317 204.537 293.255C204.698 293.193 204.869 293.163 205.041 293.167C205.214 293.172 205.383 293.21 205.541 293.279C205.699 293.349 205.841 293.449 205.96 293.574C206.079 293.699 206.172 293.845 206.234 294.006C206.296 294.167 206.326 294.338 206.322 294.511L204.606 367.609H213.279L211.563 294.563C211.559 294.391 211.59 294.219 211.652 294.059C211.714 293.898 211.808 293.752 211.927 293.627C212.046 293.503 212.188 293.403 212.346 293.333C212.504 293.264 212.674 293.226 212.846 293.222C213.018 293.219 213.19 293.249 213.35 293.311C213.511 293.374 213.658 293.467 213.782 293.586C213.906 293.705 214.006 293.848 214.076 294.006C214.145 294.163 214.183 294.333 214.187 294.505L215.934 368.889C215.938 369.063 215.908 369.237 215.844 369.399C215.78 369.561 215.684 369.709 215.561 369.833C215.438 369.959 215.291 370.059 215.129 370.128C214.967 370.196 214.793 370.232 214.617 370.232Z" fill="#D9BC9A"/>
<path d="M191.531 370.232H180.172C179.997 370.231 179.823 370.195 179.662 370.127C179.501 370.058 179.355 369.959 179.233 369.833C179.11 369.709 179.014 369.561 178.95 369.399C178.886 369.237 178.855 369.063 178.86 368.889L180.607 294.448C180.616 294.1 180.762 293.769 181.014 293.529C181.266 293.289 181.602 293.159 181.95 293.167C182.298 293.176 182.629 293.322 182.869 293.574C183.109 293.826 183.239 294.163 183.231 294.511L181.515 367.609H190.188L188.472 294.563C188.468 294.391 188.499 294.219 188.561 294.059C188.623 293.898 188.717 293.752 188.836 293.627C188.955 293.503 189.098 293.403 189.255 293.333C189.413 293.264 189.583 293.226 189.755 293.222C189.927 293.219 190.099 293.249 190.259 293.311C190.42 293.374 190.566 293.467 190.691 293.586C190.815 293.705 190.915 293.848 190.985 294.006C191.054 294.163 191.092 294.333 191.095 294.505L192.843 368.889C192.847 369.063 192.817 369.237 192.753 369.399C192.689 369.561 192.593 369.709 192.47 369.833C192.348 369.959 192.202 370.059 192.041 370.128C191.88 370.196 191.706 370.232 191.531 370.232Z" fill="#D9BC9A"/>
<path d="M168.445 370.232H157.086C156.911 370.231 156.738 370.196 156.578 370.128C156.417 370.059 156.271 369.96 156.149 369.835C156.027 369.71 155.931 369.562 155.867 369.399C155.802 369.237 155.771 369.063 155.774 368.889L157.522 294.447C157.534 294.101 157.681 293.773 157.932 293.534C158.183 293.294 158.518 293.163 158.865 293.167C159.037 293.171 159.207 293.209 159.364 293.279C159.522 293.349 159.664 293.449 159.783 293.573C159.902 293.698 159.995 293.845 160.057 294.006C160.119 294.167 160.149 294.338 160.145 294.51L158.429 367.608H167.102L165.386 294.563C165.383 294.391 165.413 294.219 165.475 294.059C165.538 293.898 165.631 293.751 165.75 293.627C165.869 293.502 166.012 293.402 166.17 293.333C166.327 293.264 166.497 293.226 166.669 293.222C166.842 293.218 167.013 293.249 167.173 293.311C167.334 293.373 167.481 293.467 167.605 293.586C167.73 293.705 167.83 293.848 167.899 294.005C167.968 294.163 168.006 294.333 168.01 294.505L169.757 368.889C169.761 369.063 169.729 369.237 169.665 369.399C169.601 369.562 169.505 369.71 169.383 369.835C169.261 369.96 169.115 370.059 168.954 370.128C168.793 370.196 168.62 370.231 168.445 370.232Z" fill="#D9BC9A"/>
<path d="M145.359 370.232H134.026C133.851 370.232 133.678 370.196 133.516 370.128C133.355 370.059 133.209 369.959 133.087 369.833C132.965 369.709 132.869 369.561 132.804 369.399C132.74 369.237 132.71 369.063 132.715 368.889L134.462 294.448C134.466 294.275 134.504 294.106 134.574 293.948C134.643 293.79 134.744 293.648 134.868 293.529C134.993 293.41 135.14 293.317 135.301 293.255C135.461 293.193 135.633 293.163 135.805 293.167C135.977 293.172 136.147 293.21 136.305 293.279C136.462 293.349 136.604 293.449 136.723 293.574C136.842 293.699 136.935 293.845 136.997 294.006C137.06 294.167 137.089 294.338 137.085 294.511L135.39 367.609H144.063L142.342 294.563C142.339 294.391 142.369 294.219 142.431 294.059C142.494 293.898 142.587 293.752 142.706 293.627C142.825 293.503 142.968 293.403 143.126 293.333C143.283 293.264 143.453 293.226 143.625 293.222C143.798 293.219 143.969 293.249 144.13 293.311C144.29 293.374 144.437 293.467 144.561 293.586C144.686 293.705 144.785 293.848 144.855 294.006C144.924 294.163 144.962 294.333 144.966 294.505L146.713 368.889C146.718 369.063 146.687 369.237 146.623 369.399C146.559 369.561 146.463 369.709 146.341 369.833C146.214 369.964 146.061 370.067 145.892 370.136C145.723 370.205 145.542 370.237 145.359 370.232Z" fill="#D9BC9A"/>
<path d="M306.928 370.232H295.574C295.399 370.232 295.226 370.196 295.065 370.128C294.903 370.059 294.757 369.959 294.635 369.833C294.513 369.709 294.417 369.561 294.353 369.399C294.289 369.237 294.258 369.063 294.263 368.889L296.01 294.448C296.014 294.275 296.052 294.106 296.122 293.948C296.192 293.79 296.292 293.648 296.416 293.529C296.541 293.41 296.688 293.317 296.849 293.255C297.01 293.193 297.181 293.163 297.353 293.167C297.525 293.172 297.695 293.21 297.853 293.279C298.01 293.349 298.153 293.449 298.271 293.574C298.39 293.699 298.483 293.845 298.546 294.006C298.608 294.167 298.637 294.338 298.633 294.511L296.923 367.609H305.59L303.875 294.563C303.871 294.391 303.901 294.219 303.964 294.059C304.026 293.898 304.119 293.752 304.239 293.627C304.358 293.503 304.5 293.403 304.658 293.333C304.816 293.264 304.985 293.226 305.158 293.222C305.33 293.219 305.501 293.249 305.662 293.311C305.822 293.374 305.969 293.467 306.094 293.586C306.218 293.705 306.318 293.848 306.387 294.006C306.457 294.163 306.495 294.333 306.498 294.505L308.245 368.889C308.25 369.063 308.219 369.237 308.155 369.399C308.091 369.561 307.995 369.709 307.873 369.833C307.75 369.96 307.603 370.06 307.441 370.129C307.279 370.197 307.105 370.232 306.928 370.232Z" fill="#D9BC9A"/>
<path d="M283.874 370.232H272.515C272.34 370.231 272.167 370.196 272.007 370.128C271.846 370.06 271.7 369.96 271.578 369.835C271.456 369.71 271.36 369.562 271.295 369.4C271.231 369.237 271.2 369.064 271.203 368.889L272.95 294.448C272.955 294.275 272.993 294.106 273.062 293.948C273.132 293.79 273.232 293.648 273.357 293.529C273.482 293.41 273.629 293.317 273.789 293.255C273.95 293.193 274.121 293.163 274.294 293.167C274.466 293.172 274.636 293.21 274.793 293.279C274.951 293.349 275.093 293.449 275.212 293.574C275.331 293.699 275.424 293.845 275.486 294.006C275.548 294.167 275.578 294.338 275.574 294.511L273.858 367.609H282.531L280.815 294.563C280.812 294.391 280.842 294.219 280.904 294.059C280.967 293.898 281.06 293.752 281.179 293.627C281.298 293.503 281.441 293.403 281.599 293.333C281.756 293.264 281.926 293.226 282.098 293.222C282.271 293.219 282.442 293.249 282.602 293.311C282.763 293.374 282.91 293.467 283.034 293.586C283.159 293.705 283.259 293.848 283.328 294.006C283.397 294.163 283.435 294.333 283.439 294.505L285.186 368.889C285.189 369.064 285.158 369.237 285.094 369.4C285.03 369.562 284.934 369.71 284.812 369.835C284.689 369.96 284.544 370.06 284.383 370.128C284.222 370.196 284.049 370.231 283.874 370.232Z" fill="#D9BC9A"/>
<path d="M260.788 370.232H249.434C249.259 370.232 249.086 370.196 248.925 370.128C248.763 370.059 248.617 369.959 248.495 369.833C248.373 369.709 248.277 369.561 248.213 369.399C248.149 369.237 248.118 369.063 248.123 368.889L249.87 294.448C249.874 294.275 249.912 294.106 249.982 293.948C250.052 293.79 250.152 293.648 250.276 293.529C250.401 293.41 250.548 293.317 250.709 293.255C250.869 293.193 251.041 293.163 251.213 293.167C251.385 293.172 251.555 293.21 251.713 293.279C251.87 293.349 252.013 293.449 252.131 293.574C252.25 293.699 252.343 293.845 252.406 294.006C252.468 294.167 252.497 294.338 252.493 294.511L250.778 367.609H259.45L257.735 294.563C257.731 294.391 257.761 294.219 257.824 294.059C257.886 293.898 257.979 293.752 258.099 293.627C258.218 293.503 258.36 293.403 258.518 293.333C258.676 293.264 258.845 293.226 259.018 293.222C259.19 293.219 259.361 293.249 259.522 293.311C259.682 293.374 259.829 293.467 259.954 293.586C260.078 293.705 260.178 293.848 260.247 294.006C260.317 294.163 260.354 294.333 260.358 294.505L262.105 368.889C262.11 369.063 262.079 369.237 262.015 369.399C261.951 369.561 261.855 369.709 261.733 369.833C261.61 369.959 261.463 370.059 261.301 370.128C261.139 370.196 260.964 370.232 260.788 370.232Z" fill="#D9BC9A"/>
<path d="M237.703 370.232H226.343C226.169 370.231 225.996 370.196 225.835 370.128C225.674 370.06 225.528 369.96 225.406 369.835C225.284 369.71 225.188 369.562 225.124 369.4C225.06 369.237 225.028 369.064 225.032 368.889L226.779 294.448C226.783 294.275 226.821 294.106 226.891 293.948C226.961 293.79 227.061 293.648 227.185 293.529C227.31 293.41 227.457 293.317 227.618 293.255C227.778 293.193 227.95 293.163 228.122 293.167C228.294 293.172 228.464 293.21 228.622 293.279C228.779 293.349 228.921 293.449 229.04 293.574C229.159 293.699 229.252 293.845 229.314 294.006C229.377 294.167 229.406 294.338 229.402 294.511L227.681 367.609H236.354L234.639 294.563C234.634 294.391 234.664 294.219 234.726 294.059C234.788 293.898 234.881 293.751 235 293.626C235.119 293.501 235.262 293.401 235.419 293.332C235.577 293.262 235.747 293.224 235.919 293.22C236.266 293.217 236.601 293.35 236.851 293.59C237.102 293.83 237.25 294.158 237.262 294.505L239.009 368.889C239.011 369.063 238.979 369.236 238.914 369.398C238.849 369.56 238.753 369.707 238.631 369.832C238.51 369.957 238.365 370.056 238.204 370.125C238.044 370.194 237.872 370.23 237.697 370.232H237.703Z" fill="#D9BC9A"/>
<path d="M129.21 230.875C128.862 230.875 128.528 230.736 128.282 230.49C128.036 230.244 127.898 229.911 127.898 229.563V206.655C127.962 205.723 127.833 204.787 127.52 203.907C127.206 203.026 126.715 202.219 126.077 201.536C125.439 200.853 124.667 200.308 123.81 199.936C122.953 199.564 122.028 199.372 121.093 199.372C120.158 199.372 119.234 199.564 118.376 199.936C117.519 200.308 116.747 200.853 116.109 201.536C115.471 202.219 114.98 203.026 114.667 203.907C114.353 204.787 114.225 205.723 114.288 206.655V228.645C114.288 228.993 114.15 229.326 113.904 229.572C113.658 229.818 113.324 229.956 112.976 229.956C112.628 229.956 112.295 229.818 112.049 229.572C111.803 229.326 111.665 228.993 111.665 228.645V206.655C111.59 205.372 111.779 204.086 112.22 202.877C112.66 201.669 113.342 200.563 114.225 199.628C115.108 198.693 116.172 197.948 117.353 197.438C118.534 196.929 119.807 196.666 121.093 196.666C122.379 196.666 123.652 196.929 124.833 197.438C126.014 197.948 127.078 198.693 127.961 199.628C128.844 200.563 129.526 201.669 129.967 202.877C130.407 204.086 130.596 205.372 130.522 206.655V229.563C130.522 229.735 130.488 229.906 130.422 230.065C130.356 230.224 130.259 230.369 130.137 230.49C130.016 230.612 129.871 230.709 129.712 230.775C129.553 230.841 129.382 230.875 129.21 230.875Z" fill="#D9BC9A"/>
<path d="M102.582 190.855C102.356 190.856 102.132 190.798 101.935 190.686C101.738 190.573 101.574 190.411 101.46 190.215C101.28 189.917 101.227 189.56 101.31 189.223C101.394 188.885 101.608 188.595 101.906 188.415L120.416 177.287C120.62 177.163 120.854 177.098 121.093 177.098C121.332 177.098 121.566 177.163 121.77 177.287L140.281 188.415C140.579 188.595 140.794 188.886 140.878 189.224C140.962 189.562 140.909 189.919 140.729 190.218C140.55 190.516 140.259 190.731 139.921 190.815C139.583 190.899 139.225 190.846 138.927 190.666L121.088 179.942L103.249 190.666C103.047 190.787 102.817 190.852 102.582 190.855Z" fill="#D9BC9A"/>
<path d="M139.588 190.856H102.567C102.219 190.856 101.885 190.718 101.639 190.472C101.393 190.226 101.255 189.892 101.255 189.544C101.255 189.196 101.393 188.863 101.639 188.617C101.885 188.371 102.219 188.232 102.567 188.232H139.588C139.936 188.232 140.27 188.371 140.516 188.617C140.761 188.863 140.9 189.196 140.9 189.544C140.9 189.892 140.761 190.226 140.516 190.472C140.27 190.718 139.936 190.856 139.588 190.856Z" fill="#D9BC9A"/>
<path d="M137.731 178.919H104.435C104.087 178.919 103.753 178.781 103.507 178.535C103.261 178.289 103.123 177.955 103.123 177.607C103.123 177.259 103.261 176.926 103.507 176.68C103.753 176.434 104.087 176.295 104.435 176.295H137.71C138.057 176.295 138.391 176.434 138.637 176.68C138.883 176.926 139.021 177.259 139.021 177.607C139.021 177.955 138.883 178.289 138.637 178.535C138.391 178.781 138.057 178.919 137.71 178.919H137.731Z" fill="#D9BC9A"/>
<path d="M104.324 229.865C103.977 229.865 103.643 229.727 103.397 229.481C103.151 229.235 103.013 228.901 103.013 228.553V177.607C103.013 177.259 103.151 176.926 103.397 176.68C103.643 176.434 103.977 176.295 104.324 176.295C104.672 176.295 105.006 176.434 105.252 176.68C105.498 176.926 105.636 177.259 105.636 177.607V228.553C105.636 228.901 105.498 229.235 105.252 229.481C105.006 229.727 104.672 229.865 104.324 229.865Z" fill="#D9BC9A"/>
<path d="M137.862 229.865C137.514 229.865 137.18 229.727 136.934 229.481C136.688 229.235 136.55 228.901 136.55 228.553V177.607C136.55 177.259 136.688 176.926 136.934 176.68C137.18 176.434 137.514 176.295 137.862 176.295C138.21 176.295 138.543 176.434 138.789 176.68C139.035 176.926 139.174 177.259 139.174 177.607V228.553C139.174 228.901 139.035 229.235 138.789 229.481C138.543 229.727 138.21 229.865 137.862 229.865Z" fill="#D9BC9A"/>
<path d="M134.955 178.919C134.783 178.92 134.612 178.887 134.452 178.821C134.293 178.755 134.148 178.659 134.026 178.537C133.904 178.415 133.807 178.27 133.742 178.111C133.676 177.951 133.643 177.78 133.643 177.608C133.643 174.279 132.321 171.087 129.967 168.733C127.614 166.38 124.422 165.057 121.093 165.057C117.765 165.057 114.572 166.38 112.219 168.733C109.865 171.087 108.543 174.279 108.543 177.608C108.543 177.956 108.405 178.289 108.159 178.535C107.913 178.781 107.579 178.919 107.231 178.919C106.883 178.919 106.55 178.781 106.304 178.535C106.058 178.289 105.919 177.956 105.919 177.608C105.919 173.583 107.518 169.724 110.364 166.878C113.209 164.033 117.069 162.434 121.093 162.434C125.117 162.434 128.977 164.033 131.822 166.878C134.668 169.724 136.267 173.583 136.267 177.608C136.267 177.956 136.129 178.289 135.883 178.535C135.637 178.781 135.303 178.919 134.955 178.919Z" fill="#D9BC9A"/>
<path d="M121.093 165.064C120.745 165.064 120.412 164.925 120.166 164.679C119.92 164.433 119.781 164.1 119.781 163.752V151.637C119.781 151.289 119.92 150.955 120.166 150.71C120.412 150.464 120.745 150.325 121.093 150.325C121.441 150.325 121.775 150.464 122.021 150.71C122.267 150.955 122.405 151.289 122.405 151.637V163.752C122.405 164.1 122.267 164.433 122.021 164.679C121.775 164.925 121.441 165.064 121.093 165.064Z" fill="#D9BC9A"/>
<path d="M75.1839 370.507C75.0114 370.508 74.8405 370.474 74.6811 370.409C74.5216 370.343 74.3767 370.246 74.2548 370.124C74.1328 370.002 74.0362 369.858 73.9705 369.698C73.9049 369.539 73.8715 369.368 73.8722 369.195V338.554C73.9356 337.622 73.8068 336.686 73.4935 335.805C73.1803 334.925 72.6893 334.118 72.0512 333.435C71.413 332.752 70.6414 332.207 69.784 331.835C68.9266 331.462 68.0018 331.27 67.0671 331.27C66.1324 331.27 65.2076 331.462 64.3502 331.835C63.4928 332.207 62.7212 332.752 62.0831 333.435C61.4449 334.118 60.954 334.925 60.6407 335.805C60.3275 336.686 60.1986 337.622 60.2621 338.554V368.277C60.2621 368.625 60.1239 368.959 59.8779 369.205C59.6319 369.451 59.2982 369.589 58.9504 369.589C58.6025 369.589 58.2688 369.451 58.0228 369.205C57.7768 368.959 57.6387 368.625 57.6387 368.277V338.554C57.5644 337.27 57.7532 335.985 58.1935 334.776C58.6337 333.568 59.3162 332.462 60.199 331.527C61.0818 330.591 62.1464 329.846 63.3274 329.337C64.5084 328.828 65.781 328.565 67.0671 328.565C68.3532 328.565 69.6258 328.828 70.8068 329.337C71.9878 329.846 73.0524 330.591 73.9352 331.527C74.818 332.462 75.5004 333.568 75.9406 334.776C76.3809 335.985 76.5698 337.27 76.4955 338.554V369.195C76.4962 369.368 76.4628 369.539 76.3972 369.698C76.3315 369.858 76.2349 370.002 76.1129 370.124C75.991 370.246 75.8461 370.343 75.6866 370.409C75.5272 370.474 75.3563 370.508 75.1839 370.507Z" fill="#D9BC9A"/>
<path d="M85.5777 322.747C85.3389 322.749 85.1045 322.683 84.9009 322.559L67.0618 311.834L49.2228 322.559C48.9256 322.725 48.5753 322.769 48.2459 322.682C47.9166 322.595 47.6342 322.383 47.4583 322.091C47.2824 321.8 47.2269 321.451 47.3035 321.119C47.3802 320.787 47.5831 320.498 47.8691 320.313L66.3797 309.179C66.5848 309.058 66.8185 308.995 67.0566 308.995C67.2946 308.995 67.5284 309.058 67.7334 309.179L86.2441 320.313C86.4892 320.461 86.6791 320.685 86.7849 320.951C86.8906 321.218 86.9064 321.511 86.8297 321.787C86.753 322.063 86.588 322.306 86.36 322.48C86.132 322.653 85.8536 322.747 85.5672 322.747H85.5777Z" fill="#D9BC9A"/>
<path d="M85.5776 322.751H48.5563C48.2084 322.751 47.8748 322.612 47.6288 322.366C47.3828 322.12 47.2446 321.787 47.2446 321.439C47.2446 321.091 47.3828 320.757 47.6288 320.511C47.8748 320.265 48.2084 320.127 48.5563 320.127H85.5776C85.9255 320.127 86.2591 320.265 86.5051 320.511C86.7511 320.757 86.8893 321.091 86.8893 321.439C86.8893 321.787 86.7511 322.12 86.5051 322.366C86.2591 322.612 85.9255 322.751 85.5776 322.751Z" fill="#D9BC9A"/>
<path d="M50.2984 369.5C49.9505 369.5 49.6168 369.362 49.3709 369.116C49.1249 368.87 48.9867 368.536 48.9867 368.188V320.936C48.9867 320.588 49.1249 320.254 49.3709 320.008C49.6168 319.762 49.9505 319.624 50.2984 319.624C50.6463 319.624 50.9798 319.762 51.2258 320.008C51.4718 320.254 51.6101 320.588 51.6101 320.936V368.188C51.6101 368.536 51.4718 368.87 51.2258 369.116C50.9798 369.362 50.6463 369.5 50.2984 369.5Z" fill="#D9BC9A"/>
<path d="M83.841 369.5C83.6686 369.501 83.4977 369.467 83.3382 369.401C83.1788 369.336 83.0339 369.239 82.9119 369.117C82.79 368.995 82.6934 368.85 82.6277 368.691C82.562 368.531 82.5286 368.361 82.5293 368.188V320.936C82.5293 320.588 82.6675 320.254 82.9135 320.008C83.1595 319.762 83.4931 319.624 83.841 319.624C84.1889 319.624 84.5225 319.762 84.7685 320.008C85.0145 320.254 85.1527 320.588 85.1527 320.936V368.188C85.1527 368.536 85.0145 368.87 84.7685 369.116C84.5225 369.362 84.1889 369.5 83.841 369.5Z" fill="#D9BC9A"/>
<path d="M329.563 230.874C329.215 230.874 328.881 230.736 328.635 230.49C328.389 230.244 328.251 229.91 328.251 229.562V206.655C328.144 204.922 327.38 203.296 326.115 202.107C324.85 200.919 323.179 200.257 321.444 200.257C319.708 200.257 318.037 200.919 316.772 202.107C315.508 203.296 314.743 204.922 314.636 206.655V228.644C314.636 228.992 314.498 229.326 314.252 229.572C314.006 229.818 313.672 229.956 313.324 229.956C312.976 229.956 312.643 229.818 312.397 229.572C312.151 229.326 312.012 228.992 312.012 228.644V206.655C312.14 204.24 313.189 201.965 314.944 200.301C316.698 198.636 319.025 197.708 321.444 197.708C323.862 197.708 326.189 198.636 327.943 200.301C329.698 201.965 330.747 204.24 330.875 206.655V229.562C330.875 229.735 330.841 229.905 330.775 230.064C330.709 230.223 330.612 230.368 330.49 230.49C330.369 230.612 330.224 230.708 330.065 230.774C329.906 230.84 329.735 230.874 329.563 230.874Z" fill="#D9BC9A"/>
<path d="M339.957 190.855C339.718 190.854 339.485 190.789 339.28 190.666L321.441 179.942L303.602 190.666C303.454 190.755 303.29 190.813 303.12 190.839C302.95 190.864 302.776 190.855 302.609 190.813C302.442 190.771 302.284 190.697 302.146 190.594C302.008 190.492 301.891 190.363 301.802 190.215C301.714 190.067 301.655 189.903 301.63 189.733C301.605 189.563 301.613 189.389 301.655 189.222C301.697 189.055 301.771 188.897 301.874 188.759C301.977 188.621 302.106 188.504 302.254 188.415L320.764 177.287C320.968 177.163 321.202 177.098 321.441 177.098C321.68 177.098 321.914 177.163 322.118 177.287L340.628 188.415C340.872 188.565 341.061 188.789 341.166 189.056C341.27 189.322 341.286 189.615 341.209 189.89C341.133 190.166 340.969 190.409 340.742 190.583C340.515 190.757 340.238 190.853 339.952 190.855H339.957Z" fill="#D9BC9A"/>
<path d="M339.957 190.856H302.936C302.588 190.856 302.254 190.718 302.008 190.472C301.762 190.226 301.624 189.892 301.624 189.544C301.624 189.196 301.762 188.863 302.008 188.617C302.254 188.371 302.588 188.232 302.936 188.232H339.957C340.305 188.232 340.638 188.371 340.884 188.617C341.13 188.863 341.269 189.196 341.269 189.544C341.269 189.892 341.13 190.226 340.884 190.472C340.638 190.718 340.305 190.856 339.957 190.856Z" fill="#D9BC9A"/>
<path d="M338.084 178.919H304.809C304.461 178.919 304.127 178.781 303.881 178.535C303.635 178.289 303.497 177.955 303.497 177.607C303.497 177.259 303.635 176.926 303.881 176.68C304.127 176.434 304.461 176.295 304.809 176.295H338.084C338.432 176.295 338.765 176.434 339.011 176.68C339.257 176.926 339.396 177.259 339.396 177.607C339.396 177.955 339.257 178.289 339.011 178.535C338.765 178.781 338.432 178.919 338.084 178.919Z" fill="#D9BC9A"/>
<path d="M304.673 229.865C304.325 229.865 303.991 229.727 303.745 229.481C303.499 229.235 303.361 228.901 303.361 228.553V177.607C303.361 177.259 303.499 176.926 303.745 176.68C303.991 176.434 304.325 176.295 304.673 176.295C305.02 176.295 305.354 176.434 305.6 176.68C305.846 176.926 305.984 177.259 305.984 177.607V228.553C305.985 228.726 305.952 228.897 305.886 229.056C305.82 229.216 305.724 229.36 305.602 229.482C305.48 229.604 305.335 229.701 305.175 229.767C305.016 229.832 304.845 229.866 304.673 229.865Z" fill="#D9BC9A"/>
<path d="M338.215 229.865C337.867 229.865 337.534 229.727 337.288 229.481C337.042 229.235 336.903 228.901 336.903 228.553V177.607C336.903 177.259 337.042 176.926 337.288 176.68C337.534 176.434 337.867 176.295 338.215 176.295C338.563 176.295 338.897 176.434 339.143 176.68C339.389 176.926 339.527 177.259 339.527 177.607V228.553C339.527 228.901 339.389 229.235 339.143 229.481C338.897 229.727 338.563 229.865 338.215 229.865Z" fill="#D9BC9A"/>
<path d="M335.293 178.921C334.945 178.921 334.611 178.783 334.365 178.537C334.119 178.291 333.981 177.957 333.981 177.609C333.914 174.326 332.562 171.199 330.216 168.901C327.871 166.603 324.717 165.315 321.433 165.315C318.149 165.315 314.996 166.603 312.65 168.901C310.304 171.199 308.953 174.326 308.886 177.609C308.886 177.957 308.747 178.291 308.501 178.537C308.255 178.783 307.922 178.921 307.574 178.921C307.226 178.921 306.892 178.783 306.646 178.537C306.401 178.291 306.262 177.957 306.262 177.609C306.336 173.634 307.967 169.847 310.804 167.063C313.641 164.278 317.458 162.718 321.433 162.718C325.409 162.718 329.225 164.278 332.062 167.063C334.9 169.847 336.53 173.634 336.604 177.609C336.604 177.957 336.466 178.291 336.22 178.537C335.974 178.783 335.641 178.921 335.293 178.921Z" fill="#D9BC9A"/>
<path d="M321.446 165.064C321.099 165.064 320.765 164.925 320.519 164.679C320.273 164.433 320.135 164.1 320.135 163.752V151.637C320.135 151.289 320.273 150.955 320.519 150.71C320.765 150.464 321.099 150.325 321.446 150.325C321.794 150.325 322.128 150.464 322.374 150.71C322.62 150.955 322.758 151.289 322.758 151.637V163.752C322.758 164.1 322.62 164.433 322.374 164.679C322.128 164.925 321.794 165.064 321.446 165.064Z" fill="#D9BC9A"/>
<path d="M167.648 206.536H159.83C159.656 206.537 159.484 206.503 159.324 206.437C159.163 206.37 159.017 206.272 158.895 206.148C158.773 206.025 158.677 205.878 158.612 205.717C158.547 205.555 158.516 205.383 158.518 205.209L159.043 146.445C159.046 146.1 159.185 145.769 159.431 145.526C159.677 145.283 160.009 145.148 160.355 145.149C160.527 145.15 160.697 145.185 160.855 145.251C161.014 145.318 161.158 145.415 161.279 145.537C161.4 145.66 161.495 145.805 161.56 145.964C161.625 146.124 161.657 146.294 161.656 146.466L161.131 203.913H166.347L165.822 146.461C165.82 146.289 165.853 146.119 165.918 145.96C165.983 145.801 166.078 145.656 166.199 145.534C166.32 145.412 166.464 145.315 166.623 145.249C166.781 145.183 166.951 145.149 167.123 145.149C167.467 145.146 167.799 145.28 168.044 145.521C168.29 145.762 168.431 146.09 168.435 146.435L168.959 205.199C168.962 205.372 168.93 205.543 168.865 205.704C168.8 205.864 168.704 206.01 168.582 206.132C168.46 206.258 168.315 206.359 168.155 206.428C167.995 206.497 167.822 206.534 167.648 206.536Z" fill="#D9BC9A"/>
<path d="M186.762 206.536H178.939C178.766 206.536 178.595 206.502 178.436 206.435C178.276 206.368 178.132 206.271 178.01 206.148C177.764 205.898 177.627 205.56 177.627 205.209L178.152 146.445C178.156 146.1 178.296 145.77 178.542 145.528C178.787 145.285 179.118 145.149 179.464 145.149C179.636 145.149 179.806 145.183 179.964 145.25C180.123 145.316 180.267 145.414 180.387 145.536C180.508 145.659 180.603 145.804 180.667 145.964C180.731 146.123 180.762 146.294 180.76 146.466L180.235 203.913H185.403L184.878 146.461C184.877 146.289 184.909 146.119 184.974 145.96C185.039 145.801 185.135 145.656 185.256 145.534C185.377 145.412 185.52 145.315 185.679 145.249C185.838 145.183 186.008 145.149 186.179 145.149C186.524 145.146 186.855 145.28 187.101 145.521C187.347 145.762 187.487 146.09 187.491 146.435L188.016 205.199C188.017 205.371 187.983 205.543 187.918 205.703C187.852 205.863 187.756 206.009 187.634 206.131C187.512 206.254 187.367 206.352 187.208 206.418C187.048 206.485 186.877 206.52 186.704 206.521L186.762 206.536Z" fill="#D9BC9A"/>
<path d="M205.871 206.536H198.053C197.879 206.537 197.707 206.503 197.546 206.437C197.386 206.37 197.24 206.272 197.118 206.148C196.996 206.025 196.9 205.878 196.835 205.717C196.77 205.555 196.738 205.383 196.741 205.209L197.266 146.445C197.269 146.1 197.408 145.769 197.654 145.526C197.9 145.283 198.232 145.148 198.578 145.149C198.75 145.15 198.92 145.185 199.078 145.251C199.237 145.318 199.381 145.415 199.502 145.537C199.623 145.66 199.718 145.805 199.783 145.964C199.848 146.124 199.88 146.294 199.879 146.466L199.354 203.913H204.527L204.003 146.461C204.001 146.289 204.034 146.119 204.099 145.96C204.164 145.801 204.259 145.656 204.38 145.534C204.501 145.412 204.645 145.315 204.804 145.249C204.962 145.183 205.132 145.149 205.304 145.149C205.648 145.146 205.979 145.28 206.225 145.521C206.471 145.762 206.611 146.09 206.616 146.435L207.14 205.199C207.143 205.372 207.111 205.543 207.046 205.704C206.981 205.864 206.885 206.01 206.763 206.132C206.528 206.376 206.209 206.521 205.871 206.536Z" fill="#D9BC9A"/>
<path d="M224.984 206.536H217.162C216.813 206.535 216.479 206.395 216.233 206.148C215.987 205.898 215.849 205.56 215.85 205.209L216.375 146.445C216.379 146.1 216.519 145.77 216.764 145.528C217.01 145.285 217.341 145.149 217.686 145.149C217.858 145.149 218.028 145.183 218.187 145.25C218.346 145.316 218.489 145.414 218.61 145.536C218.731 145.659 218.826 145.804 218.89 145.964C218.953 146.123 218.985 146.294 218.982 146.466L218.457 203.913H223.625L223.101 146.461C223.098 146.289 223.13 146.119 223.194 145.959C223.257 145.8 223.352 145.655 223.473 145.533C223.594 145.411 223.738 145.314 223.896 145.248C224.055 145.182 224.225 145.148 224.397 145.149C224.741 145.146 225.072 145.28 225.318 145.521C225.564 145.762 225.704 146.09 225.708 146.435L226.233 205.199C226.234 205.371 226.201 205.543 226.135 205.703C226.069 205.863 225.973 206.009 225.851 206.131C225.729 206.254 225.585 206.352 225.425 206.418C225.266 206.485 225.094 206.52 224.921 206.521L224.984 206.536Z" fill="#D9BC9A"/>
<path d="M244.093 206.536H236.275C236.102 206.537 235.929 206.503 235.769 206.437C235.608 206.37 235.463 206.272 235.341 206.148C235.219 206.025 235.122 205.878 235.058 205.717C234.993 205.555 234.961 205.383 234.964 205.209L235.488 146.445C235.491 146.1 235.631 145.769 235.877 145.526C236.122 145.283 236.455 145.148 236.8 145.149C236.972 145.15 237.142 145.185 237.301 145.251C237.459 145.318 237.603 145.415 237.724 145.537C237.845 145.66 237.941 145.805 238.005 145.964C238.07 146.124 238.103 146.294 238.101 146.466L237.577 203.913H242.75L242.225 146.461C242.224 146.289 242.257 146.119 242.321 145.96C242.386 145.801 242.482 145.656 242.603 145.534C242.724 145.412 242.868 145.315 243.026 145.249C243.185 145.183 243.355 145.149 243.527 145.149C243.871 145.146 244.202 145.28 244.448 145.521C244.694 145.762 244.834 146.09 244.838 146.435L245.363 205.199C245.366 205.372 245.334 205.543 245.269 205.704C245.204 205.864 245.107 206.01 244.985 206.132C244.75 206.376 244.431 206.521 244.093 206.536Z" fill="#D9BC9A"/>
<path d="M263.207 206.536H255.384C255.036 206.535 254.702 206.395 254.456 206.148C254.21 205.898 254.072 205.56 254.073 205.209L254.597 146.445C254.6 146.1 254.74 145.769 254.986 145.526C255.231 145.283 255.563 145.148 255.909 145.149C256.081 145.15 256.251 145.185 256.41 145.251C256.568 145.318 256.712 145.415 256.833 145.537C256.954 145.66 257.05 145.805 257.114 145.964C257.179 146.124 257.212 146.294 257.21 146.466L256.686 203.913H261.854L261.329 146.461C261.326 146.289 261.358 146.119 261.422 145.959C261.486 145.8 261.581 145.655 261.701 145.533C261.822 145.411 261.966 145.314 262.124 145.248C262.283 145.182 262.453 145.148 262.625 145.149C262.969 145.146 263.3 145.28 263.546 145.521C263.792 145.762 263.932 146.09 263.937 146.435L264.461 205.199C264.462 205.372 264.428 205.543 264.363 205.704C264.297 205.864 264.2 206.01 264.078 206.132C263.85 206.373 263.539 206.518 263.207 206.536Z" fill="#D9BC9A"/>
<path d="M282.3 206.536H274.483C274.309 206.537 274.137 206.503 273.976 206.437C273.816 206.37 273.67 206.272 273.548 206.148C273.426 206.025 273.329 205.878 273.265 205.717C273.2 205.555 273.168 205.383 273.171 205.209L273.696 146.445C273.698 146.1 273.838 145.769 274.084 145.526C274.329 145.283 274.662 145.148 275.007 145.149C275.179 145.15 275.349 145.185 275.508 145.251C275.667 145.318 275.81 145.415 275.931 145.537C276.052 145.66 276.148 145.805 276.212 145.964C276.277 146.124 276.31 146.294 276.308 146.466L275.784 203.913H280.957L280.432 146.461C280.431 146.289 280.464 146.119 280.528 145.96C280.593 145.801 280.689 145.656 280.81 145.534C280.931 145.412 281.075 145.315 281.233 145.249C281.392 145.183 281.562 145.149 281.733 145.149C282.078 145.146 282.409 145.28 282.655 145.521C282.901 145.762 283.041 146.09 283.045 146.435L283.57 205.199C283.573 205.372 283.541 205.543 283.476 205.704C283.411 205.864 283.314 206.01 283.192 206.132C282.957 206.376 282.638 206.521 282.3 206.536Z" fill="#D9BC9A"/>
<path d="M285.259 232.16C284.911 232.16 284.578 232.022 284.332 231.776C284.086 231.53 283.947 231.196 283.947 230.849V206.855H158.198V230.849C158.198 231.196 158.06 231.53 157.814 231.776C157.568 232.022 157.234 232.16 156.886 232.16C156.539 232.16 156.205 232.022 155.959 231.776C155.713 231.53 155.575 231.196 155.575 230.849V205.543C155.575 205.196 155.713 204.862 155.959 204.616C156.205 204.37 156.539 204.232 156.886 204.232H285.259C285.607 204.232 285.941 204.37 286.187 204.616C286.433 204.862 286.571 205.196 286.571 205.543V230.849C286.571 231.196 286.433 231.53 286.187 231.776C285.941 232.022 285.607 232.16 285.259 232.16Z" fill="#D9BC9A"/>
<path d="M285.259 146.43H156.902C156.555 146.43 156.221 146.292 155.975 146.046C155.729 145.8 155.591 145.466 155.591 145.118V130.254C155.591 129.906 155.729 129.573 155.975 129.327C156.221 129.081 156.555 128.942 156.902 128.942H285.275C285.623 128.942 285.957 129.081 286.203 129.327C286.449 129.573 286.587 129.906 286.587 130.254V145.118C286.587 145.292 286.552 145.464 286.486 145.624C286.419 145.784 286.321 145.929 286.197 146.051C286.074 146.173 285.927 146.27 285.766 146.335C285.605 146.4 285.433 146.432 285.259 146.43ZM158.198 143.806H283.948V131.566H158.198V143.806Z" fill="#D9BC9A"/>
<path d="M228.783 21.9619C228.435 21.9619 228.102 21.8237 227.856 21.5778C227.61 21.3318 227.471 20.9981 227.471 20.6502C227.5 19.4493 227.289 18.2546 226.849 17.1366C226.41 16.0185 225.751 14.9997 224.912 14.1401C224.073 13.2804 223.07 12.5973 221.963 12.1308C220.856 11.6644 219.667 11.4241 218.465 11.4241C217.264 11.4241 216.075 11.6644 214.968 12.1308C213.861 12.5973 212.858 13.2804 212.019 14.1401C211.18 14.9997 210.521 16.0185 210.081 17.1366C209.642 18.2546 209.43 19.4493 209.459 20.6502C209.459 20.9981 209.321 21.3318 209.075 21.5778C208.829 21.8237 208.495 21.9619 208.148 21.9619C207.8 21.9619 207.466 21.8237 207.22 21.5778C206.974 21.3318 206.836 20.9981 206.836 20.6502C206.803 19.1022 207.079 17.5633 207.649 16.1235C208.219 14.6838 209.07 13.3723 210.153 12.2659C211.237 11.1595 212.53 10.2805 213.957 9.68034C215.384 9.08023 216.917 8.77112 218.465 8.77112C220.014 8.77112 221.546 9.08023 222.974 9.68034C224.401 10.2805 225.694 11.1595 226.777 12.2659C227.861 13.3723 228.712 14.6838 229.282 16.1235C229.851 17.5633 230.128 19.1022 230.095 20.6502C230.095 20.9981 229.957 21.3318 229.711 21.5778C229.465 21.8237 229.131 21.9619 228.783 21.9619Z" fill="#D9BC9A"/>
<path d="M218.489 11.6426C218.141 11.6426 217.808 11.5044 217.562 11.2584C217.316 11.0124 217.177 10.6788 217.177 10.3309V1.31169C217.177 0.963811 217.316 0.630171 217.562 0.384181C217.808 0.138191 218.141 0 218.489 0C218.837 0 219.17 0.138191 219.416 0.384181C219.662 0.630171 219.801 0.963811 219.801 1.31169V10.3309C219.801 10.6788 219.662 11.0124 219.416 11.2584C219.17 11.5044 218.837 11.6426 218.489 11.6426Z" fill="#D9BC9A"/>
<path d="M218.489 45.9033C218.141 45.9033 217.808 45.7651 217.562 45.5191C217.316 45.2731 217.177 44.9394 217.177 44.5916V29.7012C217.177 29.3533 217.316 29.0197 217.562 28.7737C217.808 28.5277 218.141 28.3895 218.489 28.3895C218.837 28.3895 219.17 28.5277 219.416 28.7737C219.662 29.0197 219.801 29.3533 219.801 29.7012V44.5916C219.801 44.9394 219.662 45.2731 219.416 45.5191C219.17 45.7651 218.837 45.9033 218.489 45.9033Z" fill="#D9BC9A"/>
<path d="M276.109 131.564H166.037C165.689 131.564 165.355 131.426 165.11 131.18C164.864 130.934 164.725 130.6 164.725 130.252V106.164C164.725 105.816 164.864 105.483 165.11 105.237C165.355 104.991 165.689 104.853 166.037 104.853H276.109C276.457 104.853 276.791 104.991 277.037 105.237C277.283 105.483 277.421 105.816 277.421 106.164V130.231C277.423 130.405 277.392 130.578 277.327 130.74C277.262 130.901 277.166 131.048 277.044 131.172C276.922 131.296 276.776 131.395 276.616 131.462C276.455 131.529 276.283 131.564 276.109 131.564ZM167.349 128.941H274.797V107.497H167.349V128.941Z" fill="#D9BC9A"/>
<path d="M179.296 129.647C178.948 129.647 178.614 129.508 178.368 129.262C178.122 129.016 177.984 128.683 177.984 128.335V113.87C177.984 113.522 178.122 113.188 178.368 112.942C178.614 112.696 178.948 112.558 179.296 112.558C179.643 112.558 179.977 112.696 180.223 112.942C180.469 113.188 180.607 113.522 180.607 113.87V128.335C180.607 128.683 180.469 129.016 180.223 129.262C179.977 129.508 179.643 129.647 179.296 129.647Z" fill="#D9BC9A"/>
<path d="M193.667 129.647C193.319 129.647 192.985 129.508 192.739 129.262C192.493 129.016 192.355 128.683 192.355 128.335V113.87C192.355 113.522 192.493 113.188 192.739 112.942C192.985 112.696 193.319 112.558 193.667 112.558C194.014 112.558 194.348 112.696 194.594 112.942C194.84 113.188 194.978 113.522 194.978 113.87V128.335C194.978 128.683 194.84 129.016 194.594 129.262C194.348 129.508 194.014 129.647 193.667 129.647Z" fill="#D9BC9A"/>
<path d="M208.032 129.647C207.684 129.647 207.351 129.508 207.105 129.262C206.859 129.016 206.72 128.683 206.72 128.335V113.87C206.72 113.522 206.859 113.188 207.105 112.942C207.351 112.696 207.684 112.558 208.032 112.558C208.38 112.558 208.714 112.696 208.96 112.942C209.206 113.188 209.344 113.522 209.344 113.87V128.335C209.344 128.683 209.206 129.016 208.96 129.262C208.714 129.508 208.38 129.647 208.032 129.647Z" fill="#D9BC9A"/>
<path d="M222.403 129.647C222.055 129.647 221.721 129.508 221.475 129.262C221.229 129.016 221.091 128.683 221.091 128.335V113.87C221.091 113.522 221.229 113.188 221.475 112.942C221.721 112.696 222.055 112.558 222.403 112.558C222.751 112.558 223.084 112.696 223.33 112.942C223.576 113.188 223.715 113.522 223.715 113.87V128.335C223.715 128.683 223.576 129.016 223.33 129.262C223.084 129.508 222.751 129.647 222.403 129.647Z" fill="#D9BC9A"/>
<path d="M236.769 129.647C236.421 129.647 236.087 129.508 235.841 129.262C235.595 129.016 235.457 128.683 235.457 128.335V113.87C235.457 113.522 235.595 113.188 235.841 112.942C236.087 112.696 236.421 112.558 236.769 112.558C237.117 112.558 237.45 112.696 237.696 112.942C237.942 113.188 238.08 113.522 238.08 113.87V128.335C238.08 128.683 237.942 129.016 237.696 129.262C237.45 129.508 237.117 129.647 236.769 129.647Z" fill="#D9BC9A"/>
<path d="M251.14 129.647C250.792 129.647 250.458 129.508 250.212 129.262C249.966 129.016 249.828 128.683 249.828 128.335V113.87C249.828 113.522 249.966 113.188 250.212 112.942C250.458 112.696 250.792 112.558 251.14 112.558C251.488 112.558 251.821 112.696 252.067 112.942C252.313 113.188 252.451 113.522 252.451 113.87V128.335C252.451 128.683 252.313 129.016 252.067 129.262C251.821 129.508 251.488 129.647 251.14 129.647Z" fill="#D9BC9A"/>
<path d="M265.511 129.647C265.163 129.647 264.829 129.508 264.583 129.262C264.337 129.016 264.199 128.683 264.199 128.335V113.87C264.199 113.522 264.337 113.188 264.583 112.942C264.829 112.696 265.163 112.558 265.511 112.558C265.858 112.558 266.192 112.696 266.438 112.942C266.684 113.188 266.822 113.522 266.822 113.87V128.335C266.823 128.507 266.79 128.678 266.724 128.838C266.658 128.997 266.562 129.142 266.44 129.264C266.318 129.386 266.173 129.482 266.013 129.548C265.854 129.614 265.683 129.647 265.511 129.647Z" fill="#D9BC9A"/>
<path d="M271.282 107.497C271.11 107.498 270.939 107.465 270.779 107.399C270.62 107.333 270.475 107.237 270.353 107.115C270.231 106.993 270.134 106.848 270.069 106.688C270.003 106.529 269.97 106.358 269.97 106.186C269.97 73.4721 247.845 46.8604 220.651 46.8604C193.457 46.8604 171.331 73.4721 171.331 106.186C171.331 106.534 171.193 106.867 170.947 107.113C170.701 107.359 170.367 107.497 170.019 107.497C169.671 107.497 169.338 107.359 169.092 107.113C168.846 106.867 168.708 106.534 168.708 106.186C168.708 72.0292 192.008 44.2371 220.651 44.2371C249.293 44.2371 272.594 72.045 272.594 106.186C272.594 106.358 272.561 106.529 272.495 106.688C272.43 106.848 272.333 106.993 272.211 107.115C272.089 107.237 271.944 107.333 271.785 107.399C271.625 107.465 271.454 107.498 271.282 107.497Z" fill="#D9BC9A"/>
<path d="M185.151 107.495C184.979 107.496 184.808 107.462 184.648 107.396C184.489 107.331 184.344 107.234 184.222 107.112C184.1 106.99 184.003 106.845 183.938 106.686C183.872 106.526 183.839 106.356 183.839 106.183C183.839 89.745 187.885 74.267 195.235 62.6087C202.707 50.7615 212.697 44.245 223.374 44.245C223.722 44.245 224.055 44.3832 224.301 44.6292C224.547 44.8752 224.685 45.2088 224.685 45.5567C224.685 45.9046 224.547 46.2382 224.301 46.4842C224.055 46.7302 223.722 46.8684 223.374 46.8684C203.021 46.8684 186.463 73.48 186.463 106.194C186.462 106.365 186.428 106.535 186.361 106.693C186.295 106.851 186.198 106.995 186.076 107.116C185.954 107.237 185.81 107.332 185.651 107.397C185.493 107.462 185.323 107.496 185.151 107.495Z" fill="#D9BC9A"/>
<path d="M206.93 107.497C206.758 107.498 206.587 107.465 206.428 107.399C206.268 107.333 206.123 107.237 206.001 107.115C205.879 106.993 205.783 106.848 205.717 106.688C205.651 106.529 205.618 106.358 205.619 106.186C205.619 76.1532 210.865 44.2371 220.635 44.2371C220.983 44.2371 221.316 44.3753 221.562 44.6212C221.808 44.8672 221.947 45.2009 221.947 45.5488C221.947 45.8966 221.808 46.2303 221.562 46.4763C221.316 46.7222 220.983 46.8604 220.635 46.8604C218.4 46.8604 215.016 51.2572 212.24 63.5977C209.674 74.9622 208.258 90.0834 208.258 106.186C208.258 106.36 208.225 106.532 208.158 106.692C208.091 106.853 207.993 106.998 207.87 107.12C207.746 107.243 207.599 107.339 207.438 107.404C207.277 107.468 207.104 107.5 206.93 107.497Z" fill="#D9BC9A"/>
<path d="M234.135 107.497C233.962 107.498 233.791 107.465 233.632 107.399C233.472 107.333 233.328 107.237 233.206 107.115C233.084 106.993 232.987 106.848 232.922 106.688C232.856 106.529 232.822 106.358 232.823 106.186C232.823 90.0834 231.412 74.9622 228.841 63.5977C226.055 51.2572 222.671 46.8604 220.446 46.8604C220.098 46.8604 219.764 46.7222 219.518 46.4763C219.272 46.2303 219.134 45.8966 219.134 45.5488C219.134 45.2009 219.272 44.8672 219.518 44.6212C219.764 44.3753 220.098 44.2371 220.446 44.2371C230.2 44.2371 235.462 76.1532 235.462 106.186C235.463 106.36 235.429 106.532 235.362 106.692C235.296 106.853 235.198 106.998 235.074 107.12C234.95 107.243 234.804 107.339 234.642 107.404C234.481 107.468 234.308 107.5 234.135 107.497Z" fill="#D9BC9A"/>
<path d="M253.28 107.495C253.108 107.496 252.937 107.462 252.777 107.397C252.618 107.331 252.473 107.234 252.351 107.112C252.229 106.991 252.133 106.846 252.067 106.686C252.001 106.527 251.968 106.356 251.969 106.183C251.969 76.0302 237.918 50.6935 219.292 47.2464C218.377 47.12 217.451 47.0971 216.532 47.1782C216.044 47.1782 215.551 47.2202 215.052 47.2202C214.704 47.2202 214.371 47.082 214.125 46.836C213.879 46.59 213.741 46.2564 213.741 45.9085C213.741 45.5606 213.879 45.227 214.125 44.981C214.371 44.735 214.704 44.5968 215.052 44.5968C215.509 44.5968 215.96 44.5968 216.411 44.5548C217.531 44.4641 218.658 44.5011 219.769 44.665C239.618 48.3377 254.592 74.7867 254.592 106.183C254.593 106.356 254.559 106.527 254.494 106.686C254.428 106.846 254.331 106.991 254.209 107.112C254.087 107.234 253.942 107.331 253.783 107.397C253.624 107.462 253.453 107.496 253.28 107.495Z" fill="#D9BC9A"/>
<path d="M228.783 46.6701C228.435 46.6701 228.102 46.5319 227.856 46.2859C227.61 46.04 227.471 45.7063 227.471 45.3584V22.7029H209.15V45.3584C209.15 45.7063 209.011 46.04 208.765 46.2859C208.519 46.5319 208.186 46.6701 207.838 46.6701C207.49 46.6701 207.157 46.5319 206.911 46.2859C206.665 46.04 206.526 45.7063 206.526 45.3584V21.3912C206.526 21.0433 206.665 20.7096 206.911 20.4637C207.157 20.2177 207.49 20.0795 207.838 20.0795H228.783C229.131 20.0795 229.465 20.2177 229.711 20.4637C229.957 20.7096 230.095 21.0433 230.095 21.3912V45.3584C230.095 45.7063 229.957 46.04 229.711 46.2859C229.465 46.5319 229.131 46.6701 228.783 46.6701Z" fill="#D9BC9A"/>
<path d="M342.691 232.16H33.2149C32.867 232.16 32.5333 232.022 32.2874 231.776C32.0414 231.53 31.9032 231.197 31.9032 230.849C31.9032 230.501 32.0414 230.167 32.2874 229.921C32.5333 229.675 32.867 229.537 33.2149 229.537H342.691C343.039 229.537 343.372 229.675 343.618 229.921C343.864 230.167 344.002 230.501 344.002 230.849C344.002 231.197 343.864 231.53 343.618 231.776C343.372 232.022 343.039 232.16 342.691 232.16Z" fill="#D9BC9A"/>
<path d="M342.691 248.409H246.307C245.959 248.409 245.626 248.271 245.38 248.025C245.134 247.779 244.996 247.445 244.996 247.098C244.996 246.75 245.134 246.416 245.38 246.17C245.626 245.924 245.959 245.786 246.307 245.786H342.691C343.039 245.786 343.372 245.924 343.618 246.17C343.864 246.416 344.002 246.75 344.002 247.098C344.002 247.445 343.864 247.779 343.618 248.025C343.372 248.271 343.039 248.409 342.691 248.409Z" fill="#D9BC9A"/>
<path d="M196.494 248.409H33.2149C32.867 248.409 32.5333 248.271 32.2874 248.025C32.0414 247.779 31.9032 247.445 31.9032 247.098C31.9032 246.75 32.0414 246.416 32.2874 246.17C32.5333 245.924 32.867 245.786 33.2149 245.786H196.494C196.842 245.786 197.176 245.924 197.422 246.17C197.668 246.416 197.806 246.75 197.806 247.098C197.806 247.445 197.668 247.779 197.422 248.025C197.176 248.271 196.842 248.409 196.494 248.409Z" fill="#D9BC9A"/>
<path d="M196.494 275.405H33.2149C32.867 275.405 32.5333 275.267 32.2874 275.021C32.0414 274.775 31.9032 274.442 31.9032 274.094C31.9032 273.746 32.0414 273.412 32.2874 273.166C32.5333 272.92 32.867 272.782 33.2149 272.782H196.494C196.842 272.782 197.176 272.92 197.422 273.166C197.668 273.412 197.806 273.746 197.806 274.094C197.806 274.442 197.668 274.775 197.422 275.021C197.176 275.267 196.842 275.405 196.494 275.405Z" fill="#D9BC9A"/>
<path d="M133.03 290.692H33.2149C32.867 290.692 32.5333 290.554 32.2874 290.308C32.0414 290.062 31.9032 289.728 31.9032 289.38C31.9032 289.033 32.0414 288.699 32.2874 288.453C32.5333 288.207 32.867 288.069 33.2149 288.069H133.03C133.377 288.069 133.711 288.207 133.957 288.453C134.203 288.699 134.341 289.033 134.341 289.38C134.341 289.728 134.203 290.062 133.957 290.308C133.711 290.554 133.377 290.692 133.03 290.692Z" fill="#D9BC9A"/>
<path d="M99.6286 370.004C99.2807 370.004 98.947 369.866 98.7011 369.62C98.4551 369.374 98.3169 369.04 98.3169 368.692V230.849C98.3169 230.501 98.4551 230.167 98.7011 229.921C98.947 229.675 99.2807 229.537 99.6286 229.537C99.9765 229.537 100.31 229.675 100.556 229.921C100.802 230.167 100.94 230.501 100.94 230.849V368.692C100.94 369.04 100.802 369.374 100.556 369.62C100.31 369.866 99.9765 370.004 99.6286 370.004Z" fill="#D9BC9A"/>
<path d="M33.2149 370.004C32.867 370.004 32.5333 369.866 32.2874 369.62C32.0414 369.374 31.9032 369.04 31.9032 368.692V204.332C31.9032 203.984 32.0414 203.65 32.2874 203.404C32.5333 203.158 32.867 203.02 33.2149 203.02C33.5628 203.02 33.8964 203.158 34.1424 203.404C34.3884 203.65 34.5266 203.984 34.5266 204.332V368.692C34.5266 369.04 34.3884 369.374 34.1424 369.62C33.8964 369.866 33.5628 370.004 33.2149 370.004Z" fill="#D9BC9A"/>
<path d="M342.691 370.004C342.343 370.004 342.009 369.866 341.763 369.62C341.517 369.374 341.379 369.04 341.379 368.692V230.849C341.379 230.501 341.517 230.167 341.763 229.921C342.009 229.675 342.343 229.537 342.691 229.537C343.039 229.537 343.372 229.675 343.618 229.921C343.864 230.167 344.002 230.501 344.002 230.849V368.692C344.003 368.864 343.97 369.035 343.904 369.195C343.838 369.354 343.742 369.499 343.62 369.621C343.498 369.743 343.353 369.84 343.193 369.905C343.034 369.971 342.863 370.004 342.691 370.004Z" fill="#D9BC9A"/>
<path d="M51.8672 230.874C51.5194 230.874 51.1857 230.736 50.9397 230.49C50.6937 230.244 50.5555 229.91 50.5555 229.563C50.5514 225.328 48.8675 221.267 45.8734 218.272C42.8793 215.277 38.8194 213.592 34.5844 213.586C34.2365 213.586 33.9029 213.448 33.6569 213.202C33.4109 212.956 33.2727 212.622 33.2727 212.274C33.2727 211.927 33.4109 211.593 33.6569 211.347C33.9029 211.101 34.2365 210.963 34.5844 210.963C39.5148 210.97 44.241 212.932 47.7268 216.419C51.2126 219.905 53.1734 224.632 53.1789 229.563C53.1796 229.735 53.1461 229.906 53.0804 230.065C53.0148 230.225 52.9183 230.37 52.7963 230.492C52.6744 230.614 52.5295 230.71 52.37 230.776C52.2106 230.842 52.0397 230.875 51.8672 230.874Z" fill="#D9BC9A"/>
<path d="M369.963 370.507C369.791 370.508 369.62 370.474 369.461 370.408C369.301 370.343 369.156 370.246 369.034 370.124C368.912 370.002 368.816 369.857 368.75 369.698C368.684 369.539 368.651 369.368 368.652 369.195V338.554C368.652 336.049 369.647 333.647 371.418 331.876C373.189 330.105 375.591 329.11 378.096 329.11C380.601 329.11 383.003 330.105 384.774 331.876C386.545 333.647 387.54 336.049 387.54 338.554V368.277C387.54 368.625 387.402 368.959 387.156 369.205C386.91 369.451 386.576 369.589 386.228 369.589C385.88 369.589 385.547 369.451 385.301 369.205C385.055 368.959 384.917 368.625 384.917 368.277V338.554C384.917 336.745 384.198 335.01 382.919 333.731C381.64 332.452 379.905 331.733 378.096 331.733C376.287 331.733 374.552 332.452 373.273 333.731C371.994 335.01 371.275 336.745 371.275 338.554V369.195C371.276 369.368 371.242 369.539 371.177 369.698C371.111 369.857 371.014 370.002 370.892 370.124C370.77 370.246 370.626 370.343 370.466 370.408C370.307 370.474 370.136 370.508 369.963 370.507Z" fill="#D9BC9A"/>
<path d="M359.569 322.747C359.283 322.747 359.005 322.653 358.777 322.48C358.549 322.306 358.384 322.063 358.307 321.787C358.23 321.511 358.246 321.218 358.352 320.951C358.457 320.685 358.647 320.461 358.893 320.313L377.403 309.179C377.608 309.058 377.842 308.995 378.08 308.995C378.318 308.995 378.552 309.058 378.757 309.179L397.268 320.313C397.425 320.396 397.564 320.511 397.676 320.65C397.788 320.788 397.871 320.949 397.919 321.12C397.967 321.292 397.979 321.472 397.955 321.649C397.932 321.825 397.872 321.996 397.78 322.148C397.688 322.301 397.566 322.434 397.421 322.538C397.277 322.642 397.112 322.716 396.938 322.754C396.764 322.793 396.584 322.795 396.408 322.761C396.233 322.728 396.067 322.659 395.919 322.559L378.08 311.834L360.241 322.559C360.039 322.683 359.807 322.748 359.569 322.747Z" fill="#D9BC9A"/>
<path d="M396.591 322.751H359.57C359.222 322.751 358.888 322.612 358.642 322.366C358.396 322.12 358.258 321.787 358.258 321.439C358.258 321.091 358.396 320.757 358.642 320.511C358.888 320.265 359.222 320.127 359.57 320.127H396.591C396.939 320.127 397.272 320.265 397.518 320.511C397.764 320.757 397.902 321.091 397.902 321.439C397.902 321.787 397.764 322.12 397.518 322.366C397.272 322.612 396.939 322.751 396.591 322.751Z" fill="#D9BC9A"/>
<path d="M394.854 369.5C394.682 369.501 394.511 369.467 394.351 369.401C394.192 369.336 394.047 369.239 393.925 369.117C393.803 368.995 393.707 368.85 393.641 368.691C393.575 368.531 393.542 368.361 393.542 368.188V320.936C393.542 320.588 393.681 320.254 393.927 320.008C394.173 319.762 394.506 319.624 394.854 319.624C395.202 319.624 395.536 319.762 395.782 320.008C396.028 320.254 396.166 320.588 396.166 320.936V368.188C396.166 368.536 396.028 368.87 395.782 369.116C395.536 369.362 395.202 369.5 394.854 369.5Z" fill="#D9BC9A"/>
<path d="M361.311 369.5C360.964 369.5 360.63 369.362 360.384 369.116C360.138 368.87 360 368.536 360 368.188V320.936C360 320.588 360.138 320.254 360.384 320.008C360.63 319.762 360.964 319.624 361.311 319.624C361.659 319.624 361.993 319.762 362.239 320.008C362.485 320.254 362.623 320.588 362.623 320.936V368.188C362.623 368.536 362.485 368.87 362.239 369.116C361.993 369.362 361.659 369.5 361.311 369.5Z" fill="#D9BC9A"/>
<path d="M411.938 232.16H102.457C102.109 232.16 101.775 232.022 101.529 231.776C101.283 231.53 101.145 231.197 101.145 230.849C101.145 230.501 101.283 230.167 101.529 229.921C101.775 229.675 102.109 229.537 102.457 229.537H411.938C412.285 229.537 412.619 229.675 412.865 229.921C413.111 230.167 413.249 230.501 413.249 230.849C413.249 231.197 413.111 231.53 412.865 231.776C412.619 232.022 412.285 232.16 411.938 232.16Z" fill="#D9BC9A"/>
<path d="M411.938 248.409H248.653C248.305 248.409 247.971 248.271 247.725 248.025C247.479 247.779 247.341 247.445 247.341 247.098C247.341 246.75 247.479 246.416 247.725 246.17C247.971 245.924 248.305 245.786 248.653 245.786H411.938C412.285 245.786 412.619 245.924 412.865 246.17C413.111 246.416 413.249 246.75 413.249 247.098C413.249 247.445 413.111 247.779 412.865 248.025C412.619 248.271 412.285 248.409 411.938 248.409Z" fill="#D9BC9A"/>
<path d="M411.938 275.405H248.653C248.305 275.405 247.971 275.267 247.725 275.021C247.479 274.775 247.341 274.442 247.341 274.094C247.341 273.746 247.479 273.412 247.725 273.166C247.971 272.92 248.305 272.782 248.653 272.782H411.938C412.285 272.782 412.619 272.92 412.865 273.166C413.111 273.412 413.249 273.746 413.249 274.094C413.249 274.442 413.111 274.775 412.865 275.021C412.619 275.267 412.285 275.405 411.938 275.405Z" fill="#D9BC9A"/>
<path d="M411.938 290.692H308.796C308.449 290.692 308.115 290.554 307.869 290.308C307.623 290.062 307.485 289.728 307.485 289.38C307.485 289.033 307.623 288.699 307.869 288.453C308.115 288.207 308.449 288.069 308.796 288.069H411.938C412.285 288.069 412.619 288.207 412.865 288.453C413.111 288.699 413.249 289.033 413.249 289.38C413.249 289.728 413.111 290.062 412.865 290.308C412.619 290.554 412.285 290.692 411.938 290.692Z" fill="#D9BC9A"/>
<path d="M411.938 370.004C411.765 370.005 411.594 369.971 411.435 369.905C411.275 369.84 411.13 369.743 411.008 369.621C410.887 369.499 410.79 369.354 410.724 369.195C410.659 369.036 410.625 368.865 410.626 368.692V204.332C410.626 203.984 410.764 203.65 411.01 203.404C411.256 203.158 411.59 203.02 411.938 203.02C412.285 203.02 412.619 203.158 412.865 203.404C413.111 203.65 413.249 203.984 413.249 204.332V368.692C413.249 369.04 413.111 369.374 412.865 369.62C412.619 369.866 412.285 370.004 411.938 370.004Z" fill="#D9BC9A"/>
<path d="M393.28 230.874C392.932 230.874 392.598 230.736 392.352 230.49C392.106 230.244 391.968 229.91 391.968 229.563C391.974 224.631 393.935 219.904 397.422 216.417C400.909 212.93 405.637 210.968 410.568 210.963C410.916 210.963 411.25 211.101 411.496 211.347C411.742 211.593 411.88 211.927 411.88 212.274C411.88 212.622 411.742 212.956 411.496 213.202C411.25 213.448 410.916 213.586 410.568 213.586C406.33 213.588 402.266 215.271 399.269 218.266C396.271 221.262 394.585 225.325 394.581 229.563C394.581 229.909 394.444 230.241 394.201 230.486C393.957 230.732 393.626 230.872 393.28 230.874Z" fill="#D9BC9A"/>
<path d="M438.879 371.004L5.48467 370.758C5.13678 370.758 4.80312 370.62 4.55713 370.374C4.31114 370.128 4.17297 369.795 4.17297 369.447C4.17297 369.099 4.31114 368.765 4.55713 368.519C4.80312 368.273 5.13678 368.135 5.48467 368.135L438.879 368.381C439.227 368.381 439.561 368.519 439.807 368.765C440.053 369.011 440.191 369.345 440.191 369.693C440.191 370.041 440.053 370.374 439.807 370.62C439.561 370.866 439.227 371.004 438.879 371.004Z" fill="#D9BC9A"/>
<path d="M98.9234 58.2182H37.0901C36.7422 58.2182 36.4086 58.08 36.1626 57.834C35.9166 57.5881 35.7784 57.2544 35.7784 56.9065C35.7784 56.5587 35.9166 56.225 36.1626 55.979C36.4086 55.733 36.7422 55.5948 37.0901 55.5948H98.9234C101.125 55.6199 103.246 54.7694 104.82 53.2305C106.395 51.6916 107.293 49.5903 107.318 47.3889C107.343 45.1875 106.493 43.0663 104.954 41.492C103.415 39.9176 101.314 39.0191 99.1122 38.994C98.8759 39.0668 98.624 39.0713 98.3853 39.007C98.1466 38.9428 97.9309 38.8124 97.7631 38.6309C97.5953 38.4493 97.4822 38.2241 97.4369 37.9811C97.3915 37.7381 97.4157 37.4872 97.5068 37.2574C98.3535 35.1013 98.5185 32.7375 97.9797 30.4847C97.4409 28.2319 96.2242 26.1985 94.4936 24.6589C92.763 23.1193 90.6017 22.1476 88.3015 21.8747C86.0013 21.6019 83.6728 22.0411 81.63 23.1331C81.4679 23.2203 81.2892 23.2724 81.1056 23.286C80.922 23.2996 80.7376 23.2744 80.5644 23.212C80.3912 23.1496 80.233 23.0515 80.1002 22.924C79.9674 22.7965 79.863 22.6425 79.7937 22.472C78.5163 19.3214 76.3277 16.6238 73.5082 14.7245C70.6886 12.8252 67.3664 11.8106 63.9668 11.8106C60.5671 11.8106 57.2449 12.8252 54.4253 14.7245C51.6058 16.6238 49.4172 19.3214 48.1398 22.472C48.0698 22.6413 47.9651 22.7941 47.8325 22.9206C47.7 23.0472 47.5426 23.1447 47.3703 23.2069C47.1979 23.2691 47.0145 23.2947 46.8317 23.282C46.649 23.2692 46.4708 23.2185 46.3087 23.1331C44.6785 22.2625 42.8576 21.8099 41.0094 21.8161C39.1654 21.8069 37.3471 22.2491 35.7132 23.104C34.0793 23.959 32.6795 25.2008 31.6358 26.7211C30.5921 28.2413 29.9363 29.9939 29.7255 31.8259C29.5148 33.6579 29.7555 35.5136 30.4267 37.2311C30.5034 37.4298 30.5305 37.644 30.5058 37.8555C30.4811 38.067 30.4053 38.2692 30.2849 38.4448C30.1646 38.6205 30.0034 38.7641 29.8151 38.8635C29.6268 38.9628 29.4171 39.0148 29.2042 39.015H21.2344C19.3754 39.0151 17.5703 39.6392 16.1083 40.7872C14.6462 41.9353 13.6119 43.5409 13.171 45.3468C12.7302 47.1527 12.9083 49.0543 13.6768 50.7469C14.4453 52.4396 15.7597 53.8252 17.4095 54.6819C17.7184 54.8426 17.9508 55.1195 18.0556 55.4516C18.1604 55.7837 18.1289 56.1438 17.9682 56.4527C17.8075 56.7616 17.5307 56.994 17.1986 57.0988C16.8665 57.2036 16.5063 57.1722 16.1974 57.0115C14.0253 55.8843 12.2945 54.0604 11.2827 51.8322C10.2708 49.604 10.0365 47.1005 10.6172 44.7232C11.1979 42.3459 12.5601 40.2325 14.4853 38.7217C16.4105 37.211 18.7872 36.3904 21.2344 36.3916H27.4308C27.1736 35.33 27.0433 34.2415 27.0426 33.1491C27.0427 30.8621 27.6052 28.6101 28.6807 26.5917C29.7561 24.5733 31.3115 22.8503 33.2097 21.5747C35.108 20.299 37.2908 19.5097 39.5659 19.2764C41.8411 19.0431 44.1386 19.3729 46.2562 20.2368C47.8774 16.9256 50.3952 14.1356 53.5233 12.1842C56.6514 10.2329 60.2642 9.19836 63.951 9.19836C67.6378 9.19836 71.2506 10.2329 74.3787 12.1842C77.5068 14.1356 80.0245 16.9256 81.6457 20.2368C83.7645 19.3648 86.0655 19.0281 88.3453 19.2563C90.6251 19.4846 92.8137 20.2708 94.7175 21.5456C96.6214 22.8203 98.1819 24.5444 99.2613 26.5654C100.341 28.5864 100.906 30.8422 100.907 33.1334C100.908 34.2638 100.769 35.39 100.492 36.4861C103.229 36.8778 105.716 38.293 107.451 40.4463C109.186 42.5996 110.04 45.3307 109.84 48.0887C109.64 50.8466 108.402 53.4263 106.375 55.3071C104.348 57.188 101.683 58.2302 98.9181 58.2235L98.9234 58.2182Z" fill="#D9BC9A"/>
<path d="M419.843 124.661H358.01C357.662 124.661 357.328 124.523 357.082 124.277C356.836 124.031 356.698 123.697 356.698 123.349C356.698 123.002 356.836 122.668 357.082 122.422C357.328 122.176 357.662 122.038 358.01 122.038H419.843C422.044 122.063 424.166 121.212 425.74 119.673C427.314 118.134 428.213 116.033 428.238 113.832C428.263 111.63 427.412 109.509 425.874 107.935C424.335 106.361 422.233 105.462 420.032 105.437C419.796 105.51 419.544 105.514 419.305 105.45C419.066 105.386 418.851 105.255 418.683 105.074C418.515 104.892 418.402 104.667 418.357 104.424C418.311 104.181 418.335 103.93 418.426 103.7C419.273 101.544 419.438 99.1804 418.899 96.9276C418.361 94.6748 417.144 92.6414 415.413 91.1018C413.683 89.5622 411.521 88.5904 409.221 88.3176C406.921 88.0447 404.593 88.4839 402.55 89.5759C402.388 89.6631 402.209 89.7152 402.025 89.7288C401.842 89.7424 401.657 89.7172 401.484 89.6549C401.311 89.5925 401.153 89.4944 401.02 89.3669C400.887 89.2394 400.783 89.0854 400.713 88.9148C399.436 85.7643 397.247 83.0667 394.428 81.1674C391.608 79.268 388.286 78.2534 384.886 78.2534C381.487 78.2534 378.165 79.268 375.345 81.1674C372.525 83.0667 370.337 85.7643 369.06 88.9148C368.991 89.0851 368.887 89.239 368.755 89.3666C368.622 89.4941 368.465 89.5925 368.292 89.6553C368.12 89.7182 367.936 89.744 367.752 89.7312C367.569 89.7185 367.391 89.6673 367.228 89.5812C365.599 88.7089 363.778 88.2547 361.929 88.259C360.089 88.2547 358.275 88.7001 356.646 89.5563C355.016 90.4125 353.621 91.6536 352.58 93.1719C351.54 94.6901 350.886 96.4395 350.676 98.2679C350.465 100.096 350.704 101.949 351.373 103.664C351.449 103.862 351.476 104.076 351.452 104.288C351.427 104.499 351.351 104.702 351.231 104.877C351.111 105.053 350.949 105.197 350.761 105.296C350.573 105.395 350.363 105.447 350.15 105.447H342.154C340.296 105.45 338.492 106.076 337.031 107.224C335.571 108.373 334.537 109.979 334.097 111.784C333.656 113.589 333.834 115.49 334.601 117.182C335.368 118.875 336.681 120.261 338.329 121.12C338.623 121.288 338.841 121.564 338.936 121.889C339.031 122.214 338.997 122.564 338.84 122.864C338.684 123.165 338.417 123.393 338.095 123.501C337.774 123.609 337.424 123.589 337.117 123.444C334.945 122.317 333.214 120.493 332.202 118.265C331.19 116.036 330.956 113.533 331.537 111.156C332.118 108.778 333.48 106.665 335.405 105.154C337.33 103.643 339.707 102.823 342.154 102.824H348.351C348.093 101.762 347.963 100.674 347.962 99.5815C347.962 97.2945 348.525 95.0425 349.6 93.0241C350.676 91.0057 352.231 89.2827 354.129 88.007C356.028 86.7314 358.21 85.9421 360.486 85.7088C362.761 85.4755 365.058 85.8053 367.176 86.6692C368.797 83.3579 371.315 80.568 374.443 78.6166C377.571 76.6652 381.184 75.6307 384.871 75.6307C388.558 75.6307 392.17 76.6652 395.298 78.6166C398.426 80.568 400.944 83.3579 402.565 86.6692C404.684 85.7972 406.985 85.4604 409.265 85.6887C411.545 85.9169 413.733 86.7032 415.637 87.978C417.541 89.2527 419.102 90.9768 420.181 92.9978C421.26 95.0188 421.826 97.2746 421.826 99.5658C421.828 100.696 421.688 101.822 421.412 102.918C424.149 103.31 426.636 104.725 428.371 106.879C430.106 109.032 430.959 111.763 430.76 114.521C430.56 117.279 429.322 119.859 427.295 121.74C425.268 123.62 422.603 124.663 419.838 124.656L419.843 124.661Z" fill="#D9BC9A"/>
<path d="M355.466 25.0483H313.324C312.976 25.0483 312.643 24.9101 312.397 24.6641C312.151 24.4181 312.012 24.0845 312.012 23.7366C312.012 23.3887 312.151 23.0551 312.397 22.8091C312.643 22.5631 312.976 22.4249 313.324 22.4249H355.466C355.814 22.4249 356.148 22.5631 356.394 22.8091C356.64 23.0551 356.778 23.3887 356.778 23.7366C356.778 24.0845 356.64 24.4181 356.394 24.6641C356.148 24.9101 355.814 25.0483 355.466 25.0483Z" fill="#D9BC9A"/>
<path d="M378.788 39.277H371.495C371.148 39.277 370.814 39.1388 370.568 38.8928C370.322 38.6468 370.184 38.3131 370.184 37.9653C370.184 37.6174 370.322 37.2837 370.568 37.0378C370.814 36.7918 371.148 36.6536 371.495 36.6536H378.799C379.147 36.6536 379.48 36.7918 379.726 37.0378C379.972 37.2837 380.111 37.6174 380.111 37.9653C380.111 38.3131 379.972 38.6468 379.726 38.8928C379.48 39.1388 379.147 39.277 378.799 39.277H378.788Z" fill="#D9BC9A"/>
<path d="M362.492 39.277H343.388C343.04 39.277 342.707 39.1388 342.461 38.8928C342.215 38.6468 342.077 38.3131 342.077 37.9653C342.077 37.6174 342.215 37.2837 342.461 37.0378C342.707 36.7918 343.04 36.6536 343.388 36.6536H362.492C362.84 36.6536 363.173 36.7918 363.419 37.0378C363.665 37.2837 363.804 37.6174 363.804 37.9653C363.804 38.3131 363.665 38.6468 363.419 38.8928C363.173 39.1388 362.84 39.277 362.492 39.277Z" fill="#D9BC9A"/>
<path d="M92.8241 94.6466H64.2502C63.9023 94.6466 63.5686 94.5084 63.3226 94.2624C63.0766 94.0164 62.9385 93.6828 62.9385 93.3349C62.9385 92.987 63.0766 92.6534 63.3226 92.4074C63.5686 92.1614 63.9023 92.0232 64.2502 92.0232H92.8241C93.172 92.0232 93.5056 92.1614 93.7516 92.4074C93.9976 92.6534 94.1358 92.987 94.1358 93.3349C94.1358 93.6828 93.9976 94.0164 93.7516 94.2624C93.5056 94.5084 93.172 94.6466 92.8241 94.6466Z" fill="#D9BC9A"/>
<path d="M53.3894 108.879H48.4102C48.0623 108.879 47.7287 108.741 47.4827 108.495C47.2367 108.249 47.0985 107.915 47.0985 107.568C47.0985 107.22 47.2367 106.886 47.4827 106.64C47.7287 106.394 48.0623 106.256 48.4102 106.256H53.3684C53.7163 106.256 54.0499 106.394 54.2959 106.64C54.5419 106.886 54.6801 107.22 54.6801 107.568C54.6801 107.915 54.5419 108.249 54.2959 108.495C54.0499 108.741 53.7163 108.879 53.3684 108.879H53.3894Z" fill="#D9BC9A"/>
<path d="M72.4406 108.879H59.4811C59.1332 108.879 58.7996 108.741 58.5536 108.495C58.3076 108.249 58.1694 107.915 58.1694 107.568C58.1694 107.22 58.3076 106.886 58.5536 106.64C58.7996 106.394 59.1332 106.256 59.4811 106.256H72.4406C72.7885 106.256 73.1222 106.394 73.3682 106.64C73.6142 106.886 73.7523 107.22 73.7523 107.568C73.7523 107.915 73.6142 108.249 73.3682 108.495C73.1222 108.741 72.7885 108.879 72.4406 108.879Z" fill="#D9BC9A"/>
<path d="M439.609 67.9927C439.261 67.9927 438.928 67.8545 438.682 67.6085C438.436 67.3625 438.297 67.0289 438.297 66.681C438.295 65.0913 437.662 63.5676 436.538 62.4435C435.414 61.3194 433.89 60.6867 432.3 60.6839C431.952 60.6839 431.619 60.5457 431.373 60.2997C431.127 60.0538 430.989 59.7201 430.989 59.3722C430.989 59.0244 431.127 58.6907 431.373 58.4447C431.619 58.1987 431.952 58.0605 432.3 58.0605C434.586 58.0633 436.777 58.9724 438.393 60.5885C440.009 62.2045 440.918 64.3956 440.921 66.681C440.921 67.0289 440.782 67.3625 440.536 67.6085C440.29 67.8545 439.957 67.9927 439.609 67.9927Z" fill="#D9BC9A"/>
<path d="M439.609 67.9927C439.261 67.9927 438.928 67.8545 438.682 67.6085C438.436 67.3625 438.297 67.0289 438.297 66.681C438.3 64.3956 439.209 62.2045 440.825 60.5885C442.441 58.9724 444.632 58.0633 446.918 58.0605C447.266 58.0605 447.599 58.1987 447.845 58.4447C448.091 58.6907 448.229 59.0244 448.229 59.3722C448.229 59.7201 448.091 60.0538 447.845 60.2997C447.599 60.5457 447.266 60.6839 446.918 60.6839C445.328 60.6867 443.804 61.3194 442.68 62.4435C441.556 63.5676 440.924 65.0913 440.921 66.681C440.921 67.0289 440.782 67.3625 440.536 67.6085C440.29 67.8545 439.957 67.9927 439.609 67.9927Z" fill="#D9BC9A"/>
<path d="M63.8952 172.436C63.5473 172.436 63.2136 172.298 62.9677 172.052C62.7217 171.806 62.5835 171.472 62.5835 171.124C62.5807 169.535 61.9481 168.011 60.824 166.887C59.6999 165.763 58.1761 165.13 56.5865 165.127C56.2386 165.127 55.9049 164.989 55.6589 164.743C55.4129 164.497 55.2748 164.163 55.2748 163.816C55.2748 163.468 55.4129 163.134 55.6589 162.888C55.9049 162.642 56.2386 162.504 56.5865 162.504C58.8719 162.507 61.0629 163.416 62.6789 165.032C64.295 166.648 65.2041 168.839 65.2069 171.124C65.2069 171.472 65.0687 171.806 64.8227 172.052C64.5767 172.298 64.2431 172.436 63.8952 172.436Z" fill="#D9BC9A"/>
<path d="M63.8953 172.436C63.5474 172.436 63.2138 172.298 62.9678 172.052C62.7218 171.806 62.5836 171.472 62.5836 171.124C62.5864 168.839 63.4955 166.648 65.1116 165.032C66.7276 163.416 68.9186 162.507 71.204 162.504C71.5519 162.504 71.8856 162.642 72.1316 162.888C72.3776 163.134 72.5157 163.468 72.5157 163.816C72.5157 164.163 72.3776 164.497 72.1316 164.743C71.8856 164.989 71.5519 165.127 71.204 165.127C69.6139 165.129 68.0893 165.761 66.965 166.885C65.8406 168.01 65.2084 169.534 65.207 171.124C65.207 171.472 65.0688 171.806 64.8228 172.052C64.5769 172.298 64.2432 172.436 63.8953 172.436Z" fill="#D9BC9A"/>
<path d="M71.1961 261.586H48.5563C48.2084 261.586 47.8748 261.448 47.6288 261.202C47.3828 260.956 47.2446 260.622 47.2446 260.274C47.2446 259.926 47.3828 259.593 47.6288 259.347C47.8748 259.101 48.2084 258.963 48.5563 258.963H71.1961C71.544 258.963 71.8776 259.101 72.1236 259.347C72.3696 259.593 72.5078 259.926 72.5078 260.274C72.5078 260.622 72.3696 260.956 72.1236 261.202C71.8776 261.448 71.544 261.586 71.1961 261.586Z" fill="#D9BC9A"/>
<path d="M83.3216 261.586H76.6268C76.2789 261.586 75.9452 261.448 75.6992 261.202C75.4532 260.956 75.3151 260.622 75.3151 260.274C75.3151 259.926 75.4532 259.593 75.6992 259.347C75.9452 259.101 76.2789 258.963 76.6268 258.963H83.3479C83.6958 258.963 84.0295 259.101 84.2754 259.347C84.5214 259.593 84.6596 259.926 84.6596 260.274C84.6596 260.622 84.5214 260.956 84.2754 261.202C84.0295 261.448 83.6958 261.586 83.3479 261.586H83.3216Z" fill="#D9BC9A"/>
<path d="M116.827 352.329C116.48 352.329 116.146 352.191 115.9 351.945C115.654 351.699 115.516 351.365 115.516 351.017V328.378C115.516 328.03 115.654 327.696 115.9 327.45C116.146 327.204 116.48 327.066 116.827 327.066C117.175 327.066 117.509 327.204 117.755 327.45C118.001 327.696 118.139 328.03 118.139 328.378V351.017C118.139 351.365 118.001 351.699 117.755 351.945C117.509 352.191 117.175 352.329 116.827 352.329Z" fill="#D9BC9A"/>
<path d="M116.827 324.293C116.48 324.293 116.146 324.155 115.9 323.909C115.654 323.663 115.516 323.329 115.516 322.981V316.255C115.516 315.907 115.654 315.573 115.9 315.327C116.146 315.081 116.48 314.943 116.827 314.943C117.175 314.943 117.509 315.081 117.755 315.327C118.001 315.573 118.139 315.907 118.139 316.255V322.981C118.139 323.329 118.001 323.663 117.755 323.909C117.509 324.155 117.175 324.293 116.827 324.293Z" fill="#D9BC9A"/>
<path d="M324.799 341.781C324.451 341.781 324.117 341.643 323.871 341.397C323.625 341.151 323.487 340.817 323.487 340.47V317.83C323.487 317.482 323.625 317.148 323.871 316.902C324.117 316.656 324.451 316.518 324.799 316.518C325.147 316.518 325.481 316.656 325.727 316.902C325.973 317.148 326.111 317.482 326.111 317.83V340.47C326.111 340.642 326.077 340.812 326.011 340.972C325.945 341.131 325.848 341.275 325.727 341.397C325.605 341.519 325.46 341.616 325.301 341.681C325.142 341.747 324.971 341.781 324.799 341.781Z" fill="#D9BC9A"/>
<path d="M324.799 353.905C324.451 353.905 324.117 353.767 323.871 353.521C323.625 353.275 323.487 352.941 323.487 352.593V345.872C323.487 345.524 323.625 345.19 323.871 344.944C324.117 344.699 324.451 344.56 324.799 344.56C325.147 344.56 325.481 344.699 325.727 344.944C325.973 345.19 326.111 345.524 326.111 345.872V352.593C326.111 352.941 325.973 353.275 325.727 353.521C325.481 353.767 325.147 353.905 324.799 353.905Z" fill="#D9BC9A"/>
<path d="M191.903 216.171H169.264C168.916 216.171 168.582 216.033 168.336 215.787C168.09 215.541 167.952 215.207 167.952 214.86C167.952 214.512 168.09 214.178 168.336 213.932C168.582 213.686 168.916 213.548 169.264 213.548H191.903C192.251 213.548 192.585 213.686 192.831 213.932C193.077 214.178 193.215 214.512 193.215 214.86C193.215 215.207 193.077 215.541 192.831 215.787C192.585 216.033 192.251 216.171 191.903 216.171Z" fill="#D9BC9A"/>
<path d="M204.029 216.171H197.303C196.955 216.171 196.621 216.033 196.375 215.787C196.129 215.541 195.991 215.207 195.991 214.86C195.991 214.512 196.129 214.178 196.375 213.932C196.621 213.686 196.955 213.548 197.303 213.548H204.024C204.372 213.548 204.705 213.686 204.951 213.932C205.197 214.178 205.335 214.512 205.335 214.86C205.335 215.207 205.197 215.541 204.951 215.787C204.705 216.033 204.372 216.171 204.024 216.171H204.029Z" fill="#D9BC9A"/>
<path d="M266.035 223.311H243.395C243.048 223.311 242.714 223.173 242.468 222.927C242.222 222.681 242.084 222.348 242.084 222C242.084 221.652 242.222 221.318 242.468 221.072C242.714 220.826 243.048 220.688 243.395 220.688H266.035C266.383 220.688 266.717 220.826 266.963 221.072C267.209 221.318 267.347 221.652 267.347 222C267.347 222.348 267.209 222.681 266.963 222.927C266.717 223.173 266.383 223.311 266.035 223.311Z" fill="#D9BC9A"/>
<path d="M237.97 223.311H231.244C230.896 223.311 230.562 223.173 230.316 222.927C230.07 222.681 229.932 222.348 229.932 222C229.932 221.652 230.07 221.318 230.316 221.072C230.562 220.826 230.896 220.688 231.244 220.688H237.97C238.318 220.688 238.652 220.826 238.898 221.072C239.144 221.318 239.282 221.652 239.282 222C239.282 222.348 239.144 222.681 238.898 222.927C238.652 223.173 238.318 223.311 237.97 223.311Z" fill="#D9BC9A"/>
<path d="M392.761 261.586H370.121C369.773 261.586 369.439 261.448 369.193 261.202C368.947 260.956 368.809 260.622 368.809 260.274C368.809 259.926 368.947 259.593 369.193 259.347C369.439 259.101 369.773 258.963 370.121 258.963H392.761C393.108 258.963 393.442 259.101 393.688 259.347C393.934 259.593 394.072 259.926 394.072 260.274C394.072 260.622 393.934 260.956 393.688 261.202C393.442 261.448 393.108 261.586 392.761 261.586Z" fill="#D9BC9A"/>
<path d="M364.722 261.586H357.995C357.648 261.586 357.314 261.448 357.068 261.202C356.822 260.956 356.684 260.622 356.684 260.274C356.684 259.926 356.822 259.593 357.068 259.347C357.314 259.101 357.648 258.963 357.995 258.963H364.722C365.07 258.963 365.403 259.101 365.649 259.347C365.895 259.593 366.034 259.926 366.034 260.274C366.034 260.622 365.895 260.956 365.649 261.202C365.403 261.448 365.07 261.586 364.722 261.586Z" fill="#D9BC9A"/>
<path d="M302.033 285.197H141.115C140.767 285.197 140.433 285.058 140.187 284.812C139.941 284.566 139.803 284.233 139.803 283.885C139.803 283.537 139.941 283.203 140.187 282.957C140.433 282.711 140.767 282.573 141.115 282.573H302.033C302.381 282.573 302.715 282.711 302.961 282.957C303.207 283.203 303.345 283.537 303.345 283.885C303.345 284.233 303.207 284.566 302.961 284.812C302.715 285.058 302.381 285.197 302.033 285.197Z" fill="#D9BC9A"/>
<path d="M33.0784 285.236H4.98711C4.76959 285.235 4.55567 285.181 4.36432 285.077C4.17296 284.974 4.01022 284.825 3.89062 284.643C3.77125 284.462 3.699 284.253 3.68067 284.037C3.66234 283.821 3.69842 283.604 3.78558 283.405L15.764 255.597C15.8656 255.361 16.0341 255.161 16.2486 255.02C16.4631 254.879 16.7142 254.804 16.9708 254.805H32.5537C32.9016 254.805 33.2352 254.943 33.4812 255.189C33.7272 255.435 33.8654 255.768 33.8654 256.116C33.8654 256.464 33.7272 256.798 33.4812 257.044C33.2352 257.29 32.9016 257.428 32.5537 257.428H17.8312L6.98091 282.612H33.0784C33.4262 282.612 33.7599 282.751 34.0059 282.997C34.2519 283.243 34.3901 283.576 34.3901 283.924C34.3901 284.272 34.2519 284.606 34.0059 284.852C33.7599 285.098 33.4262 285.236 33.0784 285.236Z" fill="#D9BC9A"/>
<path d="M16.357 370.003C16.185 370.001 16.0151 369.965 15.8571 369.897C15.699 369.829 15.5559 369.73 15.436 369.607C15.3161 369.484 15.2217 369.338 15.1583 369.178C15.0949 369.018 15.0636 368.847 15.0663 368.675L16.1157 295.304C16.1163 295.132 16.1514 294.961 16.2188 294.803C16.2862 294.644 16.3847 294.5 16.5083 294.38C16.6319 294.26 16.7783 294.166 16.9388 294.103C17.0994 294.04 17.2708 294.009 17.4431 294.014C17.6154 294.016 17.7856 294.052 17.944 294.12C18.1023 294.187 18.2457 294.286 18.3661 294.409C18.4864 294.532 18.5813 294.678 18.6453 294.838C18.7093 294.998 18.7412 295.169 18.7391 295.341L17.6897 368.712C17.687 368.884 17.6503 369.054 17.5819 369.212C17.5134 369.37 17.4146 369.514 17.2908 369.633C17.1671 369.753 17.0209 369.848 16.8607 369.911C16.7005 369.974 16.5293 370.005 16.357 370.003Z" fill="#D9BC9A"/>
<path d="M33.0785 296.621H9.55718C9.20929 296.621 8.87576 296.482 8.62977 296.236C8.38378 295.99 8.24548 295.657 8.24548 295.309V284.055C8.24548 283.707 8.38378 283.373 8.62977 283.127C8.87576 282.881 9.20929 282.743 9.55718 282.743H33.0785C33.4264 282.743 33.7601 282.881 34.006 283.127C34.252 283.373 34.3902 283.707 34.3902 284.055V295.325C34.3861 295.67 34.2461 295.999 34.0005 296.242C33.755 296.485 33.4237 296.621 33.0785 296.621ZM10.8689 293.997H31.7668V285.366H10.8689V293.997Z" fill="#D9BC9A"/>
<path d="M33.0783 305.017H17.9308C17.583 305.017 17.2494 304.878 17.0034 304.633C16.7574 304.387 16.6191 304.053 16.6191 303.705C16.6191 303.357 16.7574 303.023 17.0034 302.777C17.2494 302.532 17.583 302.393 17.9308 302.393H33.0783C33.4262 302.393 33.7599 302.532 34.0059 302.777C34.2519 303.023 34.39 303.357 34.39 303.705C34.39 304.053 34.2519 304.387 34.0059 304.633C33.7599 304.878 33.4262 305.017 33.0783 305.017Z" fill="#D9BC9A"/>
<path d="M440.228 285.236H411.896C411.548 285.236 411.214 285.098 410.968 284.852C410.722 284.606 410.584 284.272 410.584 283.924C410.584 283.576 410.722 283.243 410.968 282.997C411.214 282.751 411.548 282.612 411.896 282.612H438.234L427.384 257.428H412.42C412.072 257.428 411.739 257.29 411.493 257.044C411.247 256.798 411.109 256.464 411.109 256.116C411.109 255.768 411.247 255.435 411.493 255.189C411.739 254.943 412.072 254.805 412.42 254.805H428.244C428.501 254.804 428.752 254.879 428.967 255.02C429.181 255.161 429.35 255.361 429.451 255.597L441.435 283.405C441.52 283.605 441.554 283.822 441.534 284.038C441.514 284.254 441.441 284.462 441.322 284.644C441.203 284.825 441.04 284.974 440.849 285.077C440.659 285.18 440.445 285.235 440.228 285.236Z" fill="#D9BC9A"/>
<path d="M428.858 370.003C428.514 370.003 428.184 369.867 427.938 369.626C427.693 369.385 427.552 369.056 427.547 368.712L426.497 295.341C426.495 294.994 426.629 294.659 426.872 294.41C427.115 294.162 427.446 294.019 427.793 294.014C427.966 294.009 428.137 294.04 428.298 294.103C428.458 294.166 428.605 294.26 428.728 294.38C428.852 294.5 428.95 294.644 429.018 294.803C429.085 294.961 429.12 295.132 429.121 295.304L430.17 368.675C430.173 368.847 430.142 369.018 430.078 369.178C430.015 369.338 429.92 369.484 429.8 369.607C429.68 369.73 429.537 369.829 429.379 369.897C429.221 369.965 429.051 370.001 428.879 370.003H428.858Z" fill="#D9BC9A"/>
<path d="M435.658 296.621H412.137C411.789 296.621 411.455 296.482 411.209 296.236C410.963 295.99 410.825 295.657 410.825 295.309V284.055C410.825 283.707 410.963 283.373 411.209 283.127C411.455 282.881 411.789 282.743 412.137 282.743H435.658C436.006 282.743 436.34 282.881 436.586 283.127C436.832 283.373 436.97 283.707 436.97 284.055V295.325C436.966 295.67 436.826 295.999 436.58 296.242C436.335 296.485 436.003 296.621 435.658 296.621ZM413.47 293.997H434.368V285.366H413.47V293.997Z" fill="#D9BC9A"/>
<path d="M427.284 305.017H412.137C411.789 305.017 411.455 304.878 411.209 304.633C410.963 304.387 410.825 304.053 410.825 303.705C410.825 303.357 410.963 303.023 411.209 302.777C411.455 302.532 411.789 302.393 412.137 302.393H427.284C427.632 302.393 427.966 302.532 428.212 302.777C428.458 303.023 428.596 303.357 428.596 303.705C428.596 304.053 428.458 304.387 428.212 304.633C427.966 304.878 427.632 305.017 427.284 305.017Z" fill="#D9BC9A"/>
</g>
<defs>
<clipPath id="clip0_1966_3226">
<rect width="465" height="371.026" fill="white"/>
</clipPath>
</defs>
</svg>
