<svg width="486" height="403" viewBox="0 0 486 403" fill="none" xmlns="http://www.w3.org/2000/svg">
<g clip-path="url(#clip0_1966_3512)">
<path d="M473.829 403H2.42393C2.04727 403 1.68602 402.85 1.41968 402.584C1.15335 402.318 1.00375 401.956 1.00375 401.58C1.00375 401.203 1.15335 400.842 1.41968 400.576C1.68602 400.309 2.04727 400.16 2.42393 400.16H473.829C474.206 400.16 474.567 400.309 474.833 400.576C475.1 400.842 475.249 401.203 475.249 401.58C475.249 401.956 475.1 402.318 474.833 402.584C474.567 402.85 474.206 403 473.829 403Z" fill="#D4B28C"/>
<path d="M140.357 118.426H73.3929C73.0162 118.426 72.655 118.276 72.3886 118.01C72.1223 117.743 71.9727 117.382 71.9727 117.006C71.9727 116.629 72.1223 116.268 72.3886 116.001C72.655 115.735 73.0162 115.585 73.3929 115.585H140.34C142.688 115.559 144.933 114.615 146.594 112.955C148.255 111.294 149.2 109.05 149.227 106.701C149.254 104.353 148.36 102.087 146.737 100.39C145.115 98.6918 142.892 97.6967 140.544 97.6173C140.289 97.6946 140.017 97.6984 139.759 97.6282C139.502 97.558 139.269 97.4166 139.089 97.2204C138.908 97.0241 138.786 96.7808 138.737 96.5185C138.688 96.2561 138.714 95.9853 138.812 95.737C139.546 93.8788 139.814 91.869 139.593 89.8832C139.372 87.8974 138.668 85.9959 137.543 84.3446C136.418 82.6934 134.906 81.3427 133.139 80.4104C131.372 79.478 129.403 78.9924 127.405 78.996C125.385 78.9983 123.397 79.4978 121.616 80.4503C121.441 80.5454 121.247 80.6022 121.049 80.617C120.85 80.6317 120.65 80.6041 120.463 80.5359C120.275 80.4677 120.104 80.3605 119.962 80.2213C119.819 80.0822 119.707 79.9143 119.634 79.7288C118.251 76.3177 115.881 73.397 112.829 71.3406C109.776 69.2842 106.179 68.1856 102.498 68.1856C98.8172 68.1856 95.2201 69.2842 92.1673 71.3406C89.1146 73.397 86.7451 76.3177 85.3622 79.7288C85.2868 79.9126 85.1739 80.0786 85.0307 80.2162C84.8875 80.3538 84.7171 80.46 84.5304 80.5279C84.3438 80.5958 84.1449 80.624 83.9467 80.6106C83.7485 80.5973 83.5554 80.5426 83.3796 80.4503C81.6144 79.5072 79.6433 79.0154 77.642 79.0187C74.3902 79.0217 71.2724 80.3149 68.973 82.6143C66.6736 84.9137 65.3804 88.0315 65.3774 91.2833C65.3788 92.7937 65.6622 94.2906 66.2125 95.6972C66.297 95.9122 66.3274 96.1447 66.3013 96.3742C66.2752 96.6037 66.1932 96.8233 66.0626 97.0138C65.9321 97.2043 65.7569 97.36 65.5522 97.4672C65.3476 97.5744 65.1199 97.6298 64.8889 97.6287H56.2429C54.2309 97.6315 52.2781 98.3089 50.6966 99.5526C49.1151 100.796 47.9963 102.534 47.5192 104.489C47.0422 106.444 47.2345 108.502 48.0652 110.334C48.896 112.167 50.3172 113.668 52.1016 114.597C52.2746 114.679 52.4292 114.794 52.5563 114.937C52.6834 115.08 52.7803 115.247 52.8413 115.428C52.9022 115.61 52.926 115.801 52.911 115.992C52.8961 116.183 52.8429 116.368 52.7545 116.538C52.666 116.707 52.5444 116.857 52.3966 116.979C52.2489 117.1 52.0781 117.19 51.8946 117.244C51.7111 117.298 51.5185 117.314 51.3286 117.292C51.1387 117.269 50.9553 117.208 50.7894 117.113C48.4376 115.893 46.5637 113.918 45.4682 111.506C44.3726 109.093 44.1189 106.383 44.7477 103.809C45.3764 101.235 46.8511 98.9468 48.9355 97.3111C51.0199 95.6754 53.5933 94.787 56.2429 94.7883H62.9574C62.6789 93.6408 62.5378 92.4642 62.537 91.2833C62.5362 88.8066 63.1446 86.3678 64.3086 84.1817C65.4726 81.9956 67.1565 80.1293 69.2118 78.7475C71.2672 77.3657 73.6309 76.5106 76.0947 76.2578C78.5584 76.0049 81.0466 76.3619 83.3398 77.2974C85.0941 73.7121 87.8195 70.691 91.2058 68.5779C94.5922 66.4649 98.5035 65.3446 102.495 65.3446C106.487 65.3446 110.398 66.4649 113.784 68.5779C117.171 70.691 119.896 73.7121 121.65 77.2974C124.233 76.2248 127.063 75.8914 129.825 76.3345C132.586 76.7777 135.17 77.9799 137.288 79.8069C139.405 81.6338 140.973 84.0136 141.816 86.6803C142.659 89.347 142.744 92.1955 142.061 94.9076C145.025 95.3317 147.717 96.864 149.596 99.1954C151.474 101.527 152.398 104.484 152.182 107.47C151.966 110.456 150.625 113.249 148.431 115.285C146.236 117.322 143.351 118.45 140.357 118.443V118.426Z" fill="#D4B28C"/>
<path d="M445.479 208.799H378.531C378.155 208.799 377.794 208.65 377.527 208.384C377.261 208.117 377.111 207.756 377.111 207.379C377.111 207.003 377.261 206.641 377.527 206.375C377.794 206.109 378.155 205.959 378.531 205.959H445.479C447.827 205.933 450.072 204.989 451.733 203.329C453.394 201.668 454.339 199.424 454.366 197.075C454.392 194.727 453.499 192.461 451.876 190.763C450.253 189.066 448.03 188.07 445.683 187.991H445.655C445.401 188.061 445.133 188.06 444.88 187.987C444.627 187.913 444.4 187.771 444.223 187.576C444.046 187.381 443.927 187.141 443.879 186.882C443.831 186.623 443.856 186.356 443.95 186.111C444.869 183.777 445.049 181.217 444.466 178.777C443.883 176.337 442.565 174.135 440.691 172.468C438.816 170.801 436.475 169.75 433.984 169.456C431.493 169.162 428.972 169.639 426.761 170.824C426.587 170.914 426.397 170.968 426.201 170.983C426.006 170.998 425.81 170.973 425.625 170.909C425.438 170.84 425.268 170.732 425.125 170.593C424.982 170.455 424.87 170.287 424.795 170.103C423.412 166.692 421.043 163.771 417.99 161.714C414.937 159.658 411.34 158.56 407.659 158.56C403.979 158.56 400.382 159.658 397.329 161.714C394.276 163.771 391.906 166.692 390.523 170.103C390.448 170.286 390.335 170.452 390.192 170.59C390.049 170.728 389.878 170.834 389.692 170.902C389.505 170.97 389.306 170.998 389.108 170.984C388.91 170.971 388.717 170.916 388.541 170.824C386.776 169.88 384.805 169.389 382.803 169.392C380.811 169.388 378.847 169.87 377.083 170.797C375.319 171.724 373.808 173.068 372.682 174.712C371.555 176.355 370.847 178.25 370.619 180.229C370.391 182.209 370.65 184.214 371.374 186.071C371.457 186.286 371.486 186.518 371.459 186.747C371.433 186.976 371.351 187.195 371.22 187.385C371.09 187.575 370.916 187.731 370.712 187.838C370.508 187.946 370.281 188.002 370.05 188.002H361.41C359.397 188.004 357.444 188.681 355.861 189.924C354.279 191.167 353.159 192.905 352.681 194.86C352.204 196.815 352.395 198.874 353.226 200.707C354.057 202.54 355.478 204.041 357.263 204.971C357.44 205.05 357.598 205.164 357.729 205.306C357.86 205.449 357.96 205.617 358.024 205.799C358.088 205.982 358.114 206.176 358.1 206.369C358.086 206.562 358.033 206.75 357.944 206.922C357.855 207.093 357.731 207.245 357.581 207.367C357.432 207.49 357.258 207.58 357.072 207.633C356.886 207.686 356.691 207.7 356.499 207.675C356.307 207.65 356.123 207.586 355.956 207.487C353.605 206.267 351.731 204.292 350.635 201.88C349.54 199.467 349.286 196.757 349.915 194.183C350.543 191.609 352.018 189.321 354.103 187.685C356.187 186.049 358.76 185.161 361.41 185.162H368.119C367.84 184.015 367.699 182.838 367.698 181.657C367.698 179.18 368.306 176.742 369.47 174.555C370.634 172.369 372.318 170.503 374.373 169.121C376.429 167.739 378.792 166.884 381.256 166.632C383.72 166.379 386.208 166.736 388.501 167.671C390.256 164.086 392.982 161.065 396.369 158.953C399.756 156.84 403.668 155.72 407.659 155.72C411.651 155.72 415.563 156.84 418.949 158.953C422.336 161.065 425.062 164.086 426.817 167.671C429.4 166.6 432.23 166.268 434.99 166.712C437.751 167.156 440.333 168.358 442.45 170.185C444.567 172.011 446.134 174.391 446.977 177.056C447.819 179.722 447.905 182.57 447.223 185.281C450.186 185.705 452.879 187.238 454.757 189.569C456.635 191.901 457.56 194.857 457.344 197.844C457.127 200.83 455.787 203.623 453.592 205.659C451.397 207.695 448.512 208.824 445.518 208.817L445.479 208.799Z" fill="#D4B28C"/>
<path d="M344.516 86.7671H298.917C298.54 86.7671 298.179 86.6174 297.912 86.3511C297.646 86.0848 297.496 85.7236 297.496 85.3469C297.496 84.9703 297.646 84.609 297.912 84.3427C298.179 84.0764 298.54 83.9268 298.917 83.9268H344.538C344.915 83.9268 345.276 84.0764 345.542 84.3427C345.809 84.609 345.958 84.9703 345.958 85.3469C345.958 85.7236 345.809 86.0848 345.542 86.3511C345.276 86.6174 344.915 86.7671 344.538 86.7671H344.516Z" fill="#D4B28C"/>
<path d="M369.766 102.173H361.859C361.482 102.173 361.121 102.023 360.854 101.757C360.588 101.49 360.439 101.129 360.439 100.752C360.439 100.376 360.588 100.015 360.854 99.7482C361.121 99.4819 361.482 99.3323 361.859 99.3323H369.766C370.143 99.3323 370.504 99.4819 370.77 99.7482C371.037 100.015 371.186 100.376 371.186 100.752C371.186 101.129 371.037 101.49 370.77 101.757C370.504 102.023 370.143 102.173 369.766 102.173Z" fill="#D4B28C"/>
<path d="M352.128 102.173H331.444C331.068 102.173 330.706 102.023 330.44 101.757C330.174 101.49 330.024 101.129 330.024 100.752C330.024 100.376 330.174 100.015 330.44 99.7482C330.706 99.4819 331.068 99.3323 331.444 99.3323H352.128C352.504 99.3323 352.866 99.4819 353.132 99.7482C353.398 100.015 353.548 100.376 353.548 100.752C353.548 101.129 353.398 101.49 353.132 101.757C352.866 102.023 352.504 102.173 352.128 102.173Z" fill="#D4B28C"/>
<path d="M105.233 190.287H74.2905C73.9138 190.287 73.5526 190.137 73.2862 189.871C73.0199 189.604 72.8703 189.243 72.8703 188.867C72.8703 188.49 73.0199 188.129 73.2862 187.862C73.5526 187.596 73.9138 187.446 74.2905 187.446H105.233C105.61 187.446 105.971 187.596 106.237 187.862C106.504 188.129 106.653 188.49 106.653 188.867C106.653 189.243 106.504 189.604 106.237 189.871C105.971 190.137 105.61 190.287 105.233 190.287Z" fill="#D4B28C"/>
<path d="M62.5313 205.692H57.1688C56.7921 205.692 56.4309 205.543 56.1645 205.276C55.8982 205.01 55.7486 204.649 55.7486 204.272C55.7486 203.895 55.8982 203.534 56.1645 203.268C56.4309 203.002 56.7921 202.852 57.1688 202.852H62.5313C62.908 202.852 63.2692 203.002 63.5356 203.268C63.8019 203.534 63.9515 203.895 63.9515 204.272C63.9515 204.649 63.8019 205.01 63.5356 205.276C63.2692 205.543 62.908 205.692 62.5313 205.692Z" fill="#D4B28C"/>
<path d="M83.158 205.692H69.1324C68.7557 205.692 68.3945 205.543 68.1281 205.276C67.8618 205.01 67.7122 204.649 67.7122 204.272C67.7122 203.895 67.8618 203.534 68.1281 203.268C68.3945 203.002 68.7557 202.852 69.1324 202.852H83.158C83.5346 202.852 83.8959 203.002 84.1622 203.268C84.4286 203.534 84.5781 203.895 84.5781 204.272C84.5781 204.649 84.4286 205.01 84.1622 205.276C83.8959 205.543 83.5346 205.692 83.158 205.692Z" fill="#D4B28C"/>
<path d="M171.942 39.2593C171.565 39.2593 171.204 39.1096 170.937 38.8433C170.671 38.5769 170.521 38.2158 170.521 37.8391C170.52 36.117 169.836 34.4657 168.618 33.2475C167.401 32.0292 165.751 31.3434 164.028 31.3403C163.652 31.3403 163.291 31.1908 163.024 30.9244C162.758 30.6581 162.608 30.2968 162.608 29.9202C162.608 29.5435 162.758 29.1823 163.024 28.916C163.291 28.6497 163.652 28.5 164.028 28.5C166.503 28.5045 168.876 29.4901 170.625 31.2407C172.375 32.9913 173.359 35.3641 173.362 37.8391C173.362 38.2158 173.212 38.5769 172.946 38.8433C172.68 39.1096 172.318 39.2593 171.942 39.2593Z" fill="#D4B28C"/>
<path d="M171.942 39.2593C171.565 39.2593 171.204 39.1096 170.937 38.8433C170.671 38.5769 170.521 38.2158 170.521 37.8391C170.524 35.3641 171.508 32.9913 173.258 31.2407C175.008 29.4901 177.38 28.5045 179.855 28.5C180.231 28.5 180.593 28.6497 180.859 28.916C181.125 29.1823 181.275 29.5435 181.275 29.9202C181.275 30.2968 181.125 30.6581 180.859 30.9244C180.593 31.1908 180.231 31.3403 179.855 31.3403C178.133 31.3434 176.482 32.0292 175.265 33.2475C174.048 34.4657 173.363 36.117 173.362 37.8391C173.362 38.2158 173.212 38.5769 172.946 38.8433C172.68 39.1096 172.318 39.2593 171.942 39.2593Z" fill="#D4B28C"/>
<path d="M201.248 388.128H125.087C124.711 388.128 124.349 387.978 124.083 387.712C123.817 387.446 123.667 387.084 123.667 386.708C123.667 386.331 123.817 385.97 124.083 385.704C124.349 385.437 124.711 385.288 125.087 385.288H201.237C201.614 385.288 201.975 385.437 202.241 385.704C202.508 385.97 202.657 386.331 202.657 386.708C202.657 387.084 202.508 387.446 202.241 387.712C201.975 387.978 201.614 388.128 201.237 388.128H201.248Z" fill="#D4B28C"/>
<path d="M351.247 388.128H274.91C274.533 388.128 274.172 387.978 273.906 387.712C273.639 387.446 273.49 387.084 273.49 386.708C273.49 386.331 273.639 385.97 273.906 385.704C274.172 385.437 274.533 385.288 274.91 385.288H351.247C351.624 385.288 351.985 385.437 352.251 385.704C352.518 385.97 352.667 386.331 352.667 386.708C352.667 387.084 352.518 387.446 352.251 387.712C351.985 387.978 351.624 388.128 351.247 388.128Z" fill="#D4B28C"/>
<path d="M187.66 402.466C187.283 402.466 186.922 402.317 186.656 402.05C186.39 401.784 186.24 401.423 186.24 401.046V384.816C186.24 384.44 186.39 384.078 186.656 383.812C186.922 383.546 187.283 383.396 187.66 383.396C188.037 383.396 188.398 383.546 188.664 383.812C188.931 384.078 189.08 384.44 189.08 384.816V401.04C189.081 401.227 189.045 401.413 188.974 401.585C188.903 401.758 188.798 401.916 188.666 402.048C188.534 402.181 188.378 402.286 188.205 402.358C188.032 402.429 187.847 402.466 187.66 402.466Z" fill="#D4B28C"/>
<path d="M201.521 402.466C201.144 402.466 200.783 402.317 200.517 402.05C200.25 401.784 200.101 401.423 200.101 401.046V384.816C200.101 384.44 200.25 384.078 200.517 383.812C200.783 383.546 201.144 383.396 201.521 383.396C201.898 383.396 202.259 383.546 202.525 383.812C202.792 384.078 202.941 384.44 202.941 384.816V401.04C202.942 401.227 202.906 401.413 202.835 401.585C202.764 401.758 202.659 401.916 202.527 402.048C202.395 402.181 202.238 402.286 202.066 402.358C201.893 402.429 201.708 402.466 201.521 402.466Z" fill="#D4B28C"/>
<path d="M274.91 402.466C274.533 402.466 274.172 402.317 273.906 402.05C273.639 401.784 273.49 401.423 273.49 401.046V384.816C273.49 384.44 273.639 384.078 273.906 383.812C274.172 383.546 274.533 383.396 274.91 383.396C275.287 383.396 275.648 383.546 275.914 383.812C276.181 384.078 276.33 384.44 276.33 384.816V401.04C276.331 401.227 276.295 401.413 276.224 401.585C276.153 401.758 276.048 401.916 275.916 402.048C275.784 402.181 275.627 402.286 275.455 402.358C275.282 402.429 275.097 402.466 274.91 402.466Z" fill="#D4B28C"/>
<path d="M288.771 402.466C288.394 402.466 288.033 402.317 287.767 402.05C287.5 401.784 287.351 401.423 287.351 401.046V384.816C287.351 384.44 287.5 384.078 287.767 383.812C288.033 383.546 288.394 383.396 288.771 383.396C289.147 383.396 289.509 383.546 289.775 383.812C290.041 384.078 290.191 384.44 290.191 384.816V401.04C290.192 401.227 290.157 401.413 290.086 401.586C290.015 401.76 289.911 401.917 289.779 402.05C289.647 402.182 289.49 402.288 289.317 402.359C289.143 402.431 288.958 402.467 288.771 402.466Z" fill="#D4B28C"/>
<path d="M165.216 277.548H140.703C140.327 277.548 139.966 277.398 139.699 277.132C139.433 276.865 139.283 276.504 139.283 276.127C139.283 275.751 139.433 275.389 139.699 275.123C139.966 274.857 140.327 274.707 140.703 274.707H165.216C165.592 274.707 165.954 274.857 166.22 275.123C166.486 275.389 166.636 275.751 166.636 276.127C166.636 276.504 166.486 276.865 166.22 277.132C165.954 277.398 165.592 277.548 165.216 277.548Z" fill="#D4B28C"/>
<path d="M178.344 277.548H171.067C170.69 277.548 170.329 277.398 170.063 277.132C169.796 276.865 169.647 276.504 169.647 276.127C169.647 275.751 169.796 275.389 170.063 275.123C170.329 274.857 170.69 274.707 171.067 274.707H178.344C178.72 274.707 179.082 274.857 179.348 275.123C179.614 275.389 179.764 275.751 179.764 276.127C179.764 276.504 179.614 276.865 179.348 277.132C179.082 277.398 178.72 277.548 178.344 277.548Z" fill="#D4B28C"/>
<path d="M217.921 277.548H193.409C193.032 277.548 192.671 277.398 192.405 277.132C192.138 276.865 191.989 276.504 191.989 276.127C191.989 275.751 192.138 275.389 192.405 275.123C192.671 274.857 193.032 274.707 193.409 274.707H217.921C218.298 274.707 218.659 274.857 218.925 275.123C219.192 275.389 219.341 275.751 219.341 276.127C219.341 276.504 219.192 276.865 218.925 277.132C218.659 277.398 218.298 277.548 217.921 277.548Z" fill="#D4B28C"/>
<path d="M231.049 277.548H223.772C223.396 277.548 223.034 277.398 222.768 277.132C222.502 276.865 222.352 276.504 222.352 276.127C222.352 275.751 222.502 275.389 222.768 275.123C223.034 274.857 223.396 274.707 223.772 274.707H231.049C231.426 274.707 231.787 274.857 232.054 275.123C232.32 275.389 232.469 275.751 232.469 276.127C232.469 276.504 232.32 276.865 232.054 277.132C231.787 277.398 231.426 277.548 231.049 277.548Z" fill="#D4B28C"/>
<path d="M268.468 277.548H243.956C243.579 277.548 243.218 277.398 242.952 277.132C242.685 276.865 242.536 276.504 242.536 276.127C242.536 275.751 242.685 275.389 242.952 275.123C243.218 274.857 243.579 274.707 243.956 274.707H268.468C268.845 274.707 269.206 274.857 269.472 275.123C269.739 275.389 269.888 275.751 269.888 276.127C269.888 276.504 269.739 276.865 269.472 277.132C269.206 277.398 268.845 277.548 268.468 277.548Z" fill="#D4B28C"/>
<path d="M281.596 277.548H274.319C273.942 277.548 273.581 277.398 273.315 277.132C273.049 276.865 272.899 276.504 272.899 276.127C272.899 275.751 273.049 275.389 273.315 275.123C273.581 274.857 273.942 274.707 274.319 274.707H281.596C281.973 274.707 282.334 274.857 282.6 275.123C282.867 275.389 283.016 275.751 283.016 276.127C283.016 276.504 282.867 276.865 282.6 277.132C282.334 277.398 281.973 277.548 281.596 277.548Z" fill="#D4B28C"/>
<path d="M322.775 277.548H298.263C297.887 277.548 297.525 277.398 297.259 277.132C296.993 276.865 296.843 276.504 296.843 276.127C296.843 275.751 296.993 275.389 297.259 275.123C297.525 274.857 297.887 274.707 298.263 274.707H322.775C323.152 274.707 323.513 274.857 323.78 275.123C324.046 275.389 324.196 275.751 324.196 276.127C324.196 276.504 324.046 276.865 323.78 277.132C323.513 277.398 323.152 277.548 322.775 277.548Z" fill="#D4B28C"/>
<path d="M335.887 277.548H328.61C328.233 277.548 327.872 277.398 327.605 277.132C327.339 276.865 327.189 276.504 327.189 276.127C327.189 275.751 327.339 275.389 327.605 275.123C327.872 274.857 328.233 274.707 328.61 274.707H335.887C336.263 274.707 336.624 274.857 336.891 275.123C337.157 275.389 337.307 275.751 337.307 276.127C337.307 276.504 337.157 276.865 336.891 277.132C336.624 277.398 336.263 277.548 335.887 277.548Z" fill="#D4B28C"/>
<path d="M351.332 402.881C350.956 402.881 350.594 402.731 350.328 402.465C350.062 402.199 349.912 401.837 349.912 401.461V289.949H126.519V401.461C126.519 401.837 126.369 402.199 126.103 402.465C125.837 402.731 125.475 402.881 125.099 402.881C124.722 402.881 124.361 402.731 124.094 402.465C123.828 402.199 123.678 401.837 123.678 401.461V288.528C123.678 288.342 123.714 288.157 123.785 287.984C123.856 287.811 123.961 287.655 124.093 287.522C124.225 287.39 124.382 287.286 124.554 287.215C124.727 287.144 124.912 287.107 125.099 287.108H351.332C351.519 287.107 351.704 287.144 351.877 287.215C352.049 287.286 352.206 287.39 352.338 287.522C352.47 287.655 352.575 287.811 352.646 287.984C352.717 288.157 352.753 288.342 352.753 288.528V401.461C352.753 401.837 352.603 402.199 352.337 402.465C352.07 402.731 351.709 402.881 351.332 402.881Z" fill="#D4B28C"/>
<path d="M288.771 388.128C288.394 388.128 288.033 387.978 287.767 387.712C287.5 387.446 287.351 387.085 287.351 386.708C287.351 373.676 282.174 361.177 272.958 351.962C263.743 342.747 251.245 337.57 238.213 337.57C225.18 337.57 212.682 342.747 203.467 351.962C194.252 361.177 189.075 373.676 189.075 386.708C189.075 387.085 188.925 387.446 188.659 387.712C188.392 387.978 188.031 388.128 187.654 388.128C187.278 388.128 186.917 387.978 186.65 387.712C186.384 387.446 186.234 387.085 186.234 386.708C186.234 372.922 191.711 359.701 201.458 349.954C211.206 340.206 224.427 334.729 238.213 334.729C251.998 334.729 265.219 340.206 274.967 349.954C284.715 359.701 290.191 372.922 290.191 386.708C290.192 386.895 290.156 387.08 290.084 387.252C290.013 387.425 289.909 387.582 289.777 387.714C289.645 387.846 289.488 387.95 289.315 388.021C289.143 388.092 288.957 388.129 288.771 388.128Z" fill="#D4B28C"/>
<path d="M272.66 332.343C272.386 332.343 272.118 332.264 271.888 332.116C261.867 325.652 250.198 322.209 238.273 322.198C226.348 322.186 214.672 325.608 204.64 332.053C204.483 332.166 204.306 332.246 204.117 332.287C203.929 332.329 203.734 332.332 203.545 332.296C203.355 332.26 203.175 332.186 203.015 332.078C202.855 331.97 202.719 331.831 202.615 331.669C202.511 331.507 202.441 331.325 202.409 331.135C202.377 330.945 202.384 330.75 202.43 330.563C202.476 330.375 202.56 330.199 202.676 330.046C202.792 329.892 202.938 329.763 203.106 329.667C213.597 322.925 225.808 319.346 238.279 319.357C250.749 319.368 262.954 322.969 273.433 329.73C273.691 329.896 273.887 330.142 273.994 330.429C274.101 330.717 274.111 331.031 274.024 331.326C273.937 331.62 273.757 331.878 273.512 332.061C273.266 332.245 272.967 332.343 272.66 332.343Z" fill="#D4B28C"/>
<path d="M274.91 388.128C274.533 388.128 274.172 387.978 273.906 387.712C273.639 387.446 273.49 387.084 273.49 386.708C273.549 382.038 272.68 377.402 270.934 373.071C269.188 368.739 266.599 364.797 263.318 361.474C260.037 358.151 256.128 355.512 251.819 353.711C247.51 351.91 242.886 350.983 238.216 350.983C233.545 350.983 228.921 351.91 224.612 353.711C220.303 355.512 216.395 358.151 213.113 361.474C209.832 364.797 207.243 368.739 205.497 373.071C203.751 377.402 202.882 382.038 202.941 386.708C202.941 387.084 202.792 387.446 202.525 387.712C202.259 387.978 201.898 388.128 201.521 388.128C201.144 388.128 200.783 387.978 200.517 387.712C200.251 387.446 200.101 387.084 200.101 386.708C200.039 381.663 200.98 376.657 202.867 371.978C204.755 367.3 207.553 363.043 211.098 359.454C214.644 355.865 218.866 353.016 223.521 351.071C228.176 349.126 233.171 348.125 238.216 348.125C243.26 348.125 248.255 349.126 252.91 351.071C257.565 353.016 261.787 355.865 265.333 359.454C268.878 363.043 271.676 367.3 273.564 371.978C275.451 376.657 276.392 381.663 276.33 386.708C276.33 387.084 276.181 387.446 275.914 387.712C275.648 387.978 275.287 388.128 274.91 388.128Z" fill="#D4B28C"/>
<path d="M233.02 351.43C232.675 351.43 232.342 351.304 232.083 351.077C231.823 350.849 231.656 350.534 231.612 350.192L229.907 337.126C229.871 336.936 229.874 336.74 229.917 336.551C229.959 336.362 230.039 336.184 230.153 336.027C230.266 335.871 230.411 335.739 230.577 335.64C230.744 335.541 230.929 335.477 231.121 335.452C231.313 335.428 231.508 335.442 231.694 335.496C231.88 335.549 232.053 335.64 232.203 335.762C232.353 335.885 232.476 336.037 232.564 336.209C232.653 336.381 232.706 336.569 232.719 336.763L234.424 349.828C234.448 350.013 234.435 350.201 234.386 350.381C234.337 350.561 234.254 350.73 234.14 350.878C234.026 351.025 233.884 351.149 233.722 351.242C233.56 351.335 233.382 351.395 233.197 351.419C233.138 351.428 233.079 351.431 233.02 351.43Z" fill="#D4B28C"/>
<path d="M243.422 351.431C243.361 351.437 243.3 351.437 243.24 351.431C243.055 351.408 242.876 351.348 242.714 351.256C242.551 351.163 242.409 351.039 242.295 350.891C242.181 350.744 242.097 350.575 242.049 350.394C242.001 350.214 241.988 350.026 242.013 349.841L243.717 336.451C243.741 336.265 243.801 336.085 243.895 335.921C243.988 335.758 244.113 335.615 244.262 335.5C244.41 335.385 244.58 335.301 244.762 335.251C244.943 335.202 245.133 335.189 245.319 335.213C245.506 335.237 245.686 335.297 245.849 335.39C246.012 335.484 246.155 335.609 246.27 335.757C246.385 335.906 246.47 336.076 246.519 336.257C246.568 336.439 246.581 336.628 246.558 336.815L244.853 350.204C244.805 350.548 244.633 350.862 244.369 351.088C244.106 351.314 243.769 351.436 243.422 351.431Z" fill="#D4B28C"/>
<path d="M349.52 308.677H125.087C124.711 308.677 124.349 308.527 124.083 308.261C123.817 307.995 123.667 307.633 123.667 307.257C123.667 306.88 123.817 306.519 124.083 306.253C124.349 305.986 124.711 305.837 125.087 305.837H349.509C349.886 305.837 350.247 305.986 350.513 306.253C350.779 306.519 350.929 306.88 350.929 307.257C350.929 307.633 350.779 307.995 350.513 308.261C350.247 308.527 349.886 308.677 349.509 308.677H349.52Z" fill="#D4B28C"/>
<path d="M140.897 307.257C140.52 307.257 140.159 307.108 139.892 306.842C139.626 306.575 139.476 306.214 139.476 305.837V294.595C139.476 294.219 139.626 293.857 139.892 293.591C140.159 293.325 140.52 293.175 140.897 293.175C141.273 293.175 141.634 293.325 141.901 293.591C142.167 293.857 142.317 294.219 142.317 294.595V305.837C142.318 306.024 142.281 306.209 142.21 306.382C142.139 306.554 142.035 306.711 141.903 306.843C141.771 306.975 141.614 307.08 141.441 307.151C141.268 307.222 141.083 307.258 140.897 307.257Z" fill="#D4B28C"/>
<path d="M154.059 307.257C153.682 307.257 153.321 307.108 153.055 306.842C152.788 306.575 152.639 306.214 152.639 305.837V294.595C152.639 294.219 152.788 293.857 153.055 293.591C153.321 293.325 153.682 293.175 154.059 293.175C154.435 293.175 154.797 293.325 155.063 293.591C155.329 293.857 155.479 294.219 155.479 294.595V305.837C155.479 306.214 155.329 306.575 155.063 306.842C154.797 307.108 154.435 307.257 154.059 307.257Z" fill="#D4B28C"/>
<path d="M167.249 307.257C166.873 307.257 166.511 307.108 166.245 306.842C165.979 306.575 165.829 306.214 165.829 305.837V294.595C165.829 294.219 165.979 293.857 166.245 293.591C166.511 293.325 166.873 293.175 167.249 293.175C167.626 293.175 167.987 293.325 168.254 293.591C168.52 293.857 168.67 294.219 168.67 294.595V305.837C168.67 306.214 168.52 306.575 168.254 306.842C167.987 307.108 167.626 307.257 167.249 307.257Z" fill="#D4B28C"/>
<path d="M180.429 307.257C180.052 307.257 179.691 307.108 179.424 306.842C179.158 306.575 179.008 306.214 179.008 305.837V294.595C179.008 294.219 179.158 293.857 179.424 293.591C179.691 293.325 180.052 293.175 180.429 293.175C180.805 293.175 181.166 293.325 181.433 293.591C181.699 293.857 181.849 294.219 181.849 294.595V305.837C181.849 306.214 181.699 306.575 181.433 306.842C181.166 307.108 180.805 307.257 180.429 307.257Z" fill="#D4B28C"/>
<path d="M193.602 307.257C193.226 307.257 192.864 307.108 192.598 306.842C192.332 306.575 192.182 306.214 192.182 305.837V294.595C192.182 294.219 192.332 293.857 192.598 293.591C192.864 293.325 193.226 293.175 193.602 293.175C193.979 293.175 194.34 293.325 194.606 293.591C194.873 293.857 195.022 294.219 195.022 294.595V305.837C195.022 306.214 194.873 306.575 194.606 306.842C194.34 307.108 193.979 307.257 193.602 307.257Z" fill="#D4B28C"/>
<path d="M206.781 307.257C206.595 307.258 206.41 307.222 206.237 307.151C206.064 307.08 205.907 306.975 205.775 306.843C205.643 306.711 205.539 306.554 205.468 306.382C205.397 306.209 205.36 306.024 205.361 305.837V294.595C205.361 294.219 205.511 293.857 205.777 293.591C206.043 293.325 206.405 293.175 206.781 293.175C207.158 293.175 207.519 293.325 207.786 293.591C208.052 293.857 208.202 294.219 208.202 294.595V305.837C208.202 306.214 208.052 306.575 207.786 306.842C207.519 307.108 207.158 307.257 206.781 307.257Z" fill="#D4B28C"/>
<path d="M219.955 307.257C219.578 307.257 219.217 307.108 218.951 306.842C218.684 306.575 218.535 306.214 218.535 305.837V294.595C218.535 294.219 218.684 293.857 218.951 293.591C219.217 293.325 219.578 293.175 219.955 293.175C220.332 293.175 220.693 293.325 220.959 293.591C221.225 293.857 221.375 294.219 221.375 294.595V305.837C221.375 306.214 221.225 306.575 220.959 306.842C220.693 307.108 220.332 307.257 219.955 307.257Z" fill="#D4B28C"/>
<path d="M233.128 307.257C232.752 307.257 232.39 307.108 232.124 306.842C231.858 306.575 231.708 306.214 231.708 305.837V294.595C231.708 294.219 231.858 293.857 232.124 293.591C232.39 293.325 232.752 293.175 233.128 293.175C233.505 293.175 233.866 293.325 234.133 293.591C234.399 293.857 234.549 294.219 234.549 294.595V305.837C234.549 306.214 234.399 306.575 234.133 306.842C233.866 307.108 233.505 307.257 233.128 307.257Z" fill="#D4B28C"/>
<path d="M246.308 307.257C245.931 307.257 245.57 307.108 245.303 306.842C245.037 306.575 244.887 306.214 244.887 305.837V294.595C244.887 294.219 245.037 293.857 245.303 293.591C245.57 293.325 245.931 293.175 246.308 293.175C246.684 293.175 247.045 293.325 247.312 293.591C247.578 293.857 247.728 294.219 247.728 294.595V305.837C247.728 306.214 247.578 306.575 247.312 306.842C247.045 307.108 246.684 307.257 246.308 307.257Z" fill="#D4B28C"/>
<path d="M259.481 307.257C259.105 307.257 258.743 307.108 258.477 306.842C258.211 306.575 258.061 306.214 258.061 305.837V294.595C258.061 294.219 258.211 293.857 258.477 293.591C258.743 293.325 259.105 293.175 259.481 293.175C259.858 293.175 260.219 293.325 260.485 293.591C260.752 293.857 260.901 294.219 260.901 294.595V305.837C260.901 306.214 260.752 306.575 260.485 306.842C260.219 307.108 259.858 307.257 259.481 307.257Z" fill="#D4B28C"/>
<path d="M272.66 307.257C272.284 307.257 271.922 307.108 271.656 306.842C271.39 306.575 271.24 306.214 271.24 305.837V294.595C271.24 294.219 271.39 293.857 271.656 293.591C271.922 293.325 272.284 293.175 272.66 293.175C273.037 293.175 273.398 293.325 273.665 293.591C273.931 293.857 274.081 294.219 274.081 294.595V305.837C274.081 306.214 273.931 306.575 273.665 306.842C273.398 307.108 273.037 307.257 272.66 307.257Z" fill="#D4B28C"/>
<path d="M285.851 307.257C285.474 307.257 285.113 307.108 284.847 306.842C284.58 306.575 284.431 306.214 284.431 305.837V294.595C284.431 294.219 284.58 293.857 284.847 293.591C285.113 293.325 285.474 293.175 285.851 293.175C286.228 293.175 286.589 293.325 286.855 293.591C287.122 293.857 287.271 294.219 287.271 294.595V305.837C287.271 306.214 287.122 306.575 286.855 306.842C286.589 307.108 286.228 307.257 285.851 307.257Z" fill="#D4B28C"/>
<path d="M299.007 307.257C298.631 307.257 298.27 307.108 298.003 306.842C297.737 306.575 297.587 306.214 297.587 305.837V294.595C297.587 294.219 297.737 293.857 298.003 293.591C298.27 293.325 298.631 293.175 299.007 293.175C299.384 293.175 299.745 293.325 300.012 293.591C300.278 293.857 300.428 294.219 300.428 294.595V305.837C300.428 306.214 300.278 306.575 300.012 306.842C299.745 307.108 299.384 307.257 299.007 307.257Z" fill="#D4B28C"/>
<path d="M312.187 307.257C311.81 307.257 311.449 307.108 311.182 306.842C310.916 306.575 310.767 306.214 310.767 305.837V294.595C310.767 294.219 310.916 293.857 311.182 293.591C311.449 293.325 311.81 293.175 312.187 293.175C312.563 293.175 312.924 293.325 313.191 293.591C313.457 293.857 313.607 294.219 313.607 294.595V305.837C313.607 306.214 313.457 306.575 313.191 306.842C312.924 307.108 312.563 307.257 312.187 307.257Z" fill="#D4B28C"/>
<path d="M325.36 307.257C324.984 307.257 324.622 307.108 324.356 306.842C324.09 306.575 323.94 306.214 323.94 305.837V294.595C323.94 294.219 324.09 293.857 324.356 293.591C324.622 293.325 324.984 293.175 325.36 293.175C325.737 293.175 326.098 293.325 326.364 293.591C326.631 293.857 326.78 294.219 326.78 294.595V305.837C326.78 306.214 326.631 306.575 326.364 306.842C326.098 307.108 325.737 307.257 325.36 307.257Z" fill="#D4B28C"/>
<path d="M338.539 307.257C338.163 307.257 337.801 307.108 337.535 306.842C337.269 306.575 337.119 306.214 337.119 305.837V294.595C337.119 294.219 337.269 293.857 337.535 293.591C337.801 293.325 338.163 293.175 338.539 293.175C338.916 293.175 339.277 293.325 339.544 293.591C339.81 293.857 339.96 294.219 339.96 294.595V305.837C339.96 306.214 339.81 306.575 339.544 306.842C339.277 307.108 338.916 307.257 338.539 307.257Z" fill="#D4B28C"/>
<path d="M151.622 376.238C151.245 376.238 150.884 376.089 150.617 375.822C150.351 375.556 150.202 375.195 150.202 374.818V336.15C150.202 335.773 150.351 335.412 150.617 335.145C150.884 334.879 151.245 334.729 151.622 334.729C151.998 334.729 152.36 334.879 152.626 335.145C152.892 335.412 153.042 335.773 153.042 336.15V374.818C153.042 375.195 152.892 375.556 152.626 375.822C152.36 376.089 151.998 376.238 151.622 376.238Z" fill="#D4B28C"/>
<path d="M168.414 376.238C168.037 376.238 167.676 376.089 167.41 375.822C167.143 375.556 166.994 375.195 166.994 374.818V336.15C166.994 335.773 167.143 335.412 167.41 335.145C167.676 334.879 168.037 334.729 168.414 334.729C168.791 334.729 169.152 334.879 169.418 335.145C169.684 335.412 169.834 335.773 169.834 336.15V374.818C169.834 375.195 169.684 375.556 169.418 375.822C169.152 376.089 168.791 376.238 168.414 376.238Z" fill="#D4B28C"/>
<path d="M311.022 376.238C310.646 376.238 310.284 376.089 310.018 375.822C309.752 375.556 309.602 375.195 309.602 374.818V336.15C309.602 335.773 309.752 335.412 310.018 335.145C310.284 334.879 310.646 334.729 311.022 334.729C311.399 334.729 311.76 334.879 312.026 335.145C312.293 335.412 312.442 335.773 312.442 336.15V374.818C312.442 375.195 312.293 375.556 312.026 375.822C311.76 376.089 311.399 376.238 311.022 376.238Z" fill="#D4B28C"/>
<path d="M327.814 376.238C327.438 376.238 327.076 376.089 326.81 375.822C326.544 375.556 326.394 375.195 326.394 374.818V336.15C326.394 335.773 326.544 335.412 326.81 335.145C327.076 334.879 327.438 334.729 327.814 334.729C328.191 334.729 328.552 334.879 328.818 335.145C329.085 335.412 329.235 335.773 329.235 336.15V374.818C329.235 375.195 329.085 375.556 328.818 375.822C328.552 376.089 328.191 376.238 327.814 376.238Z" fill="#D4B28C"/>
<path d="M346.674 289.948H129.922C129.545 289.948 129.184 289.799 128.917 289.532C128.651 289.266 128.501 288.905 128.501 288.528V263.726C128.501 263.35 128.651 262.988 128.917 262.722C129.184 262.456 129.545 262.306 129.922 262.306H346.674C347.051 262.306 347.412 262.456 347.678 262.722C347.945 262.988 348.094 263.35 348.094 263.726V288.528C348.094 288.905 347.945 289.266 347.678 289.532C347.412 289.799 347.051 289.948 346.674 289.948ZM131.342 287.108H345.254V265.147H131.336L131.342 287.108Z" fill="#D4B28C"/>
<path d="M290.356 265.147H185.723C185.346 265.147 184.985 264.997 184.719 264.731C184.452 264.465 184.303 264.103 184.303 263.727V242.027C184.302 241.84 184.338 241.655 184.409 241.482C184.48 241.31 184.585 241.153 184.717 241.021C184.849 240.889 185.006 240.784 185.179 240.713C185.351 240.642 185.536 240.606 185.723 240.606H290.356C290.542 240.606 290.727 240.642 290.9 240.713C291.073 240.784 291.23 240.889 291.362 241.021C291.494 241.153 291.598 241.31 291.669 241.482C291.74 241.655 291.777 241.84 291.776 242.027V263.727C291.776 264.103 291.626 264.465 291.36 264.731C291.094 264.997 290.732 265.147 290.356 265.147ZM187.143 262.307H288.936V243.447H187.143V262.307Z" fill="#D4B28C"/>
<path d="M290.356 194.53H185.723C185.346 194.53 184.985 194.38 184.719 194.114C184.452 193.847 184.303 193.486 184.303 193.11V182.259C184.303 181.883 184.452 181.521 184.719 181.255C184.985 180.989 185.346 180.839 185.723 180.839H290.356C290.732 180.839 291.094 180.989 291.36 181.255C291.626 181.521 291.776 181.883 291.776 182.259V193.127C291.771 193.5 291.62 193.857 291.354 194.12C291.088 194.382 290.729 194.53 290.356 194.53ZM187.143 191.689H288.936V183.68H187.143V191.689Z" fill="#D4B28C"/>
<path d="M194.221 243.288H187.717C187.339 243.285 186.978 243.134 186.711 242.867C186.445 242.596 186.296 242.231 186.297 241.85L186.751 192.996C186.754 192.62 186.905 192.26 187.17 191.993C187.436 191.727 187.795 191.575 188.171 191.57C188.551 191.578 188.911 191.735 189.175 192.007C189.439 192.28 189.585 192.645 189.58 193.025L189.143 240.424H192.778L192.341 193.002C192.339 192.815 192.373 192.63 192.443 192.457C192.513 192.284 192.616 192.126 192.747 191.993C192.878 191.86 193.034 191.754 193.206 191.681C193.378 191.609 193.563 191.571 193.75 191.57C194.124 191.569 194.484 191.716 194.75 191.979C195.016 192.242 195.167 192.599 195.17 192.974L195.619 241.828C195.622 242.016 195.587 242.203 195.517 242.377C195.447 242.552 195.343 242.711 195.211 242.844C195.078 242.978 194.921 243.084 194.747 243.157C194.573 243.229 194.387 243.266 194.199 243.265L194.221 243.288Z" fill="#D4B28C"/>
<path d="M212.905 243.288H206.406C206.218 243.288 206.032 243.252 205.858 243.179C205.684 243.107 205.527 243.001 205.394 242.867C205.262 242.733 205.158 242.575 205.088 242.4C205.018 242.225 204.983 242.038 204.986 241.85L205.435 192.996C205.438 192.62 205.588 192.26 205.854 191.993C206.12 191.727 206.479 191.575 206.855 191.57C207.234 191.578 207.595 191.735 207.859 192.007C208.123 192.28 208.269 192.645 208.264 193.025L207.827 240.424H211.462L211.025 193.002C211.023 192.815 211.057 192.63 211.127 192.457C211.197 192.284 211.3 192.126 211.431 191.993C211.562 191.86 211.718 191.754 211.89 191.681C212.062 191.609 212.247 191.571 212.434 191.57C212.808 191.569 213.167 191.716 213.433 191.979C213.7 192.242 213.851 192.599 213.854 192.974L214.303 241.828C214.306 242.016 214.271 242.203 214.201 242.377C214.131 242.552 214.027 242.711 213.894 242.844C213.762 242.978 213.605 243.084 213.431 243.157C213.257 243.229 213.071 243.266 212.882 243.265L212.905 243.288Z" fill="#D4B28C"/>
<path d="M231.589 243.288H225.068C224.879 243.288 224.693 243.252 224.519 243.179C224.345 243.107 224.188 243.001 224.056 242.867C223.923 242.733 223.819 242.575 223.749 242.4C223.679 242.225 223.644 242.038 223.647 241.85L224.096 192.996C224.099 192.62 224.249 192.26 224.515 191.993C224.781 191.727 225.14 191.575 225.516 191.57C225.896 191.578 226.256 191.735 226.52 192.007C226.784 192.28 226.93 192.645 226.925 193.025L226.488 240.424H230.123L229.686 193.002C229.684 192.815 229.718 192.63 229.788 192.457C229.858 192.284 229.961 192.126 230.092 191.993C230.223 191.86 230.379 191.754 230.551 191.681C230.723 191.609 230.908 191.571 231.095 191.57C231.469 191.569 231.828 191.716 232.095 191.979C232.361 192.242 232.512 192.599 232.515 192.974L232.964 241.828C232.967 242.016 232.932 242.203 232.862 242.377C232.792 242.552 232.688 242.711 232.555 242.844C232.423 242.978 232.266 243.084 232.092 243.157C231.918 243.229 231.732 243.266 231.543 243.265L231.589 243.288Z" fill="#D4B28C"/>
<path d="M250.278 243.288H243.774C243.586 243.288 243.399 243.252 243.226 243.179C243.052 243.107 242.894 243.001 242.762 242.867C242.63 242.733 242.526 242.575 242.456 242.4C242.385 242.225 242.351 242.038 242.354 241.85L242.803 192.996C242.806 192.62 242.956 192.26 243.221 191.993C243.487 191.727 243.847 191.575 244.223 191.57C244.602 191.578 244.963 191.735 245.227 192.007C245.491 192.28 245.636 192.645 245.632 193.025L245.194 240.424H248.83L248.393 193.002C248.39 192.815 248.425 192.63 248.495 192.457C248.564 192.284 248.668 192.126 248.799 191.993C248.93 191.86 249.086 191.754 249.258 191.681C249.43 191.609 249.615 191.571 249.801 191.57C250.175 191.569 250.535 191.716 250.801 191.979C251.067 192.242 251.218 192.599 251.221 192.974L251.676 241.828C251.677 242.208 251.528 242.573 251.261 242.844C251.004 243.115 250.651 243.274 250.278 243.288Z" fill="#D4B28C"/>
<path d="M269.104 243.157H262.6C262.412 243.157 262.225 243.121 262.052 243.048C261.878 242.976 261.72 242.87 261.588 242.736C261.456 242.602 261.351 242.444 261.281 242.269C261.211 242.094 261.177 241.907 261.18 241.719L261.629 192.865C261.632 192.489 261.782 192.129 262.048 191.862C262.313 191.596 262.673 191.444 263.049 191.439C263.428 191.447 263.789 191.604 264.053 191.876C264.317 192.149 264.462 192.514 264.458 192.894L264.02 240.293H267.656L267.218 192.871C267.216 192.684 267.251 192.499 267.321 192.326C267.39 192.153 267.494 191.995 267.625 191.862C267.756 191.729 267.912 191.623 268.084 191.55C268.256 191.478 268.44 191.44 268.627 191.439C269.001 191.438 269.361 191.585 269.627 191.848C269.893 192.111 270.044 192.468 270.047 192.843L270.502 241.697C270.502 242.077 270.353 242.442 270.087 242.713C269.83 242.984 269.477 243.143 269.104 243.157Z" fill="#D4B28C"/>
<path d="M287.646 243.288H281.142C280.954 243.288 280.767 243.252 280.593 243.179C280.42 243.107 280.262 243.001 280.13 242.867C279.997 242.733 279.893 242.575 279.823 242.4C279.753 242.225 279.718 242.038 279.721 241.85L280.17 192.996C280.173 192.62 280.324 192.26 280.589 191.993C280.855 191.727 281.214 191.575 281.59 191.57C281.97 191.578 282.331 191.735 282.594 192.007C282.858 192.28 283.004 192.645 282.999 193.025L282.562 240.424H286.198L285.76 193.002C285.758 192.815 285.793 192.63 285.862 192.457C285.932 192.284 286.035 192.126 286.166 191.993C286.297 191.86 286.453 191.754 286.625 191.681C286.798 191.609 286.982 191.571 287.169 191.57C287.543 191.569 287.903 191.716 288.169 191.979C288.435 192.242 288.586 192.599 288.589 192.974L289.044 241.828C289.044 242.208 288.895 242.573 288.629 242.844C288.371 243.115 288.019 243.274 287.646 243.288Z" fill="#D4B28C"/>
<path d="M204.822 183.679C204.445 183.679 204.084 183.53 203.817 183.263C203.551 182.997 203.401 182.636 203.401 182.259V171.721C203.401 155.537 218.898 142.369 237.946 142.369C256.993 142.369 272.49 155.537 272.49 171.721V181.719C272.49 182.096 272.34 182.457 272.074 182.724C271.808 182.99 271.446 183.14 271.07 183.14C270.693 183.14 270.332 182.99 270.066 182.724C269.799 182.457 269.65 182.096 269.65 181.719V171.721C269.65 157.099 255.448 145.209 237.946 145.209C220.443 145.209 206.242 157.099 206.242 171.721V182.259C206.242 182.636 206.092 182.997 205.826 183.263C205.559 183.53 205.198 183.679 204.822 183.679Z" fill="#D4B28C"/>
<path d="M213.661 183.679C213.284 183.679 212.923 183.53 212.657 183.263C212.39 182.997 212.24 182.636 212.24 182.259V171.721C212.24 155.537 223.772 142.369 237.946 142.369C252.119 142.369 263.651 155.537 263.651 171.721V181.719C263.651 182.096 263.501 182.457 263.235 182.724C262.968 182.99 262.607 183.14 262.231 183.14C261.854 183.14 261.493 182.99 261.226 182.724C260.96 182.457 260.81 182.096 260.81 181.719V171.721C260.81 157.099 250.551 145.209 237.946 145.209C225.34 145.209 215.081 157.099 215.081 171.721V182.259C215.081 182.636 214.931 182.997 214.665 183.263C214.399 183.53 214.037 183.679 213.661 183.679Z" fill="#D4B28C"/>
<path d="M251.517 146.886C251.33 146.886 251.145 146.85 250.973 146.779C250.8 146.708 250.643 146.603 250.511 146.471C250.379 146.339 250.274 146.183 250.203 146.01C250.132 145.837 250.096 145.652 250.097 145.466V125.64H225.539V145.466C225.539 145.842 225.389 146.203 225.123 146.47C224.857 146.736 224.496 146.886 224.119 146.886C223.742 146.886 223.381 146.736 223.115 146.47C222.848 146.203 222.699 145.842 222.699 145.466V124.22C222.699 123.843 222.848 123.482 223.115 123.216C223.381 122.949 223.742 122.8 224.119 122.8H251.517C251.894 122.8 252.255 122.949 252.521 123.216C252.787 123.482 252.937 123.843 252.937 124.22V145.466C252.938 145.652 252.901 145.837 252.83 146.01C252.759 146.183 252.655 146.339 252.523 146.471C252.391 146.603 252.234 146.708 252.061 146.779C251.889 146.85 251.704 146.886 251.517 146.886Z" fill="#D4B28C"/>
<path d="M229.044 125.697H220.12C219.867 125.697 219.619 125.63 219.401 125.502C219.183 125.374 219.003 125.19 218.88 124.97C218.756 124.749 218.694 124.5 218.699 124.247C218.705 123.995 218.777 123.748 218.91 123.533L226.567 111.035L236.332 18.4398C236.372 18.0632 236.559 17.7175 236.853 17.4788C237.147 17.2402 237.524 17.1282 237.9 17.1673C238.277 17.2065 238.622 17.3937 238.861 17.6878C239.1 17.9818 239.212 18.3586 239.173 18.7352L229.374 111.671C229.348 111.873 229.28 112.066 229.175 112.239L222.676 122.845H229.044C229.421 122.845 229.782 122.995 230.048 123.261C230.315 123.528 230.464 123.889 230.464 124.266C230.464 124.642 230.315 125.003 230.048 125.27C229.782 125.536 229.421 125.686 229.044 125.686V125.697Z" fill="#D4B28C"/>
<path d="M255.897 125.697H247.222C246.846 125.697 246.484 125.548 246.218 125.281C245.952 125.015 245.802 124.654 245.802 124.277C245.802 123.9 245.952 123.539 246.218 123.273C246.484 123.007 246.846 122.857 247.222 122.857H253.357L246.864 112.251C246.755 112.079 246.685 111.885 246.66 111.683L236.997 18.7297C236.958 18.3531 237.07 17.9763 237.308 17.6823C237.547 17.3882 237.893 17.201 238.269 17.1618C238.646 17.1227 239.023 17.2347 239.317 17.4733C239.611 17.712 239.798 18.0577 239.837 18.4343L249.495 111.03L257.146 123.527C257.279 123.742 257.351 123.989 257.357 124.242C257.362 124.494 257.3 124.744 257.176 124.964C257.053 125.185 256.873 125.369 256.655 125.496C256.437 125.624 256.189 125.692 255.936 125.692L255.897 125.697Z" fill="#D4B28C"/>
<path d="M238.133 112.057C237.756 112.057 237.395 111.908 237.129 111.641C236.863 111.375 236.713 111.014 236.713 110.637V1.42017C236.713 1.04352 236.863 0.682262 237.129 0.415928C237.395 0.149594 237.756 0 238.133 0C238.51 0 238.871 0.149594 239.137 0.415928C239.404 0.682262 239.553 1.04352 239.553 1.42017V110.637C239.553 111.014 239.404 111.375 239.137 111.641C238.871 111.908 238.51 112.057 238.133 112.057Z" fill="#D4B28C"/>
<path d="M238.133 144.898C237.756 144.898 237.395 144.748 237.129 144.482C236.863 144.215 236.713 143.854 236.713 143.478V131.548C236.713 131.171 236.863 130.81 237.129 130.544C237.395 130.278 237.756 130.128 238.133 130.128C238.51 130.128 238.871 130.278 239.137 130.544C239.404 130.81 239.553 131.171 239.553 131.548V143.478C239.553 143.854 239.404 144.215 239.137 144.482C238.871 144.748 238.51 144.898 238.133 144.898Z" fill="#D4B28C"/>
<path d="M244.836 144.898C244.46 144.898 244.098 144.748 243.832 144.482C243.566 144.215 243.416 143.854 243.416 143.478V131.548C243.416 131.171 243.566 130.81 243.832 130.544C244.098 130.278 244.46 130.128 244.836 130.128C245.213 130.128 245.574 130.278 245.841 130.544C246.107 130.81 246.257 131.171 246.257 131.548V143.478C246.257 143.854 246.107 144.215 245.841 144.482C245.574 144.748 245.213 144.898 244.836 144.898Z" fill="#D4B28C"/>
<path d="M230.873 144.898C230.496 144.898 230.135 144.748 229.869 144.482C229.603 144.215 229.453 143.854 229.453 143.478V131.548C229.453 131.171 229.603 130.81 229.869 130.544C230.135 130.278 230.496 130.128 230.873 130.128C231.25 130.128 231.611 130.278 231.877 130.544C232.144 130.81 232.293 131.171 232.293 131.548V143.478C232.293 143.854 232.144 144.215 231.877 144.482C231.611 144.748 231.25 144.898 230.873 144.898Z" fill="#D4B28C"/>
<path d="M238.008 173.108C236.005 173.108 234.047 172.514 232.381 171.401C230.715 170.288 229.417 168.706 228.65 166.855C227.884 165.005 227.683 162.968 228.074 161.003C228.465 159.039 229.43 157.234 230.846 155.817C232.263 154.401 234.067 153.436 236.032 153.045C237.997 152.655 240.033 152.855 241.884 153.622C243.735 154.388 245.317 155.687 246.43 157.352C247.543 159.018 248.137 160.976 248.137 162.979C248.134 165.665 247.066 168.239 245.167 170.138C243.268 172.037 240.694 173.105 238.008 173.108ZM238.008 155.691C236.567 155.691 235.158 156.118 233.959 156.919C232.76 157.72 231.826 158.858 231.275 160.19C230.723 161.522 230.579 162.987 230.86 164.401C231.141 165.815 231.835 167.114 232.854 168.133C233.874 169.152 235.173 169.846 236.586 170.128C238 170.409 239.466 170.265 240.797 169.713C242.129 169.161 243.267 168.227 244.068 167.029C244.869 165.83 245.297 164.421 245.297 162.979C245.294 161.047 244.525 159.195 243.159 157.829C241.792 156.463 239.94 155.694 238.008 155.691Z" fill="#D4B28C"/>
<path d="M125.087 308.677H19.0628C18.6861 308.677 18.3248 308.527 18.0585 308.261C17.7922 307.995 17.6426 307.633 17.6426 307.257C17.6426 306.88 17.7922 306.519 18.0585 306.253C18.3248 305.986 18.6861 305.837 19.0628 305.837H125.087C125.464 305.837 125.825 305.986 126.091 306.253C126.358 306.519 126.507 306.88 126.507 307.257C126.507 307.633 126.358 307.995 126.091 308.261C125.825 308.527 125.464 308.677 125.087 308.677Z" fill="#D4B28C"/>
<path d="M125.087 327.27H9.81458C9.43793 327.27 9.07667 327.121 8.81034 326.854C8.544 326.588 8.39441 326.227 8.39441 325.85C8.39441 325.473 8.544 325.112 8.81034 324.846C9.07667 324.58 9.43793 324.43 9.81458 324.43H125.087C125.464 324.43 125.825 324.58 126.091 324.846C126.358 325.112 126.507 325.473 126.507 325.85C126.507 326.227 126.358 326.588 126.091 326.854C125.825 327.121 125.464 327.27 125.087 327.27Z" fill="#D4B28C"/>
<path d="M125.087 334.047H16.3303C15.9536 334.047 15.5924 333.897 15.3261 333.631C15.0597 333.365 14.9101 333.004 14.9101 332.627C14.9101 332.25 15.0597 331.889 15.3261 331.623C15.5924 331.356 15.9536 331.207 16.3303 331.207H125.087C125.464 331.207 125.825 331.356 126.091 331.623C126.358 331.889 126.507 332.25 126.507 332.627C126.507 333.004 126.358 333.365 126.091 333.631C125.825 333.897 125.464 334.047 125.087 334.047Z" fill="#D4B28C"/>
<path d="M9.81458 327.27C9.59594 327.269 9.3803 327.218 9.18396 327.122C8.84648 326.955 8.58926 326.661 8.46888 326.304C8.3485 325.947 8.37488 325.557 8.54211 325.219L17.7903 306.626C17.9591 306.292 18.2534 306.037 18.6091 305.919C18.9648 305.8 19.353 305.827 19.6889 305.993C20.0249 306.16 20.2814 306.452 20.4025 306.807C20.5236 307.162 20.4994 307.55 20.3352 307.887L11.087 326.48C10.9696 326.717 10.7882 326.917 10.5634 327.056C10.3385 327.196 10.0792 327.27 9.81458 327.27Z" fill="#D4B28C"/>
<path d="M16.3303 402.466C15.9536 402.466 15.5924 402.316 15.3261 402.05C15.0597 401.783 14.9101 401.422 14.9101 401.046V325.85C14.9101 325.473 15.0597 325.112 15.3261 324.846C15.5924 324.58 15.9536 324.43 16.3303 324.43C16.707 324.43 17.0682 324.58 17.3345 324.846C17.6009 325.112 17.7505 325.473 17.7505 325.85V401.04C17.7512 401.227 17.715 401.412 17.644 401.585C17.5729 401.758 17.4684 401.915 17.3365 402.048C17.2045 402.18 17.0477 402.285 16.8751 402.357C16.7024 402.429 16.5173 402.466 16.3303 402.466Z" fill="#D4B28C"/>
<path d="M48.5455 362.848H35.9685C35.5919 362.848 35.2306 362.699 34.9643 362.433C34.6979 362.166 34.5484 361.805 34.5484 361.428V340.574C34.5476 340.388 34.5838 340.203 34.6549 340.03C34.726 339.857 34.8306 339.701 34.9626 339.569C35.0946 339.437 35.2514 339.332 35.424 339.261C35.5967 339.19 35.7818 339.154 35.9685 339.154H48.5455C48.7322 339.154 48.9172 339.19 49.0899 339.261C49.2625 339.332 49.4194 339.437 49.5514 339.569C49.6835 339.701 49.7881 339.857 49.8592 340.03C49.9303 340.203 49.9665 340.388 49.9657 340.574V361.428C49.9657 361.805 49.8161 362.166 49.5498 362.433C49.2834 362.699 48.9222 362.848 48.5455 362.848ZM37.3887 360.008H47.1254V341.995H37.3887V360.008Z" fill="#D4B28C"/>
<path d="M42.257 361.996C41.8803 361.996 41.5191 361.847 41.2527 361.581C40.9864 361.314 40.8368 360.953 40.8368 360.576V341.137C40.8368 340.76 40.9864 340.399 41.2527 340.133C41.5191 339.866 41.8803 339.717 42.257 339.717C42.6336 339.717 42.9949 339.866 43.2612 340.133C43.5275 340.399 43.6771 340.76 43.6771 341.137V360.576C43.6771 360.953 43.5275 361.314 43.2612 361.581C42.9949 361.847 42.6336 361.996 42.257 361.996Z" fill="#D4B28C"/>
<path d="M48.5455 349.818H35.9685C35.5919 349.818 35.2306 349.668 34.9643 349.402C34.6979 349.135 34.5483 348.774 34.5483 348.398C34.5483 348.021 34.6979 347.66 34.9643 347.393C35.2306 347.127 35.5919 346.978 35.9685 346.978H48.5455C48.9222 346.978 49.2834 347.127 49.5498 347.393C49.8161 347.66 49.9657 348.021 49.9657 348.398C49.9657 348.774 49.8161 349.135 49.5498 349.402C49.2834 349.668 48.9222 349.818 48.5455 349.818Z" fill="#D4B28C"/>
<path d="M76.3639 362.848H63.7869C63.4102 362.848 63.049 362.699 62.7826 362.433C62.5163 362.166 62.3667 361.805 62.3667 361.428V340.574C62.366 340.388 62.4021 340.203 62.4732 340.03C62.5443 339.857 62.6489 339.701 62.781 339.569C62.913 339.437 63.0699 339.332 63.2425 339.261C63.4152 339.19 63.6002 339.154 63.7869 339.154H76.3639C76.5506 339.154 76.7356 339.19 76.9082 339.261C77.0809 339.332 77.2378 339.437 77.3698 339.569C77.5018 339.701 77.6064 339.857 77.6775 340.03C77.7487 340.203 77.7848 340.388 77.7841 340.574V361.428C77.7841 361.805 77.6345 362.166 77.3681 362.433C77.1018 362.699 76.7405 362.848 76.3639 362.848ZM65.2071 360.008H74.9437V341.995H65.2071V360.008Z" fill="#D4B28C"/>
<path d="M70.0753 361.996C69.6987 361.996 69.3376 361.847 69.0712 361.581C68.8049 361.314 68.6552 360.953 68.6552 360.576V341.137C68.6552 340.76 68.8049 340.399 69.0712 340.133C69.3376 339.866 69.6987 339.717 70.0753 339.717C70.452 339.717 70.8132 339.866 71.0796 340.133C71.3459 340.399 71.4955 340.76 71.4955 341.137V360.576C71.4955 360.953 71.3459 361.314 71.0796 361.581C70.8132 361.847 70.452 361.996 70.0753 361.996Z" fill="#D4B28C"/>
<path d="M76.3639 349.818H63.7869C63.4102 349.818 63.049 349.668 62.7826 349.402C62.5163 349.135 62.3667 348.774 62.3667 348.398C62.3667 348.021 62.5163 347.66 62.7826 347.393C63.049 347.127 63.4102 346.978 63.7869 346.978H76.3639C76.7405 346.978 77.1018 347.127 77.3681 347.393C77.6345 347.66 77.784 348.021 77.784 348.398C77.784 348.774 77.6345 349.135 77.3681 349.402C77.1018 349.668 76.7405 349.818 76.3639 349.818Z" fill="#D4B28C"/>
<path d="M104.188 362.848H91.6109C91.2343 362.848 90.873 362.699 90.6067 362.433C90.3403 362.166 90.1907 361.805 90.1907 361.428V340.574C90.19 340.388 90.2262 340.203 90.2973 340.03C90.3684 339.857 90.473 339.701 90.605 339.569C90.737 339.437 90.8939 339.332 91.0666 339.261C91.2392 339.19 91.4242 339.154 91.6109 339.154H104.188C104.375 339.154 104.56 339.19 104.732 339.261C104.905 339.332 105.062 339.437 105.194 339.569C105.326 339.701 105.43 339.857 105.502 340.03C105.573 340.203 105.609 340.388 105.608 340.574V361.428C105.608 361.805 105.459 362.166 105.192 362.433C104.926 362.699 104.565 362.848 104.188 362.848ZM93.0311 360.008H102.768V341.995H93.0311V360.008Z" fill="#D4B28C"/>
<path d="M97.8994 361.996C97.5227 361.996 97.1616 361.847 96.8953 361.581C96.6289 361.314 96.4792 360.953 96.4792 360.576V341.137C96.4792 340.76 96.6289 340.399 96.8953 340.133C97.1616 339.866 97.5227 339.717 97.8994 339.717C98.276 339.717 98.6373 339.866 98.9036 340.133C99.1699 340.399 99.3195 340.76 99.3195 341.137V360.576C99.3195 360.953 99.1699 361.314 98.9036 361.581C98.6373 361.847 98.276 361.996 97.8994 361.996Z" fill="#D4B28C"/>
<path d="M104.188 349.818H91.6109C91.2343 349.818 90.873 349.668 90.6067 349.402C90.3403 349.135 90.1907 348.774 90.1907 348.398C90.1907 348.021 90.3403 347.66 90.6067 347.393C90.873 347.127 91.2343 346.978 91.6109 346.978H104.188C104.565 346.978 104.926 347.127 105.192 347.393C105.458 347.66 105.608 348.021 105.608 348.398C105.608 348.774 105.458 349.135 105.192 349.402C104.926 349.668 104.565 349.818 104.188 349.818Z" fill="#D4B28C"/>
<path d="M48.5455 395.059H35.9685C35.5919 395.059 35.2306 394.909 34.9643 394.643C34.6979 394.376 34.5483 394.015 34.5483 393.638V372.785C34.5483 372.408 34.6979 372.047 34.9643 371.78C35.2306 371.514 35.5919 371.365 35.9685 371.365H48.5455C48.9222 371.365 49.2834 371.514 49.5498 371.78C49.8161 372.047 49.9657 372.408 49.9657 372.785V393.656C49.9612 394.029 49.8096 394.386 49.5438 394.649C49.2779 394.911 48.9192 395.059 48.5455 395.059ZM37.3887 392.218H47.1253V374.205H37.3887V392.218Z" fill="#D4B28C"/>
<path d="M42.257 394.223C41.8803 394.223 41.5191 394.074 41.2527 393.807C40.9864 393.541 40.8368 393.18 40.8368 392.803V373.364C40.8368 372.987 40.9864 372.626 41.2527 372.36C41.5191 372.093 41.8803 371.944 42.257 371.944C42.6336 371.944 42.9949 372.093 43.2612 372.36C43.5275 372.626 43.6771 372.987 43.6771 373.364V392.803C43.6771 393.18 43.5275 393.541 43.2612 393.807C42.9949 394.074 42.6336 394.223 42.257 394.223Z" fill="#D4B28C"/>
<path d="M48.5455 382.032H35.9685C35.5919 382.032 35.2306 381.883 34.9643 381.617C34.6979 381.35 34.5483 380.989 34.5483 380.612C34.5483 380.236 34.6979 379.874 34.9643 379.608C35.2306 379.342 35.5919 379.192 35.9685 379.192H48.5455C48.9222 379.192 49.2834 379.342 49.5498 379.608C49.8161 379.874 49.9657 380.236 49.9657 380.612C49.9657 380.989 49.8161 381.35 49.5498 381.617C49.2834 381.883 48.9222 382.032 48.5455 382.032Z" fill="#D4B28C"/>
<path d="M76.3639 395.059H63.7869C63.4102 395.059 63.049 394.909 62.7826 394.643C62.5163 394.376 62.3667 394.015 62.3667 393.638V372.785C62.3667 372.408 62.5163 372.047 62.7826 371.78C63.049 371.514 63.4102 371.365 63.7869 371.365H76.3639C76.7405 371.365 77.1018 371.514 77.3681 371.78C77.6345 372.047 77.784 372.408 77.784 372.785V393.656C77.7796 394.029 77.628 394.386 77.3622 394.649C77.0963 394.911 76.7376 395.059 76.3639 395.059ZM65.207 392.218H74.9437V374.205H65.207V392.218Z" fill="#D4B28C"/>
<path d="M70.0753 394.223C69.6987 394.223 69.3376 394.074 69.0712 393.807C68.8049 393.541 68.6552 393.18 68.6552 392.803V373.364C68.6552 372.987 68.8049 372.626 69.0712 372.36C69.3376 372.093 69.6987 371.944 70.0753 371.944C70.452 371.944 70.8132 372.093 71.0796 372.36C71.3459 372.626 71.4955 372.987 71.4955 373.364V392.803C71.4955 393.18 71.3459 393.541 71.0796 393.807C70.8132 394.074 70.452 394.223 70.0753 394.223Z" fill="#D4B28C"/>
<path d="M76.3639 382.032H63.7869C63.4102 382.032 63.049 381.883 62.7826 381.617C62.5163 381.35 62.3667 380.989 62.3667 380.612C62.3667 380.236 62.5163 379.874 62.7826 379.608C63.049 379.342 63.4102 379.192 63.7869 379.192H76.3639C76.7405 379.192 77.1018 379.342 77.3681 379.608C77.6345 379.874 77.784 380.236 77.784 380.612C77.784 380.989 77.6345 381.35 77.3681 381.617C77.1018 381.883 76.7405 382.032 76.3639 382.032Z" fill="#D4B28C"/>
<path d="M104.188 395.059H91.6109C91.2343 395.059 90.873 394.909 90.6067 394.643C90.3403 394.376 90.1907 394.015 90.1907 393.638V372.785C90.1907 372.408 90.3403 372.047 90.6067 371.78C90.873 371.514 91.2343 371.365 91.6109 371.365H104.188C104.565 371.365 104.926 371.514 105.192 371.78C105.458 372.047 105.608 372.408 105.608 372.785V393.656C105.604 394.029 105.452 394.386 105.186 394.649C104.92 394.911 104.562 395.059 104.188 395.059ZM93.0311 392.218H102.768V374.205H93.0311V392.218Z" fill="#D4B28C"/>
<path d="M97.8994 394.223C97.5227 394.223 97.1616 394.074 96.8953 393.807C96.6289 393.541 96.4792 393.18 96.4792 392.803V373.364C96.4792 372.987 96.6289 372.626 96.8953 372.36C97.1616 372.093 97.5227 371.944 97.8994 371.944C98.276 371.944 98.6373 372.093 98.9036 372.36C99.1699 372.626 99.3195 372.987 99.3195 373.364V392.803C99.3195 393.18 99.1699 393.541 98.9036 393.807C98.6373 394.074 98.276 394.223 97.8994 394.223Z" fill="#D4B28C"/>
<path d="M104.188 382.032H91.6109C91.2343 382.032 90.873 381.883 90.6067 381.617C90.3403 381.35 90.1907 380.989 90.1907 380.612C90.1907 380.236 90.3403 379.874 90.6067 379.608C90.873 379.342 91.2343 379.192 91.6109 379.192H104.188C104.565 379.192 104.926 379.342 105.192 379.608C105.458 379.874 105.608 380.236 105.608 380.612C105.608 380.989 105.458 381.35 105.192 381.617C104.926 381.883 104.565 382.032 104.188 382.032Z" fill="#D4B28C"/>
<path d="M458.425 308.677H352.383C352.007 308.677 351.645 308.527 351.379 308.261C351.113 307.995 350.963 307.633 350.963 307.257C350.963 306.88 351.113 306.519 351.379 306.253C351.645 305.986 352.007 305.837 352.383 305.837H458.425C458.802 305.837 459.163 305.986 459.429 306.253C459.695 306.519 459.845 306.88 459.845 307.257C459.845 307.633 459.695 307.995 459.429 308.261C459.163 308.527 458.802 308.677 458.425 308.677Z" fill="#D4B28C"/>
<path d="M467.673 327.27H352.355C351.978 327.27 351.617 327.121 351.351 326.854C351.084 326.588 350.935 326.227 350.935 325.85C350.935 325.473 351.084 325.112 351.351 324.846C351.617 324.58 351.978 324.43 352.355 324.43H467.673C468.05 324.43 468.411 324.58 468.677 324.846C468.943 325.112 469.093 325.473 469.093 325.85C469.093 326.227 468.943 326.588 468.677 326.854C468.411 327.121 468.05 327.27 467.673 327.27Z" fill="#D4B28C"/>
<path d="M461.157 334.047H352.383C352.007 334.047 351.645 333.897 351.379 333.631C351.113 333.365 350.963 333.004 350.963 332.627C350.963 332.25 351.113 331.889 351.379 331.623C351.645 331.356 352.007 331.207 352.383 331.207H461.157C461.534 331.207 461.895 331.356 462.161 331.623C462.428 331.889 462.577 332.25 462.577 332.627C462.577 333.004 462.428 333.365 462.161 333.631C461.895 333.897 461.534 334.047 461.157 334.047Z" fill="#D4B28C"/>
<path d="M467.673 327.27C467.408 327.271 467.149 327.197 466.924 327.058C466.699 326.918 466.518 326.718 466.401 326.481L457.152 307.876C457.068 307.709 457.018 307.527 457.004 307.34C456.99 307.153 457.014 306.965 457.073 306.788C457.132 306.61 457.226 306.446 457.349 306.304C457.472 306.163 457.622 306.048 457.79 305.964C457.958 305.881 458.14 305.832 458.327 305.82C458.514 305.808 458.702 305.832 458.879 305.893C459.056 305.953 459.22 306.048 459.36 306.172C459.501 306.296 459.615 306.447 459.697 306.615L468.94 325.208C469.024 325.375 469.073 325.556 469.087 325.742C469.1 325.928 469.077 326.115 469.017 326.292C468.958 326.469 468.865 326.632 468.742 326.773C468.62 326.913 468.471 327.028 468.304 327.111C468.108 327.21 467.892 327.264 467.673 327.27Z" fill="#D4B28C"/>
<path d="M461.157 402.466C460.971 402.466 460.786 402.43 460.613 402.359C460.44 402.288 460.283 402.183 460.151 402.051C460.019 401.919 459.915 401.763 459.844 401.59C459.773 401.417 459.736 401.232 459.737 401.046V325.85C459.737 325.473 459.887 325.112 460.153 324.846C460.419 324.58 460.781 324.43 461.157 324.43C461.534 324.43 461.895 324.58 462.161 324.846C462.428 325.112 462.577 325.473 462.577 325.85V401.04C462.578 401.227 462.542 401.412 462.471 401.585C462.4 401.758 462.295 401.915 462.163 402.048C462.032 402.18 461.875 402.285 461.702 402.357C461.529 402.429 461.344 402.466 461.157 402.466Z" fill="#D4B28C"/>
<path d="M441.502 362.848H428.925C428.548 362.848 428.187 362.699 427.921 362.433C427.654 362.166 427.505 361.805 427.505 361.428V340.574C427.504 340.388 427.54 340.203 427.611 340.03C427.682 339.857 427.787 339.701 427.919 339.569C428.051 339.437 428.208 339.332 428.381 339.261C428.553 339.19 428.738 339.154 428.925 339.154H441.502C441.689 339.154 441.874 339.19 442.046 339.261C442.219 339.332 442.376 339.437 442.508 339.569C442.64 339.701 442.745 339.857 442.816 340.03C442.887 340.203 442.923 340.388 442.922 340.574V361.428C442.922 361.805 442.773 362.166 442.506 362.433C442.24 362.699 441.879 362.848 441.502 362.848ZM430.345 360.008H440.082V341.995H430.345V360.008Z" fill="#D4B28C"/>
<path d="M435.253 361.996C434.877 361.996 434.515 361.847 434.249 361.581C433.983 361.314 433.833 360.953 433.833 360.576V341.137C433.833 340.76 433.983 340.399 434.249 340.133C434.515 339.866 434.877 339.717 435.253 339.717C435.63 339.717 435.991 339.866 436.257 340.133C436.524 340.399 436.673 340.76 436.673 341.137V360.576C436.673 360.953 436.524 361.314 436.257 361.581C435.991 361.847 435.63 361.996 435.253 361.996Z" fill="#D4B28C"/>
<path d="M441.502 349.818H428.925C428.548 349.818 428.187 349.668 427.921 349.402C427.654 349.135 427.505 348.774 427.505 348.398C427.505 348.021 427.654 347.66 427.921 347.393C428.187 347.127 428.548 346.978 428.925 346.978H441.502C441.879 346.978 442.24 347.127 442.506 347.393C442.773 347.66 442.922 348.021 442.922 348.398C442.922 348.774 442.773 349.135 442.506 349.402C442.24 349.668 441.879 349.818 441.502 349.818Z" fill="#D4B28C"/>
<path d="M413.695 362.848H401.124C400.937 362.849 400.752 362.813 400.579 362.742C400.407 362.671 400.25 362.566 400.118 362.434C399.986 362.302 399.881 362.145 399.81 361.973C399.739 361.8 399.703 361.615 399.703 361.428V340.574C399.703 340.388 399.739 340.203 399.81 340.03C399.881 339.857 399.986 339.701 400.118 339.569C400.25 339.437 400.407 339.332 400.579 339.261C400.752 339.19 400.937 339.154 401.124 339.154H413.695C413.882 339.154 414.067 339.19 414.239 339.261C414.412 339.332 414.569 339.437 414.701 339.569C414.833 339.701 414.937 339.857 415.009 340.03C415.08 340.203 415.116 340.388 415.115 340.574V361.428C415.115 361.805 414.966 362.166 414.699 362.433C414.433 362.699 414.072 362.848 413.695 362.848ZM402.544 360.008H412.275V341.995H402.544V360.008Z" fill="#D4B28C"/>
<path d="M407.418 361.996C407.041 361.996 406.68 361.847 406.414 361.581C406.147 361.314 405.998 360.953 405.998 360.576V341.137C405.998 340.76 406.147 340.399 406.414 340.133C406.68 339.866 407.041 339.717 407.418 339.717C407.794 339.717 408.156 339.866 408.422 340.133C408.688 340.399 408.838 340.76 408.838 341.137V360.576C408.838 360.953 408.688 361.314 408.422 361.581C408.156 361.847 407.794 361.996 407.418 361.996Z" fill="#D4B28C"/>
<path d="M413.695 349.818H401.124C400.747 349.818 400.386 349.668 400.119 349.402C399.853 349.135 399.703 348.774 399.703 348.398C399.703 348.021 399.853 347.66 400.119 347.393C400.386 347.127 400.747 346.978 401.124 346.978H413.695C414.072 346.978 414.433 347.127 414.699 347.393C414.966 347.66 415.115 348.021 415.115 348.398C415.115 348.774 414.966 349.135 414.699 349.402C414.433 349.668 414.072 349.818 413.695 349.818Z" fill="#D4B28C"/>
<path d="M385.877 362.848H373.3C372.923 362.848 372.562 362.699 372.295 362.433C372.029 362.166 371.879 361.805 371.879 361.428V340.574C371.879 340.388 371.915 340.203 371.986 340.03C372.057 339.857 372.162 339.701 372.294 339.569C372.426 339.437 372.583 339.332 372.755 339.261C372.928 339.19 373.113 339.154 373.3 339.154H385.877C386.063 339.154 386.248 339.19 386.421 339.261C386.594 339.332 386.751 339.437 386.883 339.569C387.015 339.701 387.119 339.857 387.19 340.03C387.261 340.203 387.298 340.388 387.297 340.574V361.428C387.297 361.805 387.147 362.166 386.881 362.433C386.614 362.699 386.253 362.848 385.877 362.848ZM374.72 360.008H384.457V341.995H374.72V360.008Z" fill="#D4B28C"/>
<path d="M379.582 361.996C379.206 361.996 378.844 361.847 378.578 361.581C378.312 361.314 378.162 360.953 378.162 360.576V341.137C378.162 340.76 378.312 340.399 378.578 340.133C378.844 339.866 379.206 339.717 379.582 339.717C379.959 339.717 380.32 339.866 380.587 340.133C380.853 340.399 381.003 340.76 381.003 341.137V360.576C381.003 360.953 380.853 361.314 380.587 361.581C380.32 361.847 379.959 361.996 379.582 361.996Z" fill="#D4B28C"/>
<path d="M385.877 349.818H373.3C372.923 349.818 372.562 349.668 372.295 349.402C372.029 349.135 371.879 348.774 371.879 348.398C371.879 348.021 372.029 347.66 372.295 347.393C372.562 347.127 372.923 346.978 373.3 346.978H385.877C386.253 346.978 386.614 347.127 386.881 347.393C387.147 347.66 387.297 348.021 387.297 348.398C387.297 348.774 387.147 349.135 386.881 349.402C386.614 349.668 386.253 349.818 385.877 349.818Z" fill="#D4B28C"/>
<path d="M441.502 395.059H428.925C428.548 395.059 428.187 394.909 427.921 394.643C427.654 394.376 427.505 394.015 427.505 393.638V372.785C427.505 372.408 427.654 372.047 427.921 371.78C428.187 371.514 428.548 371.365 428.925 371.365H441.502C441.879 371.365 442.24 371.514 442.506 371.78C442.773 372.047 442.922 372.408 442.922 372.785V393.656C442.918 394.029 442.766 394.386 442.5 394.649C442.234 394.911 441.876 395.059 441.502 395.059ZM430.345 392.218H440.082V374.205H430.345V392.218Z" fill="#D4B28C"/>
<path d="M435.253 394.223C434.877 394.223 434.515 394.074 434.249 393.807C433.983 393.541 433.833 393.18 433.833 392.803V373.364C433.833 372.987 433.983 372.626 434.249 372.36C434.515 372.093 434.877 371.944 435.253 371.944C435.63 371.944 435.991 372.093 436.257 372.36C436.524 372.626 436.673 372.987 436.673 373.364V392.803C436.673 393.18 436.524 393.541 436.257 393.807C435.991 394.074 435.63 394.223 435.253 394.223Z" fill="#D4B28C"/>
<path d="M441.502 382.032H428.925C428.548 382.032 428.187 381.883 427.921 381.617C427.654 381.35 427.505 380.989 427.505 380.612C427.505 380.236 427.654 379.874 427.921 379.608C428.187 379.342 428.548 379.192 428.925 379.192H441.502C441.879 379.192 442.24 379.342 442.506 379.608C442.773 379.874 442.922 380.236 442.922 380.612C442.922 380.989 442.773 381.35 442.506 381.617C442.24 381.883 441.879 382.032 441.502 382.032Z" fill="#D4B28C"/>
<path d="M413.695 395.059H401.124C400.937 395.059 400.752 395.023 400.579 394.952C400.407 394.881 400.25 394.776 400.118 394.644C399.986 394.512 399.881 394.355 399.81 394.183C399.739 394.01 399.703 393.825 399.703 393.639V372.785C399.703 372.598 399.739 372.413 399.81 372.24C399.881 372.068 399.986 371.911 400.118 371.779C400.25 371.647 400.407 371.542 400.579 371.471C400.752 371.4 400.937 371.364 401.124 371.365H413.695C414.072 371.365 414.433 371.514 414.699 371.78C414.966 372.047 415.115 372.408 415.115 372.785V393.656C415.111 394.029 414.959 394.386 414.693 394.649C414.427 394.911 414.069 395.059 413.695 395.059ZM402.544 392.218H412.275V374.205H402.544V392.218Z" fill="#D4B28C"/>
<path d="M407.418 394.223C407.041 394.223 406.68 394.074 406.414 393.807C406.147 393.541 405.998 393.18 405.998 392.803V373.364C405.998 372.987 406.147 372.626 406.414 372.36C406.68 372.093 407.041 371.944 407.418 371.944C407.794 371.944 408.156 372.093 408.422 372.36C408.688 372.626 408.838 372.987 408.838 373.364V392.803C408.838 393.18 408.688 393.541 408.422 393.807C408.156 394.074 407.794 394.223 407.418 394.223Z" fill="#D4B28C"/>
<path d="M413.695 382.032H401.124C400.747 382.032 400.386 381.883 400.119 381.617C399.853 381.35 399.703 380.989 399.703 380.612C399.703 380.236 399.853 379.874 400.119 379.608C400.386 379.342 400.747 379.192 401.124 379.192H413.695C414.072 379.192 414.433 379.342 414.699 379.608C414.966 379.874 415.115 380.236 415.115 380.612C415.115 380.989 414.966 381.35 414.699 381.617C414.433 381.883 414.072 382.032 413.695 382.032Z" fill="#D4B28C"/>
<path d="M385.877 395.059H373.3C372.923 395.059 372.562 394.909 372.295 394.643C372.029 394.376 371.879 394.015 371.879 393.638V372.785C371.879 372.408 372.029 372.047 372.295 371.78C372.562 371.514 372.923 371.365 373.3 371.365H385.877C386.253 371.365 386.614 371.514 386.881 371.78C387.147 372.047 387.297 372.408 387.297 372.785V393.656C387.292 394.029 387.141 394.386 386.875 394.649C386.609 394.911 386.25 395.059 385.877 395.059ZM374.72 392.218H384.457V374.205H374.72V392.218Z" fill="#D4B28C"/>
<path d="M379.582 394.223C379.206 394.223 378.844 394.074 378.578 393.807C378.312 393.541 378.162 393.18 378.162 392.803V373.364C378.162 372.987 378.312 372.626 378.578 372.36C378.844 372.093 379.206 371.944 379.582 371.944C379.959 371.944 380.32 372.093 380.587 372.36C380.853 372.626 381.003 372.987 381.003 373.364V392.803C381.003 393.18 380.853 393.541 380.587 393.807C380.32 394.074 379.959 394.223 379.582 394.223Z" fill="#D4B28C"/>
<path d="M385.877 382.032H373.3C372.923 382.032 372.562 381.883 372.295 381.617C372.029 381.35 371.879 380.989 371.879 380.612C371.879 380.236 372.029 379.874 372.295 379.608C372.562 379.342 372.923 379.192 373.3 379.192H385.877C386.253 379.192 386.614 379.342 386.881 379.608C387.147 379.874 387.297 380.236 387.297 380.612C387.297 380.989 387.147 381.35 386.881 381.617C386.614 381.883 386.253 382.032 385.877 382.032Z" fill="#D4B28C"/>
<path d="M21.2498 327.271C21.0327 327.272 20.8185 327.222 20.625 327.123C20.287 326.958 20.0283 326.666 19.9059 326.31C19.7834 325.954 19.807 325.564 19.9716 325.226L29.0607 306.633C29.1428 306.466 29.257 306.316 29.3969 306.193C29.5368 306.069 29.6996 305.975 29.8761 305.914C30.0525 305.854 30.2391 305.829 30.4253 305.841C30.6114 305.852 30.7934 305.901 30.9609 305.983C31.1284 306.065 31.278 306.179 31.4014 306.319C31.5247 306.459 31.6193 306.622 31.6797 306.798C31.7401 306.975 31.7651 307.161 31.7534 307.347C31.7416 307.533 31.6934 307.715 31.6113 307.883L22.5222 326.476C22.4055 326.714 22.2245 326.915 21.9996 327.055C21.7748 327.196 21.515 327.271 21.2498 327.271Z" fill="#D4B28C"/>
<path d="M34.0995 327.271C33.8825 327.272 33.6682 327.222 33.4746 327.123C33.3067 327.042 33.1565 326.929 33.0327 326.789C32.9089 326.65 32.814 326.487 32.7533 326.311C32.6926 326.134 32.6673 325.948 32.679 325.762C32.6906 325.575 32.7391 325.393 32.8214 325.226L41.9105 306.633C41.9926 306.466 42.1068 306.316 42.2467 306.193C42.3866 306.069 42.5494 305.975 42.7259 305.914C42.9023 305.854 43.0889 305.829 43.2751 305.841C43.4612 305.852 43.6432 305.901 43.8107 305.983C43.9782 306.065 44.1278 306.179 44.2512 306.319C44.3745 306.459 44.469 306.622 44.5294 306.798C44.5898 306.975 44.6149 307.161 44.6031 307.347C44.5914 307.533 44.5432 307.715 44.4611 307.883L35.372 326.476C35.2553 326.714 35.0742 326.915 34.8493 327.055C34.6244 327.196 34.3647 327.271 34.0995 327.271Z" fill="#D4B28C"/>
<path d="M46.9435 327.271C46.7283 327.272 46.516 327.222 46.3244 327.123C46.1566 327.042 46.0064 326.929 45.8826 326.789C45.7588 326.65 45.6637 326.487 45.603 326.311C45.5423 326.134 45.5171 325.948 45.5288 325.762C45.5405 325.575 45.5888 325.393 45.6711 325.226L54.7602 306.633C54.8423 306.466 54.9565 306.316 55.0964 306.193C55.2363 306.069 55.3991 305.975 55.5755 305.914C55.752 305.854 55.9386 305.829 56.1248 305.841C56.3109 305.852 56.4929 305.901 56.6604 305.983C56.8278 306.065 56.9775 306.179 57.1008 306.319C57.2242 306.459 57.3188 306.622 57.3792 306.798C57.4396 306.975 57.4646 307.161 57.4528 307.347C57.4411 307.533 57.3929 307.715 57.3108 307.883L48.2217 326.476C48.1046 326.715 47.9228 326.916 47.6968 327.057C47.4708 327.197 47.2097 327.272 46.9435 327.271Z" fill="#D4B28C"/>
<path d="M59.7934 327.27C59.5764 327.271 59.3623 327.22 59.1685 327.122C59.0011 327.041 58.8515 326.927 58.7283 326.787C58.6051 326.647 58.5107 326.485 58.4505 326.308C58.3903 326.132 58.3656 325.946 58.3777 325.76C58.3898 325.574 58.4385 325.392 58.5209 325.225L67.6101 306.632C67.6921 306.464 67.8063 306.314 67.9464 306.191C68.0864 306.067 68.2495 305.972 68.4262 305.912C68.603 305.851 68.7899 305.826 68.9764 305.837C69.1629 305.849 69.3452 305.897 69.513 305.979C69.6809 306.061 69.8309 306.175 69.9546 306.315C70.0783 306.455 70.1731 306.619 70.2338 306.795C70.2944 306.972 70.3197 307.159 70.3081 307.345C70.2965 307.532 70.2484 307.714 70.1664 307.882L61.0773 326.475C60.9587 326.714 60.7756 326.915 60.5487 327.056C60.3219 327.196 60.0603 327.27 59.7934 327.27Z" fill="#D4B28C"/>
<path d="M72.643 327.271C72.426 327.272 72.212 327.221 72.0182 327.123C71.8509 327.042 71.7013 326.928 71.578 326.788C71.4548 326.648 71.3604 326.486 71.3003 326.309C71.2401 326.133 71.2152 325.946 71.2273 325.761C71.2394 325.575 71.2881 325.393 71.3706 325.226L80.4597 306.633C80.5417 306.466 80.656 306.316 80.7959 306.193C80.9358 306.069 81.0986 305.975 81.275 305.914C81.4515 305.854 81.6381 305.829 81.8242 305.841C82.0104 305.852 82.1924 305.901 82.3599 305.983C82.5273 306.065 82.677 306.179 82.8003 306.319C82.9237 306.459 83.0183 306.622 83.0787 306.798C83.1391 306.975 83.1642 307.161 83.1525 307.347C83.1407 307.533 83.0924 307.715 83.0103 307.883L73.9212 326.476C73.8025 326.714 73.6202 326.914 73.3946 327.054C73.169 327.195 72.9088 327.27 72.643 327.271Z" fill="#D4B28C"/>
<path d="M85.4927 327.271C85.2757 327.272 85.0614 327.222 84.8678 327.123C84.5298 326.958 84.2712 326.666 84.1487 326.31C84.0262 325.954 84.0499 325.564 84.2146 325.226L93.3037 306.633C93.3858 306.466 93.5 306.316 93.6399 306.193C93.7798 306.069 93.9426 305.975 94.119 305.914C94.2955 305.854 94.4821 305.829 94.6683 305.841C94.8544 305.852 95.0364 305.901 95.2039 305.983C95.3713 306.065 95.521 306.179 95.6443 306.319C95.7677 306.459 95.8622 306.622 95.9226 306.798C95.983 306.975 96.0081 307.161 95.9963 307.347C95.9846 307.533 95.9364 307.715 95.8543 307.883L86.7652 326.476C86.6485 326.714 86.4675 326.915 86.2426 327.055C86.0177 327.196 85.7579 327.271 85.4927 327.271Z" fill="#D4B28C"/>
<path d="M98.3368 327.27C98.1215 327.271 97.9092 327.22 97.7177 327.122C97.5498 327.041 97.3996 326.927 97.2758 326.788C97.152 326.648 97.0571 326.486 96.9964 326.309C96.9356 326.133 96.9103 325.947 96.922 325.76C96.9337 325.574 96.982 325.392 97.0643 325.225L106.153 306.632C106.319 306.294 106.613 306.035 106.969 305.913C107.325 305.791 107.715 305.816 108.054 305.982C108.392 306.147 108.65 306.441 108.772 306.797C108.894 307.153 108.87 307.544 108.704 307.882L99.6149 326.475C99.4978 326.714 99.316 326.915 99.09 327.056C98.864 327.196 98.603 327.27 98.3368 327.27Z" fill="#D4B28C"/>
<path d="M111.187 327.271C110.971 327.272 110.759 327.222 110.567 327.123C110.399 327.042 110.249 326.929 110.125 326.789C110.002 326.65 109.907 326.487 109.846 326.311C109.785 326.134 109.76 325.948 109.772 325.762C109.784 325.575 109.832 325.393 109.914 325.226L119.003 306.633C119.085 306.466 119.2 306.316 119.339 306.193C119.479 306.069 119.642 305.975 119.819 305.914C119.995 305.854 120.182 305.829 120.368 305.841C120.554 305.852 120.736 305.901 120.903 305.983C121.071 306.065 121.221 306.179 121.344 306.319C121.467 306.459 121.562 306.622 121.622 306.798C121.683 306.975 121.708 307.161 121.696 307.347C121.684 307.533 121.636 307.715 121.554 307.883L112.465 326.476C112.348 326.715 112.166 326.916 111.94 327.057C111.714 327.197 111.453 327.272 111.187 327.271Z" fill="#D4B28C"/>
<path d="M456.141 327.27C455.875 327.269 455.615 327.195 455.389 327.054C455.163 326.914 454.981 326.713 454.863 326.475L445.774 307.882C445.608 307.543 445.584 307.152 445.706 306.795C445.829 306.438 446.088 306.145 446.427 305.979C446.766 305.813 447.157 305.789 447.514 305.912C447.871 306.034 448.164 306.293 448.33 306.632L457.419 325.225C457.502 325.392 457.55 325.574 457.563 325.76C457.575 325.946 457.55 326.132 457.49 326.308C457.429 326.485 457.335 326.647 457.212 326.787C457.089 326.927 456.939 327.041 456.772 327.123C456.576 327.221 456.36 327.272 456.141 327.27Z" fill="#D4B28C"/>
<path d="M443.291 327.271C443.026 327.27 442.766 327.195 442.54 327.054C442.314 326.914 442.132 326.714 442.013 326.476L432.924 307.883C432.842 307.715 432.794 307.533 432.782 307.347C432.77 307.161 432.795 306.975 432.856 306.798C432.916 306.622 433.011 306.459 433.134 306.319C433.257 306.179 433.407 306.065 433.575 305.983C433.742 305.901 433.924 305.852 434.11 305.841C434.296 305.829 434.483 305.854 434.659 305.914C434.836 305.975 434.999 306.069 435.139 306.193C435.278 306.316 435.393 306.466 435.475 306.633L444.564 325.226C444.646 325.393 444.695 325.575 444.707 325.761C444.719 325.946 444.694 326.133 444.634 326.309C444.574 326.486 444.48 326.648 444.357 326.788C444.233 326.928 444.084 327.042 443.916 327.123C443.723 327.221 443.508 327.272 443.291 327.271Z" fill="#D4B28C"/>
<path d="M430.442 327.271C430.177 327.271 429.917 327.196 429.692 327.055C429.467 326.915 429.286 326.714 429.169 326.476L420.08 307.883C419.998 307.715 419.95 307.533 419.938 307.347C419.926 307.161 419.951 306.975 420.012 306.798C420.072 306.622 420.167 306.459 420.29 306.319C420.413 306.179 420.563 306.065 420.731 305.983C420.898 305.901 421.08 305.852 421.266 305.841C421.452 305.829 421.639 305.854 421.815 305.914C421.992 305.975 422.155 306.069 422.295 306.193C422.435 306.316 422.549 306.466 422.631 306.633L431.72 325.226C431.885 325.564 431.908 325.954 431.786 326.31C431.663 326.666 431.405 326.958 431.067 327.123C430.873 327.222 430.659 327.272 430.442 327.271Z" fill="#D4B28C"/>
<path d="M417.598 327.271C417.331 327.272 417.071 327.197 416.845 327.057C416.619 326.916 416.437 326.715 416.319 326.476L407.23 307.883C407.148 307.715 407.1 307.533 407.088 307.347C407.077 307.161 407.102 306.975 407.162 306.798C407.223 306.622 407.317 306.459 407.44 306.319C407.564 306.179 407.713 306.065 407.881 305.983C408.048 305.901 408.23 305.852 408.416 305.841C408.603 305.829 408.789 305.854 408.966 305.914C409.142 305.975 409.305 306.069 409.445 306.193C409.585 306.316 409.699 306.466 409.781 306.633L418.87 325.226C418.952 325.393 419.001 325.575 419.013 325.762C419.024 325.948 418.999 326.134 418.938 326.311C418.877 326.487 418.783 326.65 418.659 326.789C418.535 326.929 418.385 327.042 418.217 327.123C418.025 327.221 417.813 327.272 417.598 327.271Z" fill="#D4B28C"/>
<path d="M404.748 327.271C404.482 327.272 404.221 327.197 403.995 327.057C403.769 326.916 403.587 326.715 403.47 326.476L394.352 307.877C394.27 307.71 394.222 307.528 394.21 307.342C394.199 307.156 394.223 306.969 394.284 306.792C394.344 306.616 394.439 306.453 394.562 306.313C394.686 306.173 394.835 306.059 395.003 305.977C395.17 305.895 395.352 305.847 395.538 305.835C395.724 305.823 395.911 305.848 396.088 305.909C396.264 305.969 396.427 306.064 396.567 306.187C396.707 306.31 396.821 306.46 396.903 306.628L405.992 325.22C406.074 325.388 406.123 325.57 406.134 325.756C406.146 325.942 406.121 326.129 406.06 326.305C405.999 326.481 405.904 326.644 405.781 326.783C405.657 326.923 405.507 327.037 405.339 327.118C405.156 327.214 404.954 327.266 404.748 327.271Z" fill="#D4B28C"/>
<path d="M391.898 327.271C391.632 327.27 391.372 327.195 391.146 327.055C390.92 326.915 390.738 326.714 390.62 326.476L381.531 307.883C381.449 307.715 381.401 307.533 381.389 307.347C381.377 307.161 381.402 306.975 381.463 306.798C381.523 306.622 381.618 306.459 381.741 306.319C381.864 306.179 382.014 306.065 382.181 305.983C382.349 305.901 382.531 305.852 382.717 305.841C382.903 305.829 383.09 305.854 383.266 305.914C383.443 305.975 383.605 306.069 383.745 306.193C383.885 306.316 383.999 306.466 384.082 306.633L393.171 325.226C393.253 325.393 393.302 325.575 393.314 325.761C393.326 325.946 393.301 326.133 393.241 326.309C393.181 326.486 393.087 326.648 392.963 326.788C392.84 326.928 392.69 327.042 392.523 327.123C392.329 327.221 392.115 327.272 391.898 327.271Z" fill="#D4B28C"/>
<path d="M379.049 327.271C378.783 327.27 378.523 327.195 378.297 327.054C378.071 326.914 377.889 326.714 377.77 326.476L368.681 307.883C368.599 307.715 368.551 307.533 368.539 307.347C368.528 307.161 368.552 306.975 368.613 306.798C368.673 306.622 368.768 306.459 368.891 306.319C369.015 306.179 369.164 306.065 369.332 305.983C369.499 305.901 369.681 305.852 369.867 305.841C370.053 305.829 370.24 305.854 370.417 305.914C370.593 305.975 370.756 306.069 370.896 306.193C371.036 306.316 371.15 306.466 371.232 306.633L380.321 325.226C380.403 325.393 380.452 325.575 380.464 325.761C380.476 325.946 380.452 326.133 380.391 326.309C380.331 326.486 380.237 326.648 380.114 326.788C379.99 326.928 379.841 327.042 379.673 327.123C379.48 327.221 379.266 327.272 379.049 327.271Z" fill="#D4B28C"/>
<path d="M366.199 327.271C365.934 327.271 365.674 327.196 365.449 327.055C365.224 326.915 365.043 326.714 364.926 326.476L355.837 307.883C355.755 307.715 355.707 307.533 355.695 307.347C355.683 307.161 355.709 306.975 355.769 306.798C355.829 306.622 355.924 306.459 356.047 306.319C356.17 306.179 356.32 306.065 356.488 305.983C356.655 305.901 356.837 305.852 357.023 305.841C357.209 305.829 357.396 305.854 357.572 305.914C357.749 305.975 357.912 306.069 358.052 306.193C358.191 306.316 358.306 306.466 358.388 306.633L367.477 325.226C367.642 325.564 367.665 325.954 367.543 326.31C367.42 326.666 367.162 326.958 366.824 327.123C366.63 327.222 366.416 327.272 366.199 327.271Z" fill="#D4B28C"/>
<path d="M190.983 183.68C190.607 183.68 190.245 183.53 189.979 183.264C189.713 182.998 189.563 182.636 189.563 182.26V171.688C189.563 171.311 189.713 170.95 189.979 170.684C190.245 170.417 190.607 170.268 190.983 170.268C191.36 170.268 191.721 170.417 191.988 170.684C192.254 170.95 192.403 171.311 192.403 171.688V182.26C192.403 182.636 192.254 182.998 191.988 183.264C191.721 183.53 191.36 183.68 190.983 183.68Z" fill="#D4B28C"/>
<path d="M284.391 183.68C284.014 183.68 283.653 183.53 283.387 183.264C283.121 182.998 282.971 182.636 282.971 182.26V171.688C282.971 171.311 283.121 170.95 283.387 170.684C283.653 170.417 284.014 170.268 284.391 170.268C284.768 170.268 285.129 170.417 285.395 170.684C285.662 170.95 285.811 171.311 285.811 171.688V182.26C285.811 182.636 285.662 182.998 285.395 183.264C285.129 183.53 284.768 183.68 284.391 183.68Z" fill="#D4B28C"/>
</g>
<defs>
<clipPath id="clip0_1966_3512">
<rect width="486" height="403" fill="white"/>
</clipPath>
</defs>
</svg>
