<svg width="438" height="412" viewBox="0 0 438 412" fill="none" xmlns="http://www.w3.org/2000/svg">
<g clip-path="url(#clip0_1966_4173)">
<path d="M465.955 412.005L6.34728 412.005C5.96518 412.005 5.59874 411.853 5.32856 411.583C5.05838 411.313 4.90659 410.947 4.90659 410.565C4.90659 410.183 5.05838 409.816 5.32856 409.546C5.59874 409.276 5.96518 409.125 6.34728 409.125L465.955 409.125C466.337 409.125 466.703 409.277 466.973 409.547C467.244 409.817 467.395 410.183 467.395 410.565C467.395 410.947 467.244 411.314 466.973 411.584C466.703 411.854 466.337 412.005 465.955 412.005Z" fill="#D4B28C"/>
<path d="M170.964 113.989H134.348L116.771 107.075V96.9239H188.518V107.075L170.964 113.989ZM134.889 111.108H170.417L185.636 105.128V99.8218H119.653V105.128L134.889 111.108Z" fill="#D4B28C"/>
<path d="M182.911 363.622H123.554V343.389H182.911V363.622ZM126.435 360.742H180.029V346.269H126.435V360.742Z" fill="#D4B28C"/>
<path d="M198.286 411.849H108.19V361.622H198.286V411.849ZM111.072 408.968H195.404V364.502H111.072V408.968Z" fill="#D4B28C"/>
<path d="M174.825 242.467C174.491 242.465 174.168 242.349 173.909 242.138C173.745 242.003 173.613 241.833 173.523 241.641C173.432 241.449 173.385 241.239 173.385 241.026V219.001C173.385 218.777 173.437 218.557 173.537 218.357C173.637 218.157 173.782 217.983 173.961 217.849C174.134 217.713 174.335 217.619 174.55 217.574C174.765 217.529 174.987 217.535 175.2 217.589C175.2 217.589 178.341 218.275 184.553 216.293C189.376 214.755 191.434 204.77 191.82 201.031C191.839 200.842 191.895 200.659 191.986 200.491C192.076 200.324 192.198 200.176 192.346 200.056C192.493 199.936 192.663 199.846 192.845 199.791C193.027 199.737 193.218 199.719 193.407 199.738C193.597 199.757 193.78 199.813 193.948 199.904C194.115 199.994 194.263 200.116 194.383 200.264C194.503 200.411 194.593 200.581 194.648 200.763C194.702 200.945 194.72 201.136 194.701 201.325C194.638 201.947 193.047 216.61 185.446 219.035C182.508 220.058 179.418 220.579 176.306 220.574V239.154C180.386 238.002 190.592 234.28 194.747 225.719C200.066 214.812 196.476 201.7 196.476 201.567C196.39 201.205 196.448 200.824 196.636 200.504C196.825 200.183 197.13 199.948 197.489 199.848C197.847 199.747 198.23 199.789 198.558 199.965C198.886 200.14 199.133 200.436 199.248 200.789C199.409 201.365 203.155 215.072 197.346 226.98C191.468 239.039 175.805 242.288 175.142 242.421C175.039 242.447 174.932 242.462 174.825 242.467Z" fill="#D4B28C"/>
<path d="M195.514 202.034C194.388 202.034 193.287 201.701 192.35 201.075C191.414 200.45 190.684 199.561 190.253 198.52C189.822 197.48 189.71 196.336 189.929 195.232C190.149 194.127 190.691 193.113 191.488 192.317C192.284 191.521 193.298 190.979 194.403 190.759C195.507 190.54 196.652 190.652 197.692 191.083C198.733 191.514 199.622 192.244 200.248 193.18C200.873 194.116 201.207 195.216 201.207 196.342C201.206 197.851 200.605 199.298 199.538 200.365C198.47 201.433 197.023 202.033 195.514 202.034ZM195.514 193.531C194.957 193.531 194.414 193.695 193.951 194.004C193.489 194.313 193.128 194.752 192.915 195.266C192.703 195.78 192.647 196.345 192.755 196.891C192.864 197.436 193.132 197.937 193.525 198.33C193.918 198.723 194.419 198.991 194.965 199.1C195.51 199.208 196.076 199.152 196.59 198.94C197.104 198.727 197.543 198.366 197.852 197.904C198.161 197.442 198.326 196.898 198.326 196.342C198.329 195.971 198.258 195.602 198.119 195.258C197.979 194.914 197.772 194.601 197.511 194.337C197.249 194.073 196.938 193.863 196.596 193.72C196.253 193.577 195.885 193.502 195.514 193.502V193.531Z" fill="#D4B28C"/>
<path d="M131.604 242.469C131.511 242.477 131.416 242.477 131.322 242.469C128.256 241.776 125.28 240.732 122.453 239.358C116.114 236.31 111.475 232.047 109.026 227.029C103.217 215.12 106.923 201.419 107.084 200.843C107.203 200.497 107.45 200.208 107.775 200.038C108.099 199.867 108.477 199.826 108.83 199.924C109.184 200.021 109.486 200.25 109.677 200.563C109.868 200.877 109.932 201.251 109.856 201.609C109.821 201.742 106.294 214.861 111.619 225.767C115.803 234.357 126.072 238.044 130.164 239.208V220.622C128.383 220.685 125.288 220.472 120.943 219.084C113.348 216.664 111.665 202.007 111.596 201.385C111.555 201.003 111.667 200.62 111.908 200.321C112.149 200.022 112.499 199.83 112.881 199.789C113.263 199.748 113.646 199.86 113.946 200.101C114.245 200.342 114.436 200.692 114.478 201.074C114.887 204.795 117.007 214.803 121.837 216.341C128.055 218.323 131.264 217.638 131.293 217.632C131.505 217.582 131.725 217.581 131.937 217.629C132.149 217.676 132.347 217.77 132.518 217.905C132.688 218.039 132.826 218.21 132.922 218.405C133.017 218.601 133.067 218.815 133.068 219.032V241.057C133.068 241.439 132.916 241.806 132.646 242.076C132.376 242.346 132.01 242.498 131.628 242.498L131.604 242.469Z" fill="#D4B28C"/>
<path d="M110.496 202.034C109.369 202.034 108.269 201.701 107.332 201.075C106.396 200.45 105.666 199.561 105.235 198.52C104.804 197.48 104.692 196.336 104.911 195.232C105.131 194.127 105.673 193.113 106.47 192.317C107.266 191.521 108.28 190.979 109.385 190.759C110.489 190.54 111.634 190.652 112.674 191.083C113.715 191.514 114.604 192.244 115.23 193.18C115.855 194.116 116.189 195.216 116.189 196.342C116.188 197.851 115.587 199.298 114.52 200.365C113.452 201.433 112.005 202.033 110.496 202.034ZM110.496 193.531C109.939 193.531 109.396 193.695 108.933 194.004C108.471 194.313 108.11 194.752 107.897 195.266C107.684 195.78 107.629 196.345 107.737 196.891C107.846 197.436 108.114 197.937 108.507 198.33C108.9 198.723 109.401 198.991 109.947 199.1C110.492 199.208 111.058 199.152 111.572 198.94C112.086 198.727 112.525 198.366 112.834 197.904C113.143 197.442 113.308 196.898 113.308 196.342C113.311 195.971 113.24 195.602 113.1 195.258C112.961 194.914 112.754 194.601 112.493 194.337C112.231 194.073 111.92 193.863 111.577 193.72C111.235 193.577 110.867 193.502 110.496 193.502V193.531Z" fill="#D4B28C"/>
<path d="M153.215 224.259C152.833 224.259 152.466 224.108 152.196 223.838C151.926 223.568 151.774 223.201 151.774 222.819V202.078C151.774 201.696 151.926 201.33 152.196 201.06C152.466 200.79 152.833 200.638 153.215 200.638C153.597 200.638 153.963 200.79 154.234 201.06C154.504 201.33 154.656 201.696 154.656 202.078V222.819C154.656 223.201 154.504 223.568 154.234 223.838C153.963 224.108 153.597 224.259 153.215 224.259Z" fill="#D4B28C"/>
<path d="M153.215 224.26C150.77 224.26 148.424 223.289 146.695 221.561C144.966 219.832 143.995 217.487 143.995 215.042C143.995 214.66 144.146 214.294 144.416 214.024C144.687 213.754 145.053 213.602 145.435 213.602C145.817 213.602 146.184 213.754 146.454 214.024C146.724 214.294 146.876 214.66 146.876 215.042C146.876 216.723 147.544 218.335 148.733 219.524C149.921 220.712 151.534 221.38 153.215 221.38C154.896 221.38 156.509 220.712 157.697 219.524C158.886 218.335 159.554 216.723 159.554 215.042C159.554 214.66 159.706 214.294 159.976 214.024C160.246 213.754 160.613 213.602 160.995 213.602C161.377 213.602 161.743 213.754 162.013 214.024C162.284 214.294 162.435 214.66 162.435 215.042C162.435 217.487 161.464 219.832 159.735 221.561C158.006 223.289 155.66 224.26 153.215 224.26Z" fill="#D4B28C"/>
<path d="M157.606 207.294H148.87C148.488 207.294 148.121 207.142 147.851 206.872C147.581 206.602 147.429 206.235 147.429 205.853C147.429 205.471 147.581 205.105 147.851 204.835C148.121 204.565 148.488 204.413 148.87 204.413H157.606C157.988 204.413 158.355 204.565 158.625 204.835C158.895 205.105 159.047 205.471 159.047 205.853C159.047 206.235 158.895 206.602 158.625 206.872C158.355 207.142 157.988 207.294 157.606 207.294Z" fill="#D4B28C"/>
<path d="M177.418 346.068C177.043 346.067 176.682 345.919 176.413 345.657C176.144 345.395 175.988 345.038 175.978 344.662L170.434 113.552C170.429 113.363 170.462 113.175 170.53 112.998C170.599 112.822 170.701 112.66 170.832 112.523C170.962 112.386 171.118 112.277 171.291 112.2C171.464 112.123 171.651 112.082 171.84 112.077C172.029 112.073 172.218 112.105 172.394 112.173C172.571 112.242 172.732 112.344 172.869 112.475C173.006 112.605 173.116 112.761 173.192 112.934C173.269 113.107 173.311 113.294 173.315 113.483L178.859 344.593C178.864 344.785 178.83 344.976 178.76 345.155C178.689 345.334 178.584 345.497 178.45 345.634C178.315 345.771 178.155 345.881 177.978 345.955C177.801 346.03 177.611 346.068 177.418 346.068Z" fill="#D4B28C"/>
<path d="M129.075 346.068H129.04C128.851 346.064 128.664 346.022 128.491 345.945C128.318 345.869 128.162 345.759 128.031 345.622C127.901 345.485 127.798 345.324 127.73 345.147C127.662 344.971 127.629 344.782 127.634 344.593L133.178 113.483C133.182 113.294 133.224 113.107 133.301 112.934C133.377 112.761 133.487 112.605 133.624 112.475C133.761 112.344 133.922 112.242 134.099 112.173C134.276 112.105 134.464 112.073 134.653 112.077C134.842 112.082 135.029 112.123 135.202 112.2C135.375 112.277 135.531 112.386 135.662 112.523C135.792 112.66 135.894 112.822 135.963 112.998C136.031 113.175 136.064 113.363 136.059 113.552L130.515 344.662C130.505 345.038 130.349 345.395 130.08 345.657C129.811 345.919 129.45 346.067 129.075 346.068Z" fill="#D4B28C"/>
<path d="M153.607 131.17C152.563 131.17 151.542 130.86 150.674 130.28C149.806 129.7 149.129 128.876 148.73 127.912C148.33 126.948 148.226 125.886 148.429 124.863C148.633 123.839 149.136 122.899 149.874 122.161C150.612 121.423 151.553 120.92 152.577 120.716C153.601 120.513 154.662 120.617 155.627 121.017C156.591 121.416 157.416 122.093 157.996 122.96C158.576 123.828 158.885 124.849 158.885 125.892C158.884 127.291 158.327 128.633 157.338 129.622C156.348 130.612 155.006 131.168 153.607 131.17ZM153.607 123.496C153.133 123.496 152.669 123.636 152.275 123.9C151.881 124.163 151.573 124.537 151.392 124.975C151.21 125.413 151.163 125.895 151.255 126.36C151.348 126.825 151.576 127.252 151.912 127.587C152.247 127.922 152.674 128.151 153.139 128.243C153.604 128.335 154.086 128.288 154.524 128.107C154.962 127.925 155.337 127.618 155.6 127.224C155.863 126.83 156.004 126.366 156.004 125.892C156.005 125.577 155.943 125.264 155.823 124.972C155.703 124.681 155.527 124.415 155.304 124.192C155.082 123.968 154.817 123.791 154.526 123.669C154.235 123.548 153.922 123.485 153.607 123.484V123.496Z" fill="#D4B28C"/>
<path d="M153.042 164.424C149.297 164.418 145.707 162.928 143.059 160.28C140.411 157.631 138.922 154.042 138.918 150.297C138.917 149.983 139.02 149.676 139.211 149.426C139.401 149.175 139.669 148.993 139.972 148.909C139.972 148.909 143.372 147.826 146.841 142.278C150.311 136.73 150.328 129.787 150.328 129.718C150.328 129.336 150.48 128.97 150.75 128.7C151.02 128.429 151.386 128.278 151.769 128.278C152.151 128.278 152.517 128.429 152.787 128.7C153.057 128.97 153.209 129.336 153.209 129.718C153.209 130.035 153.163 137.588 149.285 143.799C146.369 148.471 143.389 150.453 141.833 151.231C142.072 154.04 143.355 156.659 145.43 158.568C147.506 160.477 150.222 161.539 153.042 161.544C153.424 161.544 153.791 161.695 154.061 161.966C154.331 162.236 154.483 162.602 154.483 162.984C154.483 163.366 154.331 163.732 154.061 164.002C153.791 164.273 153.424 164.424 153.042 164.424Z" fill="#D4B28C"/>
<path d="M153.607 164.424C153.225 164.424 152.858 164.273 152.588 164.002C152.318 163.732 152.166 163.366 152.166 162.984C152.166 162.602 152.318 162.236 152.588 161.966C152.858 161.695 153.225 161.544 153.607 161.544C156.428 161.541 159.144 160.479 161.22 158.57C163.296 156.66 164.579 154.041 164.815 151.231C163.259 150.453 160.28 148.471 157.364 143.799C153.486 137.588 153.445 130.035 153.445 129.718C153.445 129.336 153.597 128.97 153.867 128.7C154.138 128.429 154.504 128.278 154.886 128.278C155.268 128.278 155.635 128.429 155.905 128.7C156.175 128.97 156.327 129.336 156.327 129.718C156.327 129.787 156.379 136.781 159.813 142.278C163.248 147.774 166.659 148.903 166.694 148.915C166.993 149.003 167.256 149.185 167.444 149.434C167.632 149.683 167.735 149.986 167.737 150.297C167.733 154.043 166.242 157.633 163.593 160.282C160.944 162.93 157.353 164.42 153.607 164.424Z" fill="#D4B28C"/>
<path d="M153.52 277.039C152.476 277.039 151.456 276.729 150.588 276.149C149.72 275.57 149.043 274.745 148.643 273.781C148.244 272.817 148.139 271.756 148.343 270.732C148.547 269.708 149.05 268.768 149.788 268.03C150.526 267.292 151.467 266.789 152.491 266.586C153.515 266.382 154.576 266.486 155.54 266.886C156.505 267.285 157.329 267.962 157.909 268.83C158.489 269.697 158.799 270.718 158.799 271.762C158.798 273.161 158.241 274.502 157.251 275.491C156.262 276.481 154.92 277.037 153.52 277.039ZM153.52 269.365C153.046 269.365 152.583 269.505 152.188 269.769C151.794 270.032 151.487 270.406 151.306 270.844C151.124 271.282 151.077 271.764 151.169 272.229C151.262 272.694 151.49 273.121 151.825 273.456C152.16 273.791 152.588 274.02 153.053 274.112C153.518 274.205 154 274.157 154.438 273.976C154.876 273.794 155.25 273.487 155.514 273.093C155.777 272.699 155.918 272.236 155.918 271.762C155.916 271.126 155.663 270.518 155.214 270.068C154.765 269.619 154.156 269.366 153.52 269.365Z" fill="#D4B28C"/>
<path d="M152.956 310.308C149.206 310.308 145.61 308.82 142.958 306.171C140.305 303.522 138.813 299.929 138.808 296.181C138.809 295.866 138.913 295.559 139.105 295.308C139.296 295.058 139.564 294.877 139.868 294.792C139.868 294.792 143.268 293.715 146.738 288.161C150.207 282.607 150.224 275.67 150.224 275.601C150.224 275.219 150.376 274.853 150.646 274.583C150.916 274.313 151.283 274.161 151.665 274.161C152.047 274.161 152.413 274.313 152.683 274.583C152.954 274.853 153.105 275.219 153.105 275.601C153.105 275.924 153.059 283.477 149.181 289.688C146.265 294.355 143.286 296.336 141.73 297.12C141.969 299.929 143.253 302.545 145.328 304.454C147.403 306.362 150.119 307.423 152.938 307.427C153.32 307.427 153.687 307.579 153.957 307.849C154.227 308.119 154.379 308.485 154.379 308.867C154.379 309.249 154.227 309.616 153.957 309.886C153.687 310.156 153.32 310.308 152.938 310.308H152.956Z" fill="#D4B28C"/>
<path d="M153.52 310.309C153.138 310.309 152.772 310.157 152.501 309.887C152.231 309.617 152.08 309.25 152.08 308.868C152.08 308.486 152.231 308.12 152.501 307.85C152.772 307.58 153.138 307.428 153.52 307.428C156.345 307.426 159.067 306.363 161.145 304.45C163.223 302.537 164.506 299.913 164.74 297.098C163.184 296.314 160.205 294.332 157.289 289.666C153.411 283.455 153.365 275.902 153.365 275.579C153.365 275.197 153.516 274.831 153.787 274.561C154.057 274.291 154.423 274.139 154.805 274.139C155.187 274.139 155.554 274.291 155.824 274.561C156.094 274.831 156.246 275.197 156.246 275.579C156.246 275.648 156.304 282.643 159.704 288.139C163.104 293.635 166.556 294.764 166.619 294.776C166.917 294.866 167.179 295.049 167.366 295.297C167.553 295.546 167.657 295.848 167.662 296.159C167.663 298.016 167.298 299.856 166.587 301.572C165.877 303.288 164.836 304.848 163.522 306.162C162.209 307.476 160.65 308.518 158.934 309.23C157.218 309.941 155.378 310.308 153.52 310.309Z" fill="#D4B28C"/>
<path d="M153.215 60.9917C149.746 60.9871 146.42 59.6071 143.968 57.1542C141.515 54.7013 140.136 51.3759 140.133 47.9077C140.133 47.5257 140.285 47.1594 140.555 46.8893C140.825 46.6192 141.192 46.4674 141.574 46.4674C141.956 46.4674 142.323 46.6192 142.593 46.8893C142.863 47.1594 143.015 47.5257 143.015 47.9077C143.015 50.6123 144.089 53.2061 146.002 55.1186C147.915 57.031 150.51 58.1054 153.215 58.1054C155.92 58.1054 158.514 57.031 160.427 55.1186C162.34 53.2061 163.415 50.6123 163.415 47.9077C163.415 47.5257 163.567 47.1594 163.837 46.8893C164.107 46.6192 164.473 46.4674 164.856 46.4674C165.238 46.4674 165.604 46.6192 165.874 46.8893C166.144 47.1594 166.296 47.5257 166.296 47.9077C166.293 51.3759 164.914 54.7013 162.462 57.1542C160.009 59.6071 156.684 60.9871 153.215 60.9917Z" fill="#D4B28C"/>
<path d="M164.879 47.9927H141.597C141.215 47.9927 140.849 47.841 140.578 47.5708C140.308 47.3007 140.156 46.9343 140.156 46.5523C140.156 46.1703 140.308 45.8039 140.578 45.5338C140.849 45.2637 141.215 45.112 141.597 45.112H164.879C165.261 45.112 165.627 45.2637 165.898 45.5338C166.168 45.8039 166.319 46.1703 166.319 46.5523C166.319 46.9343 166.168 47.3007 165.898 47.5708C165.627 47.841 165.261 47.9927 164.879 47.9927Z" fill="#D4B28C"/>
<path d="M164.884 84.8768C164.672 84.8779 164.462 84.832 164.27 84.7424C164.078 84.6527 163.908 84.5215 163.772 84.3582L140.485 56.3697C140.24 56.0755 140.123 55.6963 140.158 55.3155C140.193 54.9346 140.378 54.5833 140.672 54.3388C140.966 54.0943 141.346 53.9767 141.727 54.0118C142.108 54.0469 142.459 54.2319 142.704 54.526L165.991 82.5146C166.235 82.8088 166.352 83.1876 166.316 83.5679C166.28 83.9483 166.095 84.2988 165.801 84.5426C165.544 84.7588 165.22 84.8772 164.884 84.8768Z" fill="#D4B28C"/>
<path d="M143.574 84.8781C143.263 84.8781 142.96 84.7792 142.709 84.5958C142.404 84.3666 142.202 84.0253 142.148 83.6472C142.093 83.269 142.192 82.8849 142.421 82.5793L163.743 54.0376C163.973 53.732 164.314 53.53 164.692 53.476C165.071 53.4219 165.455 53.5203 165.76 53.7495C166.066 53.9787 166.268 54.32 166.322 54.6981C166.376 55.0763 166.278 55.4604 166.049 55.766L144.726 84.3077C144.592 84.4862 144.418 84.6308 144.218 84.7298C144.018 84.8289 143.797 84.8796 143.574 84.8781Z" fill="#D4B28C"/>
<path d="M141.597 83.9648C141.215 83.9648 140.849 83.8131 140.578 83.5429C140.308 83.2728 140.156 82.9064 140.156 82.5244V47.219C140.156 46.837 140.308 46.4706 140.578 46.2005C140.849 45.9304 141.215 45.7787 141.597 45.7787C141.979 45.7787 142.346 45.9304 142.616 46.2005C142.886 46.4706 143.038 46.837 143.038 47.219V82.5244C143.038 82.9064 142.886 83.2728 142.616 83.5429C142.346 83.8131 141.979 83.9648 141.597 83.9648Z" fill="#D4B28C"/>
<path d="M164.879 83.9648C164.497 83.9648 164.13 83.8131 163.86 83.5429C163.59 83.2728 163.438 82.9064 163.438 82.5244V47.219C163.438 46.837 163.59 46.4706 163.86 46.2005C164.13 45.9304 164.497 45.7787 164.879 45.7787C165.261 45.7787 165.627 45.9304 165.897 46.2005C166.168 46.4706 166.319 46.837 166.319 47.219V82.5244C166.32 82.7138 166.283 82.9015 166.211 83.0766C166.139 83.2517 166.033 83.4107 165.899 83.5446C165.765 83.6785 165.606 83.7846 165.431 83.8568C165.256 83.9289 165.068 83.9655 164.879 83.9648Z" fill="#D4B28C"/>
<path d="M181.452 364.503H124.977C124.595 364.503 124.229 364.351 123.959 364.081C123.688 363.811 123.537 363.445 123.537 363.063V344.805C123.537 344.423 123.688 344.057 123.959 343.786C124.229 343.516 124.595 343.365 124.977 343.365H181.452C181.835 343.365 182.201 343.516 182.471 343.786C182.741 344.057 182.893 344.423 182.893 344.805V363.063C182.893 363.445 182.741 363.811 182.471 364.081C182.201 364.351 181.835 364.503 181.452 364.503ZM126.429 361.622H180.023V346.245H126.429V361.622Z" fill="#D4B28C"/>
<path d="M196.845 411.85H109.631C109.249 411.85 108.882 411.699 108.612 411.428C108.342 411.158 108.19 410.792 108.19 410.41V363.086C108.19 362.704 108.342 362.338 108.612 362.068C108.882 361.798 109.249 361.646 109.631 361.646H196.845C197.227 361.646 197.593 361.798 197.864 362.068C198.134 362.338 198.286 362.704 198.286 363.086V410.41C198.286 410.792 198.134 411.158 197.864 411.428C197.593 411.699 197.227 411.85 196.845 411.85ZM111.072 408.97H195.404V364.504H111.072V408.97Z" fill="#D4B28C"/>
<path d="M171.927 410.277C171.545 410.277 171.178 410.125 170.908 409.855C170.638 409.585 170.486 409.218 170.486 408.836V364.503H135.99V408.865C135.99 409.247 135.838 409.614 135.568 409.884C135.298 410.154 134.931 410.305 134.549 410.305C134.167 410.305 133.801 410.154 133.531 409.884C133.26 409.614 133.109 409.247 133.109 408.865V363.114C133.109 362.732 133.26 362.366 133.531 362.096C133.801 361.826 134.167 361.674 134.549 361.674H171.927C172.309 361.674 172.675 361.826 172.945 362.096C173.216 362.366 173.367 362.732 173.367 363.114V408.865C173.36 409.242 173.205 409.601 172.935 409.865C172.666 410.129 172.304 410.277 171.927 410.277Z" fill="#D4B28C"/>
<path d="M161.179 364.503H145.297C144.915 364.503 144.548 364.351 144.278 364.081C144.008 363.811 143.856 363.445 143.856 363.063V344.805C143.856 344.423 144.008 344.057 144.278 343.786C144.548 343.516 144.915 343.365 145.297 343.365H161.179C161.561 343.365 161.928 343.516 162.198 343.786C162.468 344.057 162.62 344.423 162.62 344.805V363.063C162.62 363.445 162.468 363.811 162.198 364.081C161.928 364.351 161.561 364.503 161.179 364.503ZM146.738 361.622H159.738V346.245H146.738V361.622Z" fill="#D4B28C"/>
<path d="M149.844 42.399C149.489 42.3998 149.146 42.2695 148.881 42.0331C148.616 41.7967 148.448 41.4709 148.409 41.1181C148.369 40.7653 148.462 40.4104 148.668 40.1216C148.874 39.8327 149.18 39.6302 149.527 39.5529C156.165 38.0434 156.678 36.027 157.387 33.2154C157.825 31.487 158.378 29.3035 160.395 27.1718C160.626 26.9356 165.881 21.6294 174.802 22.9084C183.567 24.1644 189.509 23.3578 191.993 20.6039C192.248 20.3189 192.606 20.147 192.988 20.1259C193.37 20.1048 193.745 20.2364 194.03 20.4915C194.315 20.7467 194.487 21.1046 194.508 21.4866C194.529 21.8685 194.397 22.2432 194.142 22.5282C190.938 26.1002 184.294 27.1948 174.393 25.7775C166.976 24.7232 162.654 29.0039 162.47 29.1883C160.989 30.7611 160.597 32.3052 160.165 33.9414C159.197 37.7496 157.912 40.5842 150.155 42.3529C150.053 42.3786 149.949 42.3941 149.844 42.399Z" fill="#D4B28C"/>
<path d="M149.181 42.3979C149.026 42.3983 148.872 42.373 148.726 42.323C148.546 42.2637 148.38 42.1695 148.237 42.0458C148.093 41.9221 147.976 41.7712 147.892 41.602C147.807 41.4328 147.757 41.2486 147.743 41.0599C147.73 40.8711 147.755 40.6816 147.815 40.5024C147.886 40.2999 147.981 40.1065 148.098 39.9262C148.536 39.2061 149.705 37.2817 148.743 32.9204C147.435 26.9517 148.535 19.9114 151.365 16.178C157.208 8.46934 165.42 6.08415 175.119 9.2644C184.052 12.1969 186.57 9.84049 187.959 6.83883C189.964 2.54088 191.699 0.553245 193.278 0.74913C193.623 0.789529 193.941 0.955643 194.171 1.21576C194.269 1.33099 204.083 12.5599 194.119 22.5731C193.849 22.8368 193.485 22.9838 193.107 22.9822C192.729 22.9806 192.367 22.8306 192.099 22.5646C191.831 22.2986 191.678 21.9378 191.673 21.5601C191.668 21.1823 191.812 20.8178 192.073 20.5451C195.45 17.1459 196.482 13.2166 195.139 8.8553C194.613 7.1843 193.836 5.60305 192.834 4.16563C191.939 5.36969 191.188 6.67498 190.598 8.05454C187.993 13.643 182.951 14.8587 174.243 12.001C165.703 9.19527 158.787 11.1829 153.687 17.9122C151.382 20.983 150.455 27.1649 151.584 32.3155C152.788 37.8061 151.129 40.5369 150.581 41.4357L150.524 41.5337C150.41 41.794 150.222 42.015 149.983 42.1687C149.744 42.3225 149.465 42.4022 149.181 42.3979ZM150.547 41.4126L150.512 41.4991C150.501 41.4645 150.506 41.4357 150.518 41.4126H150.547Z" fill="#D4B28C"/>
<path d="M197.3 391.853C196.966 391.851 196.643 391.735 196.384 391.525C196.222 391.391 196.092 391.224 196.001 391.035C195.911 390.846 195.862 390.64 195.859 390.43V368.405C195.858 368.185 195.908 367.968 196.004 367.77C196.101 367.572 196.241 367.399 196.415 367.265C196.589 367.13 196.791 367.037 197.006 366.993C197.222 366.949 197.445 366.955 197.657 367.01C197.657 367.01 200.746 367.69 206.947 365.714C211.776 364.17 213.787 354.191 214.156 350.458C214.194 350.076 214.381 349.725 214.678 349.481C214.975 349.237 215.356 349.121 215.738 349.159C216.12 349.196 216.472 349.384 216.715 349.68C216.959 349.977 217.075 350.358 217.038 350.74C216.98 351.363 215.447 366.031 207.817 368.456C203.478 369.839 200.475 370.058 198.735 370.006V388.575C202.804 387.423 212.963 383.695 217.136 375.139C222.472 364.193 218.864 351.121 218.824 350.988C218.73 350.624 218.783 350.237 218.97 349.911C219.158 349.585 219.465 349.346 219.827 349.243C220.189 349.141 220.577 349.184 220.907 349.364C221.238 349.543 221.485 349.845 221.596 350.204C221.763 350.781 225.538 364.487 219.729 376.401C213.845 388.46 198.239 391.709 197.577 391.842C197.485 391.854 197.392 391.857 197.3 391.853Z" fill="#D4B28C"/>
<path d="M217.873 351.384C216.747 351.384 215.646 351.05 214.709 350.424C213.773 349.798 213.043 348.909 212.612 347.868C212.182 346.828 212.069 345.683 212.289 344.579C212.51 343.474 213.052 342.46 213.849 341.664C214.646 340.869 215.661 340.327 216.766 340.108C217.871 339.889 219.016 340.002 220.056 340.434C221.096 340.866 221.985 341.596 222.61 342.533C223.235 343.47 223.568 344.571 223.567 345.697C223.564 347.205 222.963 348.651 221.895 349.717C220.828 350.783 219.382 351.382 217.873 351.384ZM217.873 342.886C217.317 342.886 216.773 343.05 216.311 343.359C215.848 343.668 215.488 344.107 215.275 344.621C215.062 345.135 215.006 345.7 215.115 346.246C215.224 346.791 215.491 347.292 215.885 347.685C216.278 348.078 216.779 348.346 217.325 348.455C217.87 348.563 218.436 348.507 218.949 348.295C219.463 348.082 219.902 347.722 220.211 347.259C220.521 346.797 220.685 346.253 220.685 345.697C220.684 344.952 220.387 344.238 219.86 343.711C219.333 343.184 218.619 342.887 217.873 342.886Z" fill="#D4B28C"/>
<path d="M109.13 391.854C109.034 391.862 108.937 391.862 108.841 391.854C108.19 391.721 92.9016 388.466 87.0235 376.413C81.2089 364.493 85.1506 350.781 85.2947 350.205C85.4025 349.838 85.6515 349.529 85.9871 349.346C86.3226 349.163 86.7172 349.121 87.084 349.229C87.4509 349.336 87.7598 349.585 87.943 349.921C88.1262 350.256 88.1686 350.651 88.0608 351.017C88.0205 351.15 84.2747 364.268 89.588 375.152C93.7487 383.678 103.655 387.383 107.666 388.576V370.018C105.989 370.059 103.13 369.817 98.9121 368.468C91.2822 366.037 90.0778 351.346 90.0317 350.718C90.0027 350.336 90.1266 349.958 90.3763 349.667C90.6259 349.377 90.9808 349.197 91.3629 349.168C91.745 349.139 92.123 349.263 92.4137 349.512C92.7044 349.762 92.884 350.117 92.9131 350.499C93.1955 354.215 94.9935 364.194 99.7938 365.726C105.943 367.685 108.709 367.034 108.738 367.022C108.952 366.969 109.176 366.964 109.393 367.009C109.609 367.054 109.813 367.147 109.988 367.282C110.167 367.416 110.312 367.59 110.412 367.79C110.512 367.99 110.564 368.21 110.564 368.434V390.431C110.563 390.812 110.411 391.178 110.141 391.448C109.871 391.717 109.505 391.87 109.124 391.871L109.13 391.854Z" fill="#D4B28C"/>
<path d="M88.9656 351.384C87.839 351.385 86.7374 351.052 85.8003 350.427C84.8631 349.802 84.1324 348.913 83.7007 347.872C83.2691 346.832 83.1559 345.687 83.3754 344.582C83.5949 343.478 84.1373 342.463 84.9339 341.666C85.7305 340.87 86.7455 340.328 87.8505 340.108C88.9555 339.889 90.1008 340.002 91.1414 340.433C92.182 340.865 93.0712 341.596 93.6963 342.533C94.3215 343.469 94.6546 344.571 94.6535 345.697C94.6504 347.204 94.0502 348.649 92.9842 349.715C91.9182 350.78 90.4732 351.38 88.9656 351.384ZM88.9656 342.886C88.4092 342.884 87.8649 343.048 87.4017 343.357C86.9384 343.665 86.5771 344.104 86.3634 344.617C86.1496 345.131 86.0931 345.696 86.201 346.242C86.3088 346.788 86.5762 347.289 86.9693 347.683C87.3623 348.077 87.8634 348.345 88.4091 348.454C88.9548 348.563 89.5205 348.508 90.0347 348.295C90.5489 348.082 90.9885 347.722 91.2978 347.26C91.607 346.797 91.7721 346.253 91.7721 345.697C91.7706 344.953 91.4746 344.24 90.9488 343.713C90.4229 343.186 89.71 342.889 88.9656 342.886Z" fill="#D4B28C"/>
<path d="M173.5 99.28C173.118 99.28 172.751 99.1282 172.481 98.8581C172.211 98.588 172.059 98.2216 172.059 97.8396V84.8766H134.417V97.8396C134.417 98.2216 134.265 98.588 133.995 98.8581C133.725 99.1282 133.358 99.28 132.976 99.28C132.594 99.28 132.228 99.1282 131.957 98.8581C131.687 98.588 131.535 98.2216 131.535 97.8396V83.4363C131.535 83.0543 131.687 82.6879 131.957 82.4178C132.228 82.1477 132.594 81.996 132.976 81.996H173.5C173.882 81.996 174.249 82.1477 174.519 82.4178C174.789 82.6879 174.941 83.0543 174.941 83.4363V97.8396C174.941 98.2216 174.789 98.588 174.519 98.8581C174.249 99.1282 173.882 99.28 173.5 99.28Z" fill="#D4B28C"/>
<path d="M135.022 114.198C134.84 114.197 134.66 114.162 134.492 114.094L117.814 107.451C117.546 107.344 117.317 107.158 117.155 106.919C116.994 106.68 116.908 106.397 116.909 106.109V98.7919C116.909 98.4099 117.061 98.0435 117.331 97.7734C117.601 97.5033 117.968 97.3516 118.35 97.3516H157.825C158.207 97.3516 158.574 97.5033 158.844 97.7734C159.114 98.0435 159.266 98.4099 159.266 98.7919C159.266 99.1739 159.114 99.5402 158.844 99.8103C158.574 100.08 158.207 100.232 157.825 100.232H119.791V105.135L135.558 111.421C135.868 111.545 136.126 111.774 136.286 112.068C136.446 112.361 136.499 112.702 136.436 113.03C136.372 113.359 136.196 113.655 135.938 113.868C135.68 114.081 135.356 114.198 135.022 114.198Z" fill="#D4B28C"/>
<path d="M171.587 114.198C171.254 114.2 170.93 114.088 170.67 113.879C170.411 113.67 170.232 113.377 170.164 113.051C170.097 112.725 170.144 112.386 170.298 112.091C170.452 111.795 170.704 111.563 171.01 111.432L185.486 105.164V100.232H154.367C153.985 100.232 153.619 100.08 153.349 99.8103C153.079 99.5402 152.927 99.1739 152.927 98.7919C152.927 98.4099 153.079 98.0435 153.349 97.7734C153.619 97.5033 153.985 97.3516 154.367 97.3516H186.927C187.309 97.3516 187.676 97.5033 187.946 97.7734C188.216 98.0435 188.368 98.4099 188.368 98.7919V106.109C188.368 106.391 188.286 106.666 188.131 106.902C187.977 107.137 187.756 107.322 187.498 107.434L172.157 114.077C171.977 114.155 171.783 114.196 171.587 114.198Z" fill="#D4B28C"/>
<path d="M171.656 113.989H134.849C134.467 113.989 134.1 113.838 133.83 113.568C133.56 113.297 133.408 112.931 133.408 112.549C133.408 112.167 133.56 111.801 133.83 111.531C134.1 111.26 134.467 111.109 134.849 111.109H171.656C172.038 111.109 172.404 111.26 172.675 111.531C172.945 111.801 173.097 112.167 173.097 112.549C173.097 112.931 172.945 113.297 172.675 113.568C172.404 113.838 172.038 113.989 171.656 113.989Z" fill="#D4B28C"/>
<path d="M333.475 113.989H296.858L279.281 107.075V96.9239H351.028V107.075L333.475 113.989ZM297.4 111.108H332.927L348.147 105.128V99.8218H282.163V105.128L297.4 111.108Z" fill="#D4B28C"/>
<path d="M345.421 363.622H286.064V343.389H345.421V363.622ZM288.946 360.742H342.54V346.269H288.946V360.742Z" fill="#D4B28C"/>
<path d="M360.796 411.849H270.701V361.622H360.796V411.849ZM273.582 408.968H357.915V364.502H273.582V408.968Z" fill="#D4B28C"/>
<path d="M337.336 242.467C337.002 242.465 336.678 242.349 336.419 242.138C336.256 242.003 336.124 241.833 336.033 241.641C335.942 241.449 335.895 241.239 335.895 241.026V219.001C335.895 218.777 335.948 218.557 336.048 218.357C336.148 218.157 336.293 217.983 336.471 217.849C336.644 217.713 336.846 217.619 337.06 217.574C337.275 217.529 337.498 217.535 337.71 217.589C337.71 217.589 340.851 218.275 347.063 216.293C351.887 214.755 353.944 204.77 354.33 201.031C354.349 200.842 354.406 200.659 354.496 200.491C354.586 200.324 354.709 200.176 354.856 200.056C355.003 199.936 355.173 199.846 355.355 199.791C355.537 199.737 355.729 199.719 355.918 199.738C356.107 199.757 356.29 199.813 356.458 199.904C356.625 199.994 356.773 200.116 356.893 200.264C357.014 200.411 357.103 200.581 357.158 200.763C357.213 200.945 357.231 201.136 357.211 201.325C357.148 201.947 355.558 216.61 347.956 219.035C345.018 220.058 341.928 220.579 338.817 220.574V239.154C342.897 238.002 353.103 234.28 357.258 225.719C362.577 214.812 358.986 201.7 358.986 201.567C358.901 201.205 358.958 200.824 359.147 200.504C359.335 200.183 359.641 199.948 359.999 199.848C360.357 199.747 360.74 199.789 361.068 199.965C361.396 200.14 361.643 200.436 361.758 200.789C361.92 201.365 365.665 215.072 359.857 226.98C353.979 239.039 338.315 242.288 337.653 242.421C337.549 242.447 337.443 242.462 337.336 242.467Z" fill="#D4B28C"/>
<path d="M358.024 202.034C356.898 202.034 355.797 201.701 354.861 201.075C353.925 200.45 353.195 199.561 352.764 198.52C352.333 197.48 352.22 196.336 352.44 195.232C352.66 194.127 353.202 193.113 353.998 192.317C354.794 191.521 355.809 190.979 356.913 190.759C358.018 190.54 359.163 190.652 360.203 191.083C361.243 191.514 362.133 192.244 362.758 193.18C363.384 194.116 363.718 195.216 363.718 196.342C363.716 197.851 363.116 199.298 362.048 200.365C360.981 201.433 359.534 202.033 358.024 202.034ZM358.024 193.531C357.468 193.531 356.924 193.695 356.462 194.004C355.999 194.313 355.639 194.752 355.426 195.266C355.213 195.78 355.157 196.345 355.266 196.891C355.374 197.436 355.642 197.937 356.036 198.33C356.429 198.723 356.93 198.991 357.475 199.1C358.021 199.208 358.586 199.152 359.1 198.94C359.614 198.727 360.053 198.366 360.362 197.904C360.671 197.442 360.836 196.898 360.836 196.342C360.839 195.971 360.769 195.602 360.629 195.258C360.489 194.914 360.283 194.601 360.021 194.337C359.76 194.073 359.449 193.863 359.106 193.72C358.763 193.577 358.396 193.502 358.024 193.502V193.531Z" fill="#D4B28C"/>
<path d="M294.115 242.469C294.021 242.477 293.926 242.477 293.833 242.469C290.766 241.776 287.79 240.732 284.964 239.358C278.625 236.31 274.014 232.047 271.536 227.029C265.727 215.12 269.433 201.419 269.594 200.843C269.714 200.497 269.961 200.208 270.285 200.038C270.61 199.867 270.987 199.826 271.341 199.924C271.694 200.021 271.997 200.25 272.187 200.563C272.378 200.877 272.442 201.251 272.366 201.609C272.332 201.742 268.805 214.861 274.13 225.767C278.313 234.357 288.583 238.044 292.674 239.208V220.622C290.899 220.685 287.799 220.472 283.454 219.084C275.858 216.664 274.176 202.007 274.107 201.385C274.065 201.003 274.177 200.62 274.418 200.321C274.659 200.022 275.01 199.83 275.392 199.789C275.774 199.748 276.157 199.86 276.456 200.101C276.755 200.342 276.947 200.692 276.988 201.074C277.397 204.795 279.518 214.803 284.347 216.341C290.565 218.323 293.775 217.638 293.804 217.632C294.015 217.582 294.235 217.581 294.447 217.629C294.659 217.676 294.858 217.77 295.028 217.905C295.199 218.039 295.337 218.21 295.432 218.405C295.527 218.601 295.577 218.815 295.579 219.032V241.057C295.579 241.439 295.427 241.806 295.157 242.076C294.886 242.346 294.52 242.498 294.138 242.498L294.115 242.469Z" fill="#D4B28C"/>
<path d="M273.006 202.034C271.88 202.034 270.779 201.701 269.843 201.075C268.906 200.45 268.176 199.561 267.746 198.52C267.315 197.48 267.202 196.336 267.422 195.232C267.641 194.127 268.183 193.113 268.98 192.317C269.776 191.521 270.791 190.979 271.895 190.759C272.999 190.54 274.144 190.652 275.185 191.083C276.225 191.514 277.114 192.244 277.74 193.18C278.365 194.116 278.699 195.216 278.699 196.342C278.698 197.851 278.097 199.298 277.03 200.365C275.963 201.433 274.515 202.033 273.006 202.034ZM273.006 193.531C272.45 193.531 271.906 193.695 271.443 194.004C270.981 194.313 270.62 194.752 270.408 195.266C270.195 195.78 270.139 196.345 270.248 196.891C270.356 197.436 270.624 197.937 271.017 198.33C271.41 198.723 271.912 198.991 272.457 199.1C273.003 199.208 273.568 199.152 274.082 198.94C274.596 198.727 275.035 198.366 275.344 197.904C275.653 197.442 275.818 196.898 275.818 196.342C275.821 195.971 275.751 195.602 275.611 195.258C275.471 194.914 275.264 194.601 275.003 194.337C274.741 194.073 274.43 193.863 274.088 193.72C273.745 193.577 273.377 193.502 273.006 193.502V193.531Z" fill="#D4B28C"/>
<path d="M315.725 224.259C315.343 224.259 314.977 224.108 314.706 223.838C314.436 223.568 314.284 223.201 314.284 222.819V202.078C314.284 201.696 314.436 201.33 314.706 201.06C314.977 200.79 315.343 200.638 315.725 200.638C316.107 200.638 316.474 200.79 316.744 201.06C317.014 201.33 317.166 201.696 317.166 202.078V222.819C317.166 223.201 317.014 223.568 316.744 223.838C316.474 224.108 316.107 224.259 315.725 224.259Z" fill="#D4B28C"/>
<path d="M315.725 224.26C313.28 224.26 310.935 223.289 309.205 221.561C307.476 219.832 306.505 217.487 306.505 215.042C306.505 214.66 306.657 214.294 306.927 214.024C307.197 213.754 307.563 213.602 307.946 213.602C308.328 213.602 308.694 213.754 308.964 214.024C309.234 214.294 309.386 214.66 309.386 215.042C309.386 216.723 310.054 218.335 311.243 219.524C312.432 220.712 314.044 221.38 315.725 221.38C317.407 221.38 319.019 220.712 320.208 219.524C321.397 218.335 322.064 216.723 322.064 215.042C322.064 214.66 322.216 214.294 322.486 214.024C322.757 213.754 323.123 213.602 323.505 213.602C323.887 213.602 324.254 213.754 324.524 214.024C324.794 214.294 324.946 214.66 324.946 215.042C324.946 217.487 323.974 219.832 322.245 221.561C320.516 223.289 318.171 224.26 315.725 224.26Z" fill="#D4B28C"/>
<path d="M320.116 207.294H311.38C310.998 207.294 310.632 207.142 310.361 206.872C310.091 206.602 309.939 206.235 309.939 205.853C309.939 205.471 310.091 205.105 310.361 204.835C310.632 204.565 310.998 204.413 311.38 204.413H320.116C320.499 204.413 320.865 204.565 321.135 204.835C321.405 205.105 321.557 205.471 321.557 205.853C321.557 206.235 321.405 206.602 321.135 206.872C320.865 207.142 320.499 207.294 320.116 207.294Z" fill="#D4B28C"/>
<path d="M339.929 346.068C339.553 346.067 339.193 345.919 338.924 345.657C338.655 345.395 338.499 345.038 338.488 344.662L332.945 113.552C332.935 113.17 333.078 112.8 333.342 112.523C333.606 112.247 333.969 112.086 334.351 112.077C334.733 112.068 335.103 112.211 335.379 112.475C335.656 112.738 335.817 113.101 335.826 113.483L341.37 344.593C341.374 344.785 341.34 344.976 341.27 345.155C341.2 345.334 341.094 345.497 340.96 345.634C340.826 345.771 340.666 345.881 340.488 345.955C340.311 346.03 340.121 346.068 339.929 346.068Z" fill="#D4B28C"/>
<path d="M291.585 346.068H291.55C291.361 346.064 291.175 346.022 291.002 345.945C290.829 345.869 290.672 345.759 290.542 345.622C290.411 345.485 290.309 345.324 290.241 345.147C290.172 344.971 290.14 344.782 290.144 344.593L295.688 113.483C295.693 113.294 295.734 113.107 295.811 112.934C295.888 112.761 295.998 112.605 296.135 112.475C296.272 112.344 296.433 112.242 296.609 112.173C296.786 112.105 296.974 112.073 297.163 112.077C297.353 112.082 297.539 112.123 297.712 112.2C297.885 112.277 298.041 112.386 298.172 112.523C298.303 112.66 298.405 112.822 298.473 112.998C298.541 113.175 298.574 113.363 298.569 113.552L293.026 344.662C293.015 345.038 292.859 345.395 292.59 345.657C292.321 345.919 291.961 346.067 291.585 346.068Z" fill="#D4B28C"/>
<path d="M316.117 131.17C315.073 131.17 314.053 130.86 313.185 130.28C312.316 129.7 311.64 128.876 311.24 127.912C310.841 126.948 310.736 125.886 310.94 124.863C311.144 123.839 311.646 122.899 312.385 122.161C313.123 121.423 314.063 120.92 315.087 120.716C316.111 120.513 317.173 120.617 318.137 121.017C319.102 121.416 319.926 122.093 320.506 122.96C321.086 123.828 321.396 124.849 321.396 125.892C321.394 127.291 320.838 128.633 319.848 129.622C318.859 130.612 317.517 131.168 316.117 131.17ZM316.117 123.496C315.643 123.496 315.18 123.636 314.785 123.9C314.391 124.163 314.084 124.537 313.902 124.975C313.721 125.413 313.673 125.895 313.766 126.36C313.858 126.825 314.087 127.252 314.422 127.587C314.757 127.922 315.185 128.151 315.65 128.243C316.115 128.335 316.597 128.288 317.035 128.107C317.473 127.925 317.847 127.618 318.111 127.224C318.374 126.83 318.515 126.366 318.515 125.892C318.515 125.577 318.454 125.264 318.334 124.972C318.214 124.681 318.037 124.415 317.815 124.192C317.592 123.968 317.328 123.791 317.036 123.669C316.745 123.548 316.433 123.485 316.117 123.484V123.496Z" fill="#D4B28C"/>
<path d="M315.552 164.424C311.807 164.418 308.217 162.928 305.569 160.28C302.922 157.631 301.432 154.042 301.428 150.297C301.428 149.983 301.531 149.676 301.721 149.426C301.912 149.175 302.179 148.993 302.482 148.909C302.482 148.909 305.882 147.826 309.352 142.278C312.821 136.73 312.809 129.787 312.809 129.718C312.809 129.336 312.961 128.97 313.231 128.7C313.501 128.429 313.868 128.278 314.25 128.278C314.632 128.278 314.998 128.429 315.269 128.7C315.539 128.97 315.691 129.336 315.691 129.718C315.691 130.035 315.645 137.588 311.766 143.799C308.85 148.471 305.871 150.453 304.315 151.231C304.553 154.04 305.836 156.659 307.912 158.568C309.987 160.477 312.703 161.539 315.524 161.544C315.906 161.544 316.272 161.695 316.542 161.966C316.812 162.236 316.964 162.602 316.964 162.984C316.964 163.366 316.812 163.732 316.542 164.002C316.272 164.273 315.906 164.424 315.524 164.424H315.552Z" fill="#D4B28C"/>
<path d="M316.117 164.424C315.735 164.424 315.369 164.273 315.098 164.002C314.828 163.732 314.676 163.366 314.676 162.984C314.676 162.602 314.828 162.236 315.098 161.966C315.369 161.695 315.735 161.544 316.117 161.544C318.938 161.541 321.655 160.479 323.73 158.57C325.806 156.66 327.089 154.041 327.326 151.231C325.77 150.453 322.79 148.471 319.874 143.799C315.996 137.588 315.956 130.035 315.956 129.718C315.956 129.336 316.108 128.97 316.378 128.7C316.648 128.429 317.014 128.278 317.396 128.278C317.779 128.278 318.145 128.429 318.415 128.7C318.685 128.97 318.837 129.336 318.837 129.718C318.837 129.787 318.889 136.781 322.324 142.278C325.758 147.774 329.17 148.903 329.204 148.915C329.504 149.003 329.767 149.185 329.955 149.434C330.143 149.683 330.245 149.986 330.247 150.297C330.243 154.043 328.753 157.633 326.104 160.282C323.455 162.93 319.863 164.42 316.117 164.424Z" fill="#D4B28C"/>
<path d="M316.031 277.039C314.987 277.039 313.966 276.729 313.098 276.149C312.23 275.57 311.553 274.745 311.154 273.781C310.754 272.817 310.65 271.756 310.854 270.732C311.057 269.708 311.56 268.768 312.298 268.03C313.036 267.292 313.977 266.789 315.001 266.586C316.025 266.382 317.086 266.486 318.051 266.886C319.015 267.285 319.84 267.962 320.42 268.83C321 269.697 321.309 270.718 321.309 271.762C321.308 273.161 320.751 274.502 319.762 275.491C318.772 276.481 317.43 277.037 316.031 277.039ZM316.031 269.365C315.557 269.365 315.093 269.505 314.699 269.769C314.305 270.032 313.997 270.406 313.816 270.844C313.634 271.282 313.587 271.764 313.68 272.229C313.772 272.694 314 273.121 314.336 273.456C314.671 273.791 315.098 274.02 315.563 274.112C316.028 274.205 316.51 274.157 316.948 273.976C317.386 273.794 317.761 273.487 318.024 273.093C318.287 272.699 318.428 272.236 318.428 271.762C318.427 271.126 318.173 270.518 317.724 270.068C317.275 269.619 316.666 269.366 316.031 269.365Z" fill="#D4B28C"/>
<path d="M315.466 310.308C311.717 310.308 308.121 308.82 305.468 306.171C302.815 303.522 301.323 299.929 301.318 296.181C301.319 295.866 301.424 295.559 301.615 295.308C301.807 295.058 302.075 294.877 302.379 294.792C302.379 294.792 305.779 293.715 309.248 288.161C312.717 282.607 312.734 275.67 312.734 275.601C312.734 275.219 312.886 274.853 313.156 274.583C313.427 274.313 313.793 274.161 314.175 274.161C314.557 274.161 314.924 274.313 315.194 274.583C315.464 274.853 315.616 275.219 315.616 275.601C315.616 275.924 315.57 283.477 311.691 289.688C308.775 294.355 305.796 296.336 304.24 297.12C304.479 299.929 305.764 302.545 307.839 304.454C309.914 306.362 312.629 307.423 315.449 307.427C315.831 307.427 316.197 307.579 316.467 307.849C316.738 308.119 316.889 308.485 316.889 308.867C316.889 309.249 316.738 309.616 316.467 309.886C316.197 310.156 315.831 310.308 315.449 310.308H315.466Z" fill="#D4B28C"/>
<path d="M316.031 310.309C315.649 310.309 315.282 310.157 315.012 309.887C314.742 309.617 314.59 309.25 314.59 308.868C314.59 308.486 314.742 308.12 315.012 307.85C315.282 307.58 315.649 307.428 316.031 307.428C318.856 307.426 321.577 306.363 323.655 304.45C325.734 302.537 327.017 299.913 327.251 297.098C325.695 296.314 322.716 294.332 319.8 289.666C315.921 283.455 315.875 275.902 315.875 275.579C315.875 275.197 316.027 274.831 316.297 274.561C316.567 274.291 316.934 274.139 317.316 274.139C317.698 274.139 318.064 274.291 318.335 274.561C318.605 274.831 318.757 275.197 318.757 275.579C318.757 275.648 318.814 282.643 322.214 288.139C325.614 293.635 329.066 294.764 329.13 294.776C329.428 294.866 329.689 295.049 329.877 295.297C330.064 295.546 330.168 295.848 330.173 296.159C330.173 298.016 329.808 299.856 329.098 301.572C328.388 303.288 327.346 304.848 326.033 306.162C324.72 307.476 323.161 308.518 321.444 309.23C319.728 309.941 317.889 310.308 316.031 310.309Z" fill="#D4B28C"/>
<path d="M315.725 60.9917C312.256 60.9871 308.931 59.6071 306.478 57.1542C304.026 54.7013 302.647 51.3759 302.644 47.9077C302.644 47.5257 302.796 47.1594 303.066 46.8893C303.336 46.6192 303.702 46.4674 304.084 46.4674C304.467 46.4674 304.833 46.6192 305.103 46.8893C305.373 47.1594 305.525 47.5257 305.525 47.9077C305.525 50.6123 306.6 53.2061 308.513 55.1186C310.426 57.031 313.02 58.1054 315.725 58.1054C318.431 58.1054 321.025 57.031 322.938 55.1186C324.851 53.2061 325.925 50.6123 325.925 47.9077C325.925 47.5257 326.077 47.1594 326.347 46.8893C326.618 46.6192 326.984 46.4674 327.366 46.4674C327.748 46.4674 328.115 46.6192 328.385 46.8893C328.655 47.1594 328.807 47.5257 328.807 47.9077C328.804 51.3759 327.425 54.7013 324.972 57.1542C322.52 59.6071 319.194 60.9871 315.725 60.9917Z" fill="#D4B28C"/>
<path d="M327.389 47.9927H304.107C303.725 47.9927 303.359 47.841 303.089 47.5708C302.819 47.3007 302.667 46.9343 302.667 46.5523C302.667 46.1703 302.819 45.8039 303.089 45.5338C303.359 45.2637 303.725 45.112 304.107 45.112H327.389C327.771 45.112 328.138 45.2637 328.408 45.5338C328.678 45.8039 328.83 46.1703 328.83 46.5523C328.83 46.9343 328.678 47.3007 328.408 47.5708C328.138 47.841 327.771 47.9927 327.389 47.9927Z" fill="#D4B28C"/>
<path d="M327.395 84.8768C327.183 84.8779 326.973 84.832 326.781 84.7424C326.588 84.6527 326.418 84.5215 326.283 84.3582L302.995 56.3697C302.874 56.224 302.783 56.0559 302.727 55.8751C302.671 55.6942 302.651 55.504 302.668 55.3155C302.703 54.9346 302.888 54.5833 303.183 54.3388C303.477 54.0943 303.856 53.9767 304.237 54.0118C304.618 54.0469 304.97 54.2319 305.214 54.526L328.501 82.5146C328.745 82.8088 328.862 83.1876 328.826 83.5679C328.791 83.9483 328.605 84.2988 328.311 84.5426C328.055 84.7588 327.73 84.8772 327.395 84.8768Z" fill="#D4B28C"/>
<path d="M306.084 84.8781C305.773 84.8781 305.471 84.7792 305.22 84.5958C304.914 84.3666 304.712 84.0253 304.658 83.6472C304.604 83.269 304.702 82.8849 304.932 82.5793L326.254 54.0376C326.483 53.732 326.824 53.53 327.203 53.476C327.581 53.4219 327.965 53.5203 328.271 53.7495C328.577 53.9787 328.779 54.32 328.833 54.6981C328.887 55.0763 328.788 55.4604 328.559 55.766L307.237 84.3077C307.103 84.4862 306.928 84.6308 306.728 84.7298C306.528 84.8289 306.307 84.8796 306.084 84.8781Z" fill="#D4B28C"/>
<path d="M304.107 83.9648C303.725 83.9648 303.359 83.8131 303.089 83.5429C302.819 83.2728 302.667 82.9064 302.667 82.5244V47.219C302.667 46.837 302.819 46.4706 303.089 46.2005C303.359 45.9304 303.725 45.7787 304.107 45.7787C304.49 45.7787 304.856 45.9304 305.126 46.2005C305.396 46.4706 305.548 46.837 305.548 47.219V82.5244C305.548 82.9064 305.396 83.2728 305.126 83.5429C304.856 83.8131 304.49 83.9648 304.107 83.9648Z" fill="#D4B28C"/>
<path d="M327.389 83.9648C327.007 83.9648 326.641 83.8131 326.37 83.5429C326.1 83.2728 325.949 82.9064 325.949 82.5244V47.219C325.949 46.837 326.1 46.4706 326.37 46.2005C326.641 45.9304 327.007 45.7787 327.389 45.7787C327.771 45.7787 328.138 45.9304 328.408 46.2005C328.678 46.4706 328.83 46.837 328.83 47.219V82.5244C328.831 82.7138 328.794 82.9015 328.722 83.0766C328.65 83.2517 328.544 83.4107 328.41 83.5446C328.276 83.6785 328.117 83.7846 327.941 83.8568C327.766 83.9289 327.579 83.9655 327.389 83.9648Z" fill="#D4B28C"/>
<path d="M343.963 364.503H287.488C287.106 364.503 286.739 364.351 286.469 364.081C286.199 363.811 286.047 363.445 286.047 363.063V344.805C286.047 344.423 286.199 344.057 286.469 343.786C286.739 343.516 287.106 343.365 287.488 343.365H343.963C344.345 343.365 344.711 343.516 344.982 343.786C345.252 344.057 345.404 344.423 345.404 344.805V363.063C345.404 363.445 345.252 363.811 344.982 364.081C344.711 364.351 344.345 364.503 343.963 364.503ZM288.94 361.622H342.534V346.245H288.94V361.622Z" fill="#D4B28C"/>
<path d="M359.355 411.85H272.141C271.759 411.85 271.393 411.699 271.123 411.428C270.853 411.158 270.701 410.792 270.701 410.41V363.086C270.701 362.704 270.853 362.338 271.123 362.068C271.393 361.798 271.759 361.646 272.141 361.646H359.355C359.737 361.646 360.104 361.798 360.374 362.068C360.644 362.338 360.796 362.704 360.796 363.086V410.41C360.796 410.792 360.644 411.158 360.374 411.428C360.104 411.699 359.737 411.85 359.355 411.85ZM273.582 408.97H357.915V364.504H273.582V408.97Z" fill="#D4B28C"/>
<path d="M334.437 410.277C334.055 410.277 333.688 410.125 333.418 409.855C333.148 409.585 332.996 409.218 332.996 408.836V364.503H298.5V408.865C298.5 409.247 298.349 409.614 298.078 409.884C297.808 410.154 297.442 410.305 297.06 410.305C296.678 410.305 296.311 410.154 296.041 409.884C295.771 409.614 295.619 409.247 295.619 408.865V363.114C295.619 362.732 295.771 362.366 296.041 362.096C296.311 361.826 296.678 361.674 297.06 361.674H334.437C334.819 361.674 335.186 361.826 335.456 362.096C335.726 362.366 335.878 362.732 335.878 363.114V408.865C335.87 409.242 335.715 409.601 335.446 409.865C335.176 410.129 334.814 410.277 334.437 410.277Z" fill="#D4B28C"/>
<path d="M323.689 364.503H307.807C307.425 364.503 307.059 364.351 306.788 364.081C306.518 363.811 306.366 363.445 306.366 363.063V344.805C306.366 344.423 306.518 344.057 306.788 343.786C307.059 343.516 307.425 343.365 307.807 343.365H323.689C324.071 343.365 324.438 343.516 324.708 343.786C324.978 344.057 325.13 344.423 325.13 344.805V363.063C325.13 363.445 324.978 363.811 324.708 364.081C324.438 364.351 324.071 364.503 323.689 364.503ZM309.248 361.622H322.249V346.245H309.248V361.622Z" fill="#D4B28C"/>
<path d="M312.354 42.399C311.999 42.3998 311.656 42.2695 311.391 42.0331C311.127 41.7967 310.958 41.4709 310.919 41.1181C310.88 40.7653 310.972 40.4104 311.179 40.1216C311.385 39.8327 311.691 39.6302 312.037 39.5529C318.676 38.0434 319.189 36.027 319.898 33.2154C320.336 31.487 320.889 29.3035 322.906 27.1718C323.136 26.9356 328.392 21.6294 337.313 22.9084C346.078 24.1644 352.019 23.3578 354.503 20.6039C354.629 20.4628 354.782 20.3479 354.953 20.2659C355.124 20.1839 355.309 20.1363 355.498 20.1259C355.688 20.1155 355.877 20.1424 356.056 20.2051C356.234 20.2678 356.399 20.3652 356.54 20.4915C356.681 20.6179 356.796 20.7708 356.878 20.9415C356.96 21.1122 357.008 21.2974 357.018 21.4866C357.029 21.6757 357.002 21.8651 356.939 22.0438C356.876 22.2225 356.779 22.3871 356.653 22.5282C353.449 26.1002 346.804 27.1948 336.904 25.7775C329.487 24.7232 325.165 29.0039 324.98 29.1883C323.499 30.7611 323.107 32.3052 322.675 33.9414C321.707 37.7496 320.422 40.5842 312.665 42.3529C312.563 42.3786 312.459 42.3941 312.354 42.399Z" fill="#D4B28C"/>
<path d="M311.691 42.3979C311.536 42.3983 311.383 42.373 311.236 42.323C311.056 42.2637 310.89 42.1695 310.747 42.0458C310.604 41.9221 310.487 41.7712 310.402 41.602C310.317 41.4328 310.267 41.2486 310.254 41.0599C310.241 40.8711 310.265 40.6816 310.326 40.5024C310.397 40.2999 310.491 40.1065 310.608 39.9262C311.046 39.2061 312.216 37.2817 311.253 32.9204C309.945 26.9517 311.046 19.9114 313.875 16.178C319.719 8.46934 327.931 6.08415 337.63 9.2644C346.562 12.1969 349.08 9.84049 350.469 6.83883C352.475 2.54088 354.209 0.553245 355.788 0.74913C356.133 0.789529 356.451 0.955643 356.681 1.21576C356.779 1.33099 366.593 12.5599 356.629 22.5731C356.359 22.8368 355.996 22.9838 355.618 22.9822C355.24 22.9806 354.878 22.8306 354.609 22.5646C354.341 22.2986 354.188 21.9378 354.183 21.5601C354.178 21.1823 354.322 20.8178 354.584 20.5451C357.961 17.1459 358.992 13.2166 357.65 8.8553C357.123 7.1843 356.346 5.60305 355.344 4.16563C354.449 5.36969 353.698 6.67498 353.108 8.05454C350.504 13.643 345.461 14.8587 336.754 12.001C328.213 9.19527 321.298 11.1829 316.198 17.9122C313.893 20.983 312.965 27.1649 314.094 32.3155C315.299 37.8061 313.639 40.5369 313.092 41.4357L313.034 41.5337C312.92 41.794 312.732 42.015 312.493 42.1687C312.255 42.3225 311.975 42.4022 311.691 42.3979ZM313.057 41.4126L313.023 41.4991C313.011 41.4645 313.017 41.4357 313.028 41.4126H313.057Z" fill="#D4B28C"/>
<path d="M359.811 391.853C359.477 391.851 359.153 391.735 358.894 391.525C358.733 391.391 358.602 391.224 358.512 391.035C358.421 390.846 358.373 390.64 358.37 390.43V368.405C358.369 368.185 358.418 367.968 358.515 367.77C358.611 367.572 358.752 367.399 358.925 367.265C359.099 367.13 359.302 367.037 359.517 366.993C359.732 366.949 359.955 366.955 360.168 367.01C360.168 367.01 363.257 367.69 369.457 365.714C374.287 364.17 376.298 354.191 376.667 350.458C376.704 350.076 376.892 349.725 377.189 349.481C377.485 349.237 377.866 349.121 378.249 349.159C378.631 349.196 378.982 349.384 379.226 349.68C379.47 349.977 379.586 350.358 379.548 350.74C379.49 351.363 377.958 366.031 370.328 368.456C365.988 369.839 362.986 370.058 361.246 370.006V388.575C365.314 387.423 375.474 383.695 379.646 375.139C384.982 364.193 381.375 351.121 381.335 350.988C381.241 350.624 381.293 350.237 381.481 349.911C381.668 349.585 381.976 349.346 382.338 349.243C382.7 349.141 383.087 349.184 383.418 349.364C383.748 349.543 383.995 349.845 384.106 350.204C384.274 350.781 388.048 364.487 382.239 376.401C376.356 388.46 360.75 391.709 360.087 391.842C359.996 391.854 359.903 391.857 359.811 391.853Z" fill="#D4B28C"/>
<path d="M380.384 351.384C379.257 351.384 378.156 351.05 377.22 350.424C376.283 349.798 375.554 348.909 375.123 347.868C374.692 346.828 374.58 345.683 374.8 344.579C375.02 343.474 375.563 342.46 376.36 341.664C377.157 340.869 378.172 340.327 379.276 340.108C380.381 339.889 381.526 340.002 382.567 340.434C383.607 340.866 384.496 341.596 385.121 342.533C385.746 343.47 386.079 344.571 386.077 345.697C386.074 347.205 385.473 348.651 384.406 349.717C383.339 350.783 381.892 351.382 380.384 351.384ZM380.384 342.886C379.828 342.886 379.284 343.05 378.821 343.359C378.359 343.668 377.998 344.107 377.786 344.621C377.573 345.135 377.517 345.7 377.626 346.246C377.734 346.791 378.002 347.292 378.395 347.685C378.788 348.078 379.29 348.346 379.835 348.455C380.381 348.563 380.946 348.507 381.46 348.295C381.974 348.082 382.413 347.722 382.722 347.259C383.031 346.797 383.196 346.253 383.196 345.697C383.194 344.952 382.898 344.238 382.371 343.711C381.844 343.184 381.129 342.887 380.384 342.886Z" fill="#D4B28C"/>
<path d="M271.64 391.854C271.544 391.862 271.448 391.862 271.352 391.854C270.701 391.721 255.412 388.466 249.534 376.413C243.719 364.493 247.661 350.781 247.805 350.205C247.913 349.838 248.162 349.529 248.498 349.346C248.833 349.163 249.228 349.121 249.595 349.229C249.961 349.336 250.27 349.585 250.454 349.921C250.637 350.256 250.679 350.651 250.571 351.017C250.531 351.15 246.785 364.268 252.099 375.152C256.259 383.678 266.165 387.383 270.176 388.576V370.018C268.494 370.059 265.647 369.817 261.423 368.468C253.793 366.037 252.588 351.346 252.542 350.718C252.513 350.336 252.637 349.958 252.887 349.667C253.136 349.377 253.491 349.197 253.873 349.168C254.256 349.139 254.634 349.263 254.924 349.512C255.215 349.762 255.395 350.117 255.424 350.499C255.706 354.215 257.504 364.194 262.304 365.726C268.453 367.685 271.219 367.034 271.248 367.022C271.463 366.969 271.687 366.964 271.903 367.009C272.12 367.054 272.323 367.147 272.499 367.282C272.678 367.416 272.823 367.59 272.923 367.79C273.023 367.99 273.075 368.21 273.075 368.434V390.431C273.073 390.812 272.921 391.178 272.651 391.448C272.382 391.717 272.016 391.87 271.634 391.871L271.64 391.854Z" fill="#D4B28C"/>
<path d="M251.476 351.384C250.349 351.385 249.248 351.052 248.311 350.427C247.373 349.802 246.643 348.913 246.211 347.872C245.779 346.832 245.666 345.687 245.886 344.582C246.105 343.478 246.648 342.463 247.444 341.666C248.241 340.87 249.256 340.328 250.361 340.108C251.466 339.889 252.611 340.002 253.652 340.433C254.692 340.865 255.582 341.596 256.207 342.533C256.832 343.469 257.165 344.571 257.164 345.697C257.161 347.204 256.561 348.649 255.495 349.715C254.429 350.78 252.984 351.38 251.476 351.384ZM251.476 342.886C250.92 342.884 250.375 343.048 249.912 343.357C249.449 343.665 249.087 344.104 248.874 344.617C248.66 345.131 248.603 345.696 248.711 346.242C248.819 346.788 249.087 347.289 249.48 347.683C249.873 348.077 250.374 348.345 250.919 348.454C251.465 348.563 252.031 348.508 252.545 348.295C253.059 348.082 253.499 347.722 253.808 347.26C254.117 346.797 254.282 346.253 254.282 345.697C254.281 344.953 253.985 344.24 253.459 343.713C252.933 343.186 252.22 342.889 251.476 342.886Z" fill="#D4B28C"/>
<path d="M336.01 99.28C335.628 99.28 335.262 99.1282 334.992 98.8581C334.721 98.588 334.57 98.2216 334.57 97.8396V84.8766H296.927V97.8396C296.927 98.2216 296.775 98.588 296.505 98.8581C296.235 99.1282 295.868 99.28 295.486 99.28C295.104 99.28 294.738 99.1282 294.468 98.8581C294.197 98.588 294.046 98.2216 294.046 97.8396V83.4363C294.046 83.0543 294.197 82.6879 294.468 82.4178C294.738 82.1477 295.104 81.996 295.486 81.996H336.01C336.392 81.996 336.759 82.1477 337.029 82.4178C337.299 82.6879 337.451 83.0543 337.451 83.4363V97.8396C337.451 98.2216 337.299 98.588 337.029 98.8581C336.759 99.1282 336.392 99.28 336.01 99.28Z" fill="#D4B28C"/>
<path d="M297.532 114.198C297.35 114.197 297.17 114.162 297.002 114.094L280.325 107.451C280.057 107.344 279.827 107.158 279.666 106.919C279.504 106.68 279.419 106.397 279.42 106.109V98.7919C279.42 98.4099 279.572 98.0435 279.842 97.7734C280.112 97.5033 280.478 97.3516 280.86 97.3516H320.335C320.718 97.3516 321.084 97.5033 321.354 97.7734C321.624 98.0435 321.776 98.4099 321.776 98.7919C321.776 99.1739 321.624 99.5402 321.354 99.8103C321.084 100.08 320.718 100.232 320.335 100.232H282.301V105.135L298.068 111.421C298.379 111.545 298.636 111.774 298.796 112.068C298.956 112.361 299.009 112.702 298.946 113.03C298.883 113.359 298.707 113.655 298.449 113.868C298.191 114.081 297.867 114.198 297.532 114.198Z" fill="#D4B28C"/>
<path d="M334.097 114.198C333.764 114.2 333.44 114.088 333.181 113.879C332.922 113.67 332.743 113.377 332.675 113.051C332.607 112.725 332.654 112.386 332.808 112.091C332.963 111.795 333.214 111.563 333.521 111.432L347.997 105.164V100.232H316.878C316.496 100.232 316.129 100.08 315.859 99.8103C315.589 99.5402 315.437 99.1739 315.437 98.7919C315.437 98.4099 315.589 98.0435 315.859 97.7734C316.129 97.5033 316.496 97.3516 316.878 97.3516H349.438C349.82 97.3516 350.186 97.5033 350.456 97.7734C350.727 98.0435 350.878 98.4099 350.878 98.7919V106.109C350.879 106.391 350.797 106.666 350.642 106.902C350.487 107.137 350.267 107.322 350.008 107.434L334.668 114.077C334.488 114.155 334.294 114.196 334.097 114.198Z" fill="#D4B28C"/>
<path d="M334.166 113.989H297.359C296.977 113.989 296.611 113.838 296.341 113.568C296.07 113.297 295.919 112.931 295.919 112.549C295.919 112.167 296.07 111.801 296.341 111.531C296.611 111.26 296.977 111.109 297.359 111.109H334.166C334.548 111.109 334.915 111.26 335.185 111.531C335.455 111.801 335.607 112.167 335.607 112.549C335.607 112.931 335.455 113.297 335.185 113.568C334.915 113.838 334.548 113.989 334.166 113.989Z" fill="#D4B28C"/>
<path d="M242.593 131.118H211.203C210.821 131.118 210.455 130.966 210.184 130.696C209.914 130.426 209.763 130.06 209.763 129.678C209.763 129.296 209.914 128.929 210.184 128.659C210.455 128.389 210.821 128.237 211.203 128.237H242.593C242.975 128.237 243.342 128.389 243.612 128.659C243.882 128.929 244.034 129.296 244.034 129.678C244.034 130.06 243.882 130.426 243.612 130.696C243.342 130.966 242.975 131.118 242.593 131.118Z" fill="#D4B28C"/>
<path d="M259.962 146.749H254.522C254.14 146.749 253.773 146.597 253.503 146.327C253.233 146.057 253.081 145.691 253.081 145.309C253.081 144.927 253.233 144.56 253.503 144.29C253.773 144.02 254.14 143.868 254.522 143.868H259.962C260.344 143.868 260.711 144.02 260.981 144.29C261.251 144.56 261.403 144.927 261.403 145.309C261.403 145.691 261.251 146.057 260.981 146.327C260.711 146.597 260.344 146.749 259.962 146.749Z" fill="#D4B28C"/>
<path d="M247.826 146.749H233.574C233.192 146.749 232.826 146.597 232.556 146.327C232.285 146.057 232.134 145.691 232.134 145.309C232.134 144.927 232.285 144.56 232.556 144.29C232.826 144.02 233.192 143.868 233.574 143.868H247.803C248.185 143.868 248.551 144.02 248.821 144.29C249.092 144.56 249.243 144.927 249.243 145.309C249.243 145.691 249.092 146.057 248.821 146.327C248.551 146.597 248.185 146.749 247.803 146.749H247.826Z" fill="#D4B28C"/>
<path d="M89.3575 88.4952H43.0767C42.6946 88.4952 42.3281 88.3434 42.0579 88.0733C41.7877 87.8032 41.636 87.4368 41.636 87.0548C41.636 86.6728 41.7877 86.3064 42.0579 86.0363C42.3281 85.7662 42.6946 85.6145 43.0767 85.6145H89.3575C89.7396 85.6145 90.1061 85.7662 90.3763 86.0363C90.6464 86.3064 90.7982 86.6728 90.7982 87.0548C90.7982 87.4368 90.6464 87.8032 90.3763 88.0733C90.1061 88.3434 89.7396 88.4952 89.3575 88.4952Z" fill="#D4B28C"/>
<path d="M25.4828 104.12H17.461C17.0789 104.12 16.7125 103.968 16.4423 103.698C16.1721 103.428 16.0203 103.062 16.0203 102.68C16.0203 102.298 16.1721 101.931 16.4423 101.661C16.7125 101.391 17.0789 101.239 17.461 101.239H25.4828C25.8649 101.239 26.2313 101.391 26.5015 101.661C26.7717 101.931 26.9235 102.298 26.9235 102.68C26.9235 103.062 26.7717 103.428 26.5015 103.698C26.2313 103.968 25.8649 104.12 25.4828 104.12Z" fill="#D4B28C"/>
<path d="M56.3368 104.12H35.3545C34.9724 104.12 34.606 103.968 34.3358 103.698C34.0656 103.428 33.9138 103.062 33.9138 102.68C33.9138 102.298 34.0656 101.931 34.3358 101.661C34.606 101.391 34.9724 101.239 35.3545 101.239H56.3368C56.7189 101.239 57.0854 101.391 57.3556 101.661C57.6257 101.931 57.7775 102.298 57.7775 102.68C57.7775 103.062 57.6257 103.428 57.3556 103.698C57.0854 103.968 56.7189 104.12 56.3368 104.12Z" fill="#D4B28C"/>
<path d="M235.623 70.3296C235.241 70.3296 234.874 70.1779 234.604 69.9077C234.334 69.6376 234.182 69.2713 234.182 68.8893C234.181 68.0213 234.009 67.162 233.675 66.3608C233.341 65.5595 232.853 64.8321 232.237 64.2202C231.621 63.6084 230.89 63.1241 230.087 62.7953C229.284 62.4665 228.423 62.2995 227.555 62.3041C227.173 62.3041 226.806 62.1524 226.536 61.8822C226.266 61.6121 226.114 61.2457 226.114 60.8637C226.114 60.4817 226.266 60.1154 226.536 59.8453C226.806 59.5752 227.173 59.4234 227.555 59.4234C230.065 59.4265 232.472 60.4247 234.247 62.1993C236.021 63.9738 237.02 66.3797 237.023 68.8893C237.023 69.2644 236.877 69.6248 236.615 69.8937C236.354 70.1627 235.998 70.3191 235.623 70.3296Z" fill="#D4B28C"/>
<path d="M235.623 70.3296C235.241 70.3296 234.874 70.1779 234.604 69.9077C234.334 69.6376 234.182 69.2713 234.182 68.8893C234.185 66.3797 235.184 63.9738 236.959 62.1993C238.733 60.4247 241.14 59.4265 243.65 59.4234C244.032 59.4234 244.399 59.5752 244.669 59.8453C244.939 60.1154 245.091 60.4817 245.091 60.8637C245.091 61.2457 244.939 61.6121 244.669 61.8822C244.399 62.1524 244.032 62.3041 243.65 62.3041C241.904 62.3056 240.229 62.9999 238.994 64.2345C237.759 65.4692 237.065 67.1433 237.063 68.8893C237.063 69.2713 236.912 69.6376 236.641 69.9077C236.371 70.1779 236.005 70.3296 235.623 70.3296Z" fill="#D4B28C"/>
<path d="M8.84567 265.294C8.46358 265.294 8.09711 265.142 7.82693 264.872C7.55675 264.602 7.40498 264.236 7.40498 263.854C7.40345 262.108 6.70898 260.433 5.47404 259.199C4.23909 257.964 2.56458 257.27 0.818106 257.268C0.43601 257.268 0.0695667 257.117 -0.200616 256.847C-0.470799 256.576 -0.622589 256.21 -0.622589 255.828C-0.622589 255.446 -0.470799 255.08 -0.200616 254.81C0.0695667 254.539 0.43601 254.388 0.818106 254.388C3.3303 254.388 5.73978 255.385 7.51725 257.159C9.29472 258.934 10.2948 261.342 10.2979 263.854C10.2979 264.044 10.2602 264.232 10.1871 264.407C10.114 264.583 10.0069 264.742 9.87185 264.876C9.73685 265.01 9.57665 265.116 9.40053 265.188C9.2244 265.259 9.03583 265.295 8.84567 265.294Z" fill="#D4B28C"/>
<path d="M8.84582 265.294C8.46372 265.294 8.09726 265.142 7.82708 264.872C7.55689 264.602 7.40512 264.236 7.40512 263.854C7.40817 261.344 8.4067 258.938 10.1817 257.164C11.9567 255.389 14.3632 254.391 16.8734 254.388C17.2555 254.388 17.6219 254.539 17.8921 254.81C18.1623 255.08 18.3141 255.446 18.3141 255.828C18.3141 256.21 18.1623 256.576 17.8921 256.847C17.6219 257.117 17.2555 257.268 16.8734 257.268C15.1294 257.274 13.4587 257.971 12.2266 259.205C10.9944 260.438 10.3011 262.11 10.298 263.854C10.298 264.044 10.2604 264.232 10.1873 264.407C10.1141 264.583 10.007 264.742 9.87199 264.876C9.73699 265.01 9.5768 265.116 9.40067 265.188C9.22455 265.259 9.03598 265.295 8.84582 265.294Z" fill="#D4B28C"/>
<path d="M53.732 400.46C51.9195 400.456 50.1454 399.937 48.6154 398.966C47.0855 397.994 45.8624 396.608 45.0879 394.97C44.9955 394.799 44.9386 394.611 44.9206 394.418C44.9027 394.225 44.9241 394.03 44.9835 393.845C45.0429 393.66 45.139 393.489 45.2662 393.342C45.3934 393.195 45.549 393.076 45.7236 392.99C45.8982 392.905 46.0883 392.856 46.2823 392.846C46.4763 392.837 46.6703 392.866 46.8526 392.933C47.0349 393 47.2018 393.104 47.3432 393.237C47.4846 393.37 47.5976 393.53 47.6754 393.708C48.2356 394.911 49.1411 395.92 50.2766 396.607C51.4121 397.294 52.7263 397.628 54.0521 397.566C55.3779 397.505 56.6554 397.05 57.722 396.26C58.7887 395.471 59.5964 394.382 60.0423 393.132C60.165 392.813 60.3969 392.549 60.6966 392.385C60.9964 392.222 61.3445 392.17 61.6789 392.239C62.3256 392.372 62.9839 392.439 63.644 392.441C69.1705 392.441 73.6655 387.791 73.6655 382.07C73.6655 376.349 69.1705 371.7 63.644 371.7C63.1399 371.704 62.6369 371.748 62.1399 371.832C61.9465 371.861 61.7493 371.851 61.5601 371.801C61.3709 371.752 61.1937 371.664 61.0392 371.544C60.8792 371.429 60.7452 371.281 60.646 371.11C60.5467 370.939 60.4844 370.75 60.463 370.553C60.3199 368.855 59.5495 367.272 58.3019 366.111C57.0543 364.95 55.419 364.295 53.7148 364.274C52.8221 364.274 51.9388 364.455 51.1179 364.806C50.297 365.156 49.5553 365.669 48.9374 366.313C48.8061 366.451 48.6489 366.561 48.4749 366.637C48.3008 366.714 48.1133 366.755 47.9232 366.759C47.7331 366.762 47.5442 366.728 47.3673 366.659C47.1904 366.589 47.029 366.485 46.8925 366.353C46.756 366.221 46.647 366.063 46.5718 365.888C46.4967 365.713 46.4569 365.526 46.4546 365.335C46.4524 365.145 46.4878 364.957 46.5589 364.78C46.6299 364.604 46.7352 364.444 46.8686 364.308C47.7542 363.386 48.8173 362.652 49.9938 362.151C51.1703 361.65 52.436 361.392 53.7148 361.393C55.8834 361.405 57.9852 362.145 59.6832 363.493C61.3812 364.842 62.5772 366.722 63.0793 368.831H63.621C70.738 368.831 76.5239 374.771 76.5239 382.082C76.5239 389.393 70.7611 395.333 63.621 395.333C63.155 395.332 62.6894 395.305 62.2264 395.252C61.4258 396.817 60.2096 398.131 58.7111 399.049C57.2126 399.968 55.4899 400.456 53.732 400.46Z" fill="#D4B28C"/>
<path d="M53.876 410.484C53.4939 410.484 53.1274 410.332 52.8572 410.062C52.5871 409.792 52.4353 409.425 52.4353 409.043V392.86C52.4353 392.478 52.5871 392.111 52.8572 391.841C53.1274 391.571 53.4939 391.419 53.876 391.419C54.2581 391.419 54.6245 391.571 54.8947 391.841C55.1649 392.111 55.3167 392.478 55.3167 392.86V409.043C55.3167 409.425 55.1649 409.792 54.8947 410.062C54.6245 410.332 54.2581 410.484 53.876 410.484Z" fill="#D4B28C"/>
<path d="M36.1382 400.076C33.8517 400.085 31.6076 399.458 29.6582 398.263C27.7088 397.068 26.1312 395.354 25.1025 393.312C24.3898 393.406 23.6718 393.454 22.953 393.456C18.5207 393.456 14.2699 391.696 11.1358 388.562C8.00168 385.429 6.24094 381.179 6.24094 376.748C6.24094 372.317 8.00168 368.067 11.1358 364.934C14.2699 361.8 18.5207 360.04 22.953 360.04C23.3103 360.04 23.6733 360.04 24.0537 360.081C24.7264 357.108 26.4718 354.487 28.956 352.72C31.4401 350.954 34.4886 350.165 37.5183 350.504C40.5479 350.844 43.346 352.288 45.3773 354.561C47.4086 356.833 48.5304 359.775 48.5282 362.823C48.529 363.357 48.4925 363.89 48.4187 364.419C51.4565 364.743 54.2672 366.179 56.311 368.449C58.3548 370.719 59.4877 373.664 59.492 376.718C59.4963 379.772 58.3717 382.721 56.3342 384.996C54.2968 387.272 51.4901 388.715 48.4533 389.049C48.1148 392.078 46.6721 394.877 44.4005 396.911C42.1289 398.945 39.1877 400.072 36.1382 400.076ZM25.9612 390.281C26.2497 390.281 26.5317 390.368 26.7702 390.53C27.0087 390.693 27.1927 390.923 27.2981 391.192C28.1065 393.251 29.6082 394.963 31.5443 396.034C33.4804 397.105 35.7295 397.466 37.9038 397.057C40.0781 396.647 42.0412 395.492 43.4547 393.79C44.8683 392.088 45.6435 389.947 45.6468 387.735C45.6468 387.353 45.7986 386.987 46.0688 386.716C46.339 386.446 46.7054 386.295 47.0875 386.295C49.6094 386.295 52.0279 385.293 53.8111 383.51C55.5943 381.728 56.5961 379.31 56.5961 376.788C56.5961 374.267 55.5943 371.849 53.8111 370.066C52.0279 368.284 49.6094 367.282 47.0875 367.282H46.9262H46.7245C46.4944 367.286 46.2666 367.236 46.0594 367.136C45.8522 367.036 45.6714 366.889 45.5316 366.706C45.3913 366.528 45.2951 366.319 45.251 366.097C45.207 365.875 45.2162 365.645 45.278 365.427C45.5187 364.582 45.6427 363.708 45.6468 362.829C45.6362 360.402 44.6974 358.071 43.0228 356.313C41.3483 354.556 39.0648 353.506 36.6405 353.377C34.2162 353.249 31.8347 354.053 29.9841 355.624C28.1335 357.195 26.9539 359.414 26.6873 361.826C26.667 362.02 26.6074 362.208 26.5122 362.379C26.4169 362.549 26.2881 362.698 26.1334 362.817C25.9787 362.936 25.8015 363.023 25.6124 363.071C25.4233 363.12 25.2263 363.129 25.0334 363.099C24.3451 362.991 23.6498 362.933 22.953 362.927C19.2849 362.927 15.767 364.383 13.1732 366.977C10.5795 369.57 9.12233 373.087 9.12233 376.754C9.12233 380.421 10.5795 383.938 13.1732 386.531C15.767 389.124 19.2849 390.581 22.953 390.581C23.8682 390.579 24.7811 390.489 25.6788 390.31C25.7706 390.283 25.8655 390.268 25.9612 390.264V390.281Z" fill="#D4B28C"/>
<path d="M34.6687 411.06C34.2866 411.06 33.9201 410.909 33.6499 410.639C33.3798 410.368 33.228 410.002 33.228 409.62V388.205C33.228 387.823 33.3798 387.457 33.6499 387.187C33.9201 386.917 34.2866 386.765 34.6687 386.765C35.0508 386.765 35.4172 386.917 35.6874 387.187C35.9576 387.457 36.1094 387.823 36.1094 388.205V409.62C36.1101 409.809 36.0734 409.997 36.0012 410.172C35.9291 410.347 35.823 410.506 35.6891 410.64C35.5552 410.774 35.396 410.88 35.2209 410.952C35.0457 411.024 34.8581 411.061 34.6687 411.06Z" fill="#D4B28C"/>
<path d="M22.2615 385.821C19.8268 385.821 17.4918 384.854 15.7702 383.133C14.0486 381.412 13.0814 379.077 13.0814 376.643C13.0814 374.209 14.0486 371.875 15.7702 370.154C17.4918 368.432 19.8268 367.465 22.2615 367.465C22.6436 367.465 23.0101 367.617 23.2802 367.887C23.5504 368.157 23.7022 368.524 23.7022 368.906C23.7022 369.288 23.5504 369.654 23.2802 369.924C23.0101 370.194 22.6436 370.346 22.2615 370.346C21.4344 370.346 20.6153 370.509 19.8511 370.825C19.0869 371.142 18.3925 371.606 17.8076 372.19C17.2227 372.775 16.7588 373.469 16.4422 374.233C16.1257 374.997 15.9628 375.816 15.9628 376.643C15.9628 377.47 16.1257 378.289 16.4422 379.053C16.7588 379.817 17.2227 380.511 17.8076 381.096C18.3925 381.681 19.0869 382.145 19.8511 382.461C20.6153 382.777 21.4344 382.94 22.2615 382.94C22.6436 382.94 23.0101 383.092 23.2802 383.362C23.5504 383.632 23.7022 383.999 23.7022 384.381C23.7022 384.763 23.5504 385.129 23.2802 385.399C23.0101 385.669 22.6436 385.821 22.2615 385.821Z" fill="#D4B28C"/>
</g>
<defs>
<clipPath id="clip0_1966_4173">
<rect width="438" height="411.25" fill="white" transform="translate(0 0.75)"/>
</clipPath>
</defs>
</svg>
