<svg width="96" height="41" viewBox="0 0 96 41" fill="none" xmlns="http://www.w3.org/2000/svg">
<path d="M0.0292969 38.4379C2.64187 38.4298 5.22591 37.8984 7.62654 36.8756C10.0272 35.8528 12.195 34.3597 14 32.4856C21.7429 40.4231 34.2583 40.4231 41.996 32.4856C49.7389 40.4231 62.2543 40.4231 69.9919 32.4856C76.76 39.4279 87.1883 40.2974 94.8731 35.0942" stroke="#072348" stroke-width="1.98439" stroke-linejoin="round"/>
<path d="M66.0454 12.7093L57.2466 1.98511C57.2466 1.98511 46.4223 1.73892 21.4531 16.7392" stroke="#203C3F" stroke-width="1.98439" stroke-linejoin="round"/>
<path d="M47.8574 4.00903L54.8542 13.6141" stroke="#203C3F" stroke-width="1.98439" stroke-linejoin="round"/>
<path d="M6.58594 37.2849L2 24.5492L93.9878 18.5969C93.9878 18.5969 89.3807 30.1837 76.1825 36.7942" stroke="#203C3F" stroke-width="1.98439" stroke-linejoin="round"/>
<path d="M5.99805 24.5495L8.46171 19.7967C8.76839 19.2038 9.2206 18.6971 9.77665 18.3233C10.3327 17.9495 10.9747 17.7206 11.6433 17.6578L63.5104 12.8055C65.1644 12.6839 66.825 12.6775 68.48 12.7863C78.324 13.5179 87.4853 16.1283 93.9964 18.5972" stroke="#072348" stroke-width="1.98439" stroke-linejoin="round"/>
</svg>
