<svg width="70" height="84" viewBox="0 0 70 84" fill="none" xmlns="http://www.w3.org/2000/svg">
<path d="M31.5305 18.6476C30.095 18.0215 28.8555 17.0189 27.9432 15.746C27.0308 14.4732 26.4796 12.9773 26.3479 11.4167C26.2161 9.85621 26.5087 8.28909 27.1947 6.88124C27.8807 5.47339 28.9346 4.27721 30.2447 3.41928C31.5549 2.56136 33.0727 2.07363 34.6374 2.0077C36.2021 1.94178 37.7555 2.3001 39.1333 3.04477C40.511 3.78945 41.6617 4.89274 42.4637 6.2379C43.2657 7.58305 43.6891 9.12002 43.6891 10.6861C43.6891 14.2473 41.9512 17.3087 38.4787 18.6476V26.7482L48.8994 27.6164V31.9586L38.4787 32.8267V64.0064C38.4787 67.2604 41.4346 69.7502 44.6305 69.1419C51.4259 67.8458 57.4494 64.5566 60.5261 60.6469L55.8415 55.837L68 50.6266C68 78.4148 42.9187 73.1861 35 81.8889C27.0813 73.1861 2 78.4148 2 50.6266L14.1586 55.837L9.48006 60.6546C12.5613 64.5658 18.5848 67.8534 25.3756 69.1495C28.5715 69.7609 31.5274 67.268 31.5274 64.014V32.8344L21.1067 31.9662V27.624L31.5274 26.7559L31.5305 18.6476Z" stroke="#203C3F" stroke-width="3.39504" stroke-linecap="round" stroke-linejoin="round"/>
<path d="M36.5633 11.4172C36.9753 10.5512 36.6072 9.5153 35.7413 9.10338C34.8753 8.69146 33.8394 9.05953 33.4275 9.92547C33.0156 10.7914 33.3836 11.8273 34.2496 12.2393C35.1155 12.6512 36.1514 12.2831 36.5633 11.4172Z" stroke="#203C3F" stroke-width="3.39504" stroke-linecap="round" stroke-linejoin="round"/>
</svg>
