<svg width="133" height="56" viewBox="0 0 133 56" fill="none" xmlns="http://www.w3.org/2000/svg">
<path d="M0.0410156 53.2523C3.66052 53.2411 7.24049 52.5049 10.5664 51.0879C13.8922 49.6709 16.8955 47.6022 19.3963 45.0059C30.1235 56.0027 47.4625 56.0027 58.1823 45.0059C68.9095 56.0027 86.2485 56.0027 96.9684 45.0059C106.345 54.6238 120.793 55.8285 131.439 48.6199" stroke="#203C3F" stroke-width="3" stroke-linejoin="round"/>
<path d="M91.5005 17.6071L79.3105 2.74961C79.3105 2.74961 64.3144 2.40853 29.7217 23.1902" stroke="#203C3F" stroke-width="3" stroke-linejoin="round"/>
<path d="M66.3027 5.55396L75.9962 18.8609" stroke="#203C3F" stroke-width="3" stroke-linejoin="round"/>
<path d="M9.12394 51.6548L2.77051 34.0105L130.212 25.7642C130.212 25.7642 123.829 41.8167 105.544 50.975" stroke="#203C3F" stroke-width="3" stroke-linejoin="round"/>
<path d="M8.30957 34.0108L11.7228 27.4263C12.1477 26.6049 12.7742 25.9029 13.5445 25.385C14.3149 24.8671 15.2043 24.55 16.1307 24.463L87.9881 17.7406C90.2797 17.5721 92.5803 17.5632 94.873 17.714C108.511 18.7275 121.203 22.344 130.224 25.7644" stroke="#203C3F" stroke-width="3" stroke-linejoin="round"/>
</svg>
