<svg width="81" height="82" viewBox="0 0 81 82" fill="none" xmlns="http://www.w3.org/2000/svg">
<path d="M65.8225 23.6279C73.409 30.8164 68.2167 38.9377 61.7871 37.944" stroke="#203C3F" stroke-width="3" stroke-miterlimit="10"/>
<path d="M1.68555 42.1949C1.68555 21.2175 18.4553 1.68823 38.8163 1.68823C55.7598 1.68823 64.6118 6.84941 69.0883 13.5359C72.8459 19.1486 74.5198 25.9747 68.512 27.0812" stroke="#203C3F" stroke-width="3" stroke-miterlimit="10"/>
<path d="M59.0748 32.1018C65.9529 40.5067 58.408 44.7263 54.8508 44.7263C41.7808 44.7263 50.8318 21.27 27.0028 19.4774C13.6357 18.4719 1.68555 29.4967 1.68555 45.5714C1.68555 67.327 13.6714 77.8113 25.3141 77.6524C29.0271 77.6004 31.9486 76.4642 35.4136 74.269C41.9487 81.0209 52.5116 81.0209 59.0422 74.269C64.7544 80.1743 73.5558 80.9139 80.0418 76.4879" stroke="#203C3F" stroke-width="3" stroke-linejoin="round"/>
<path d="M42.7172 28.0584C41.4629 27.6209 40.1439 27.398 38.8155 27.3989C32.2909 27.3989 27.002 33.9904 27.002 40.515C27.002 53.0251 38.5377 68.0764 59.0696 64.1435H59.0458C64.758 70.0488 73.5595 70.7884 80.0455 66.3625" stroke="#203C3F" stroke-width="3" stroke-linejoin="round"/>
<path d="M37.142 22.37C27.136 18.5515 14.3438 28.5723 14.3438 43.037C14.3438 48.0571 15.5201 52.4845 17.4509 56.2169" stroke="#203C3F" stroke-width="3" stroke-linejoin="round"/>
</svg>
