<svg width="24" height="20" viewBox="0 0 24 20" fill="none" xmlns="http://www.w3.org/2000/svg">
<path fill-rule="evenodd" clip-rule="evenodd" d="M1 7.0404C1 3.69489 3.7821 1 7.16602 1C9.00288 1 10.6164 1.74705 11.9955 3.15349C13.3577 1.74454 14.9751 1 16.834 1C20.2179 1 23 3.69489 23 7.0404C23 8.85891 22.5182 10.2458 21.3313 11.6957C20.1855 13.0954 18.3732 14.5626 15.7573 16.5828L15.7551 16.5844L13.076 18.6366C12.4434 19.1211 11.5566 19.1211 10.924 18.6366L8.24486 16.5844L8.24273 16.5828C5.62679 14.5626 3.8145 13.0954 2.66869 11.6957C1.48178 10.2458 1 8.85891 1 7.0404Z" fill="white" stroke="#BF8D55" stroke-linecap="round"/>
</svg>
