<svg width="214" height="48" viewBox="0 0 214 48" fill="none" xmlns="http://www.w3.org/2000/svg">
<g clip-path="url(#clip0_1966_2878)">
<path d="M168.968 4.97185L168.168 6.99669L167.379 8.99916L164.515 16.4832H172.716L170.406 9.30679C170.165 8.59083 169.93 7.87485 169.69 7.15888C169.449 6.44292 169.231 5.71578 168.968 4.97185ZM170.182 -0.000748726L177.023 20.3651C177.257 20.9955 177.444 21.6424 177.583 22.3004C177.76 22.9522 177.832 23.6283 177.795 24.3029L180.122 24.163L180.05 25.7348H172.263L172.296 24.5546C173.203 24.5546 173.801 24.3308 174.087 23.9449C174.377 23.5549 174.505 23.068 174.445 22.5857C174.405 22.099 174.309 21.6185 174.159 21.1538L173.119 17.7977L163.956 18.0102L162.524 21.8417C162.305 22.4011 162.115 22.8653 161.964 23.2009C161.797 23.5831 161.61 23.9565 161.405 24.3196L164.09 24.1798L164.023 25.7516H157.472L157.511 24.5714C158.073 24.565 158.615 24.3677 159.05 24.012C159.533 23.5602 159.933 23.0261 160.23 22.4346C160.629 21.6788 160.988 20.9021 161.304 20.1078L169.399 0.0272118L170.182 -0.000748726ZM137.848 1.96256C137.211 1.90355 136.574 2.08072 136.058 2.46039C135.676 2.84657 135.437 3.3518 135.381 3.89232C135.27 4.61702 135.198 5.34702 135.163 6.07935L134.772 13.1495L135.846 13.2166C136.218 13.2433 136.592 13.2433 136.964 13.2166C138.16 13.1911 139.345 12.9739 140.472 12.5734C141.449 12.2267 142.298 11.5907 142.905 10.7499C143.57 9.77862 143.932 8.6322 143.946 7.45535C144.006 6.65706 143.907 5.85482 143.655 5.09489C143.463 4.43264 143.091 3.83646 142.581 3.37213C142.042 2.8609 141.375 2.50354 140.651 2.33732C139.74 2.07744 138.796 1.95121 137.848 1.96256ZM138.066 0.603355C139.943 0.54939 141.813 0.853099 143.577 1.4983C144.787 1.92622 145.82 2.74493 146.513 3.8252C147.123 4.82266 147.399 5.98834 147.302 7.15332C147.24 8.11835 147.009 9.065 146.62 9.95005C146.174 10.9614 145.47 11.8373 144.578 12.4895C143.317 13.3737 141.874 13.9626 140.354 14.2123L141.216 15.1743C141.406 15.3701 141.563 15.5323 141.68 15.6778C141.834 15.8467 141.966 16.0347 142.072 16.2371C142.217 16.4776 142.43 16.8468 142.721 17.3558L144.958 21.1873C145.344 21.8306 145.702 22.4179 146.032 22.9437C146.37 23.4231 146.795 23.8348 147.285 24.1574C147.857 24.4631 148.5 24.6117 149.148 24.5881L149.076 25.7684H144.673C144.094 25.2573 143.576 24.6811 143.129 24.0512C142.652 23.3352 142.174 22.5894 141.697 21.8138L139.515 17.9823C139.23 17.4565 138.906 16.8636 138.548 16.2315C138.217 15.6206 137.794 15.0641 137.295 14.5814C136.986 14.61 136.676 14.6231 136.366 14.6206H135.292C134.956 14.6206 134.732 14.5814 134.682 14.5814L134.324 21.5285C134.324 22.1718 134.263 22.7311 134.218 23.2065C134.173 23.682 134.123 24.04 134.072 24.3252C134.358 24.3252 134.632 24.2917 134.934 24.2917L135.79 24.219C136.081 24.219 136.349 24.1854 136.651 24.1854L136.578 25.7572H128.685L128.758 24.577C129.443 24.6076 130.116 24.3913 130.654 23.9673C131.032 23.539 131.258 22.9985 131.298 22.4291C131.37 21.7635 131.415 21.0083 131.443 20.1917L132.265 4.72574C132.265 4.25029 132.321 3.79723 132.372 3.36653C132.422 2.93583 132.467 2.50514 132.517 2.14716L131.191 2.21988L129.899 2.29259L130.011 0.715232L133.983 0.648113C135.318 0.592178 136.679 0.579122 138.066 0.608954V0.603355ZM106.796 1.53186C105.389 1.50697 104.002 1.86673 102.785 2.57227C101.628 3.27691 100.63 4.214 99.8536 5.32424C99.0554 6.49053 98.4387 7.77106 98.0243 9.1222C97.5988 10.4531 97.3818 11.8417 97.381 13.239C97.3661 14.5401 97.5108 15.8382 97.8118 17.1041C98.1139 18.4219 98.6077 19.6883 99.2774 20.8629C99.9464 22.0067 100.864 22.9855 101.963 23.7267C103.183 24.4964 104.604 24.8858 106.046 24.8454C107.475 24.8789 108.885 24.5211 110.124 23.8106C111.295 23.1193 112.298 22.1776 113.061 21.0531C113.854 19.8773 114.458 18.5844 114.851 17.2216C115.252 15.8858 115.457 14.4992 115.461 13.1047C115.465 11.7022 115.277 10.3057 114.902 8.9544C114.571 7.62664 114.013 6.36625 113.251 5.22916C112.567 4.13413 111.643 3.2085 110.549 2.52191C109.416 1.84623 108.115 1.50493 106.796 1.53745V1.53186ZM106.975 0.0999296C108.84 0.0532038 110.691 0.435965 112.384 1.21862C113.817 1.90928 115.077 2.91281 116.071 4.15519C117.043 5.33782 117.773 6.70069 118.219 8.16574C119.169 11.1313 119.118 14.327 118.073 17.2607C117.535 18.8786 116.724 20.3921 115.674 21.7355C113.841 23.8628 111.377 25.35 108.64 25.9808C105.904 26.6115 103.037 26.3529 100.458 25.2426C99.0225 24.5551 97.7533 23.5647 96.7377 22.3396C95.796 21.1769 95.0789 19.8492 94.6232 18.4241C94.1776 17.0126 93.9493 15.5414 93.9463 14.0612C93.9371 12.2681 94.24 10.4871 94.8414 8.79777C95.4378 7.16495 96.3353 5.65852 97.4873 4.35658C98.6726 3.00679 100.137 1.9302 101.779 1.20111C103.42 0.472016 105.201 0.107747 106.997 0.133489L106.975 0.0999296ZM73.4609 1.96256C72.8234 1.90355 72.1864 2.08072 71.6708 2.46039C71.2885 2.84657 71.0497 3.3518 70.994 3.89232C70.8831 4.61702 70.8102 5.34702 70.7758 6.07935L70.3842 13.1495L71.4583 13.2166C71.84 13.2446 72.2233 13.2446 72.605 13.2166C73.8011 13.1911 74.9853 12.9739 76.1125 12.5734C77.09 12.2267 77.9388 11.5907 78.5459 10.7499C79.2106 9.77862 79.5727 8.6322 79.5864 7.45535C79.6461 6.65706 79.5472 5.85482 79.2955 5.09489C79.1031 4.43264 78.7314 3.83646 78.2215 3.37213C77.6822 2.8609 77.0158 2.50354 76.2915 2.33732C75.3714 2.07474 74.4177 1.94849 73.4609 1.96256ZM73.6791 0.603355C75.556 0.54939 77.4259 0.853099 79.1892 1.4983C80.3995 1.92622 81.4328 2.74493 82.1261 3.8252C82.7358 4.82266 83.0121 5.98834 82.9149 7.15332C82.853 8.11835 82.622 9.065 82.2324 9.95005C81.787 10.9614 81.0827 11.8373 80.1906 12.4895C78.93 13.3737 77.4864 13.9626 75.967 14.2123L76.8285 15.1743C77.0187 15.3701 77.1754 15.5323 77.2928 15.6778C77.4467 15.8467 77.5783 16.0347 77.6844 16.2371C77.8299 16.4776 78.0424 16.8468 78.3333 17.3558L80.571 21.1873C80.9569 21.8306 81.3149 22.4179 81.645 22.9437C81.983 23.4231 82.4081 23.8348 82.8981 24.1574C83.47 24.4631 84.1128 24.6117 84.7609 24.5881L84.6882 25.7684H80.3248C79.7457 25.2573 79.2276 24.6811 78.7809 24.0512C78.3035 23.3352 77.8261 22.5894 77.3488 21.8138L75.1671 17.9823C74.8818 17.4565 74.5574 16.8636 74.1993 16.2315C73.8686 15.6206 73.446 15.0641 72.9463 14.5814C72.6376 14.61 72.3277 14.6231 72.0177 14.6206H70.9436C70.608 14.6206 70.3842 14.5814 70.3338 14.5814L69.9758 21.5285C69.9758 22.1718 69.9143 22.7311 69.8696 23.2065C69.8248 23.682 69.7744 24.04 69.7241 24.3252C70.0094 24.3252 70.2835 24.2917 70.5856 24.2917L71.4415 24.219C71.7324 24.219 72.0009 24.1854 72.303 24.1854L72.2302 25.7572H64.2979L64.3706 24.577C65.0554 24.6076 65.7284 24.3913 66.267 23.9673C66.6444 23.539 66.8705 22.9985 66.9103 22.4291C66.983 21.7635 67.0278 21.0083 67.0557 20.1917L67.8781 4.72574C67.8781 4.25029 67.934 3.79723 67.9844 3.36653C68.0347 2.93583 68.0795 2.50514 68.1298 2.14716L66.804 2.21988L65.5118 2.29259L65.6237 0.715232L69.5955 0.648113C70.9343 0.592178 72.2955 0.579122 73.6791 0.608954V0.603355ZM55.6271 0.670474L55.5936 1.85629C54.9051 1.80231 54.2227 2.01905 53.6916 2.46039C53.3141 2.89081 53.0881 3.4331 53.0483 4.00419C52.9755 4.64744 52.9196 5.39697 52.8693 6.24158L52.3714 14.6038C52.2842 16.1075 52.031 17.597 51.6162 19.045C51.2378 20.3968 50.6202 21.6699 49.7926 22.8038C48.9846 23.8946 47.9279 24.7768 46.7102 25.3768C45.2748 26.0349 43.7073 26.3545 42.1287 26.3109C40.5086 26.3589 38.8939 26.1028 37.3682 25.5558C36.1711 25.1081 35.1363 24.3111 34.3977 23.2681C33.6465 22.0577 33.1585 20.7026 32.9657 19.2911C32.7135 17.3928 32.6535 15.4738 32.7867 13.5634L33.251 5.01101C33.3013 4.39014 33.3349 3.86435 33.3573 3.43365C33.3796 3.00295 33.4635 2.56107 33.5363 2.108L32.2496 2.18072C31.8189 2.18072 31.3882 2.18072 30.9574 2.21988L31.0301 0.676073H38.9793L38.9065 1.86189C38.2812 1.80308 37.6565 1.9807 37.1556 2.35971C36.808 2.67575 36.5593 3.08565 36.4396 3.53993C36.353 3.90801 36.2931 4.28189 36.2606 4.65862L35.7907 13.7144C35.7214 15.0197 35.7457 16.3281 35.8634 17.6299C35.9666 18.7879 36.2576 19.9214 36.7249 20.986C37.1703 21.9784 37.9054 22.8129 38.8338 23.3799C40.0098 24.008 41.3341 24.3057 42.6657 24.2414C44.1687 24.3047 45.6514 23.8767 46.8892 23.022C48.0473 22.168 48.9411 21.0048 49.4681 19.6659C50.0986 18.0908 50.4616 16.4215 50.5422 14.7269L51.1855 4.65862C51.2358 4.18317 51.2694 3.73011 51.2973 3.29941C51.3253 2.86871 51.3924 2.43802 51.4372 2.08004L50.1506 2.15276L48.8583 2.22544L48.9311 0.648113L55.6271 0.670474ZM11.4957 4.96625L10.707 6.99669L9.91822 8.99916L7.05968 16.4664H15.2605L12.9334 9.30679L12.2174 7.15888C11.9936 6.43733 11.7587 5.71578 11.4957 4.97185V4.96625ZM12.7097 -0.00634766L19.5512 20.3595C19.7851 20.9899 19.9721 21.6368 20.1106 22.2948C20.2883 22.9466 20.3601 23.6227 20.3231 24.2973L22.6503 24.1574L22.5775 25.7292H14.7906L14.8242 24.549C15.7304 24.549 16.329 24.3252 16.6143 23.9393C16.9044 23.5493 17.0327 23.0624 16.9723 22.5801C16.9325 22.0934 16.8367 21.6129 16.687 21.1482L15.6465 17.7921L6.48349 18.0046L5.05142 21.8362C4.83325 22.3955 4.64305 22.8598 4.49201 23.1954C4.32475 23.5776 4.13804 23.951 3.93261 24.3141L6.61774 24.1742L6.55062 25.746H0L0.0391624 24.5658C0.60059 24.5594 1.14312 24.3621 1.57752 24.0064C2.0612 23.5546 2.46084 23.0205 2.75786 22.4291C3.15726 21.6732 3.51581 20.8965 3.83192 20.1022L11.9265 0.021647L12.7097 -0.00634766Z" fill="white"/>
<path d="M211.885 25.6574C211.714 25.6408 211.541 25.6625 211.379 25.7208C211.217 25.7791 211.07 25.8726 210.949 25.9946C210.827 26.1166 210.734 26.264 210.677 26.4263C210.619 26.5885 210.598 26.7615 210.616 26.9328C210.616 28.3199 212.395 28.8905 212.395 30.7083C212.395 32.5262 210.537 34.1763 208.596 34.1763C206.543 34.1763 205.799 32.8618 205.799 32.0788C205.801 32.0126 205.815 31.9473 205.842 31.8868C205.869 31.8262 205.908 31.7717 205.956 31.7264C206.661 31.167 207.147 30.6077 207.186 30.6077C207.202 30.6059 207.218 30.6077 207.233 30.613C207.249 30.6182 207.262 30.6268 207.273 30.6381C207.285 30.6494 207.293 30.6631 207.299 30.6781C207.304 30.6932 207.306 30.7093 207.304 30.7251C207.304 30.8034 207.147 30.8985 207.03 31.1726C206.949 31.3719 206.903 31.584 206.896 31.7991C206.901 32.0601 206.959 32.3173 207.066 32.5555C207.173 32.7936 207.327 33.0077 207.519 33.1852C207.71 33.3626 207.936 33.4997 208.181 33.5883C208.427 33.6769 208.688 33.7152 208.949 33.7008C209.219 33.6957 209.486 33.6375 209.733 33.5293C209.981 33.4211 210.205 33.2652 210.393 33.0704C210.58 32.8756 210.728 32.6458 210.826 32.394C210.925 32.1423 210.973 31.8736 210.968 31.6033C210.968 29.5281 209.497 29.3156 209.497 27.8053C209.497 26.1273 211.102 25.0478 212.534 25.0478C212.884 25.0116 213.234 25.1145 213.508 25.3344C213.783 25.5542 213.959 25.8732 214 26.2224C214 26.3958 213.905 26.4741 213.608 26.7817C213.474 26.9383 213.357 27.2124 213.318 27.2124C213.307 27.2133 213.296 27.2118 213.287 27.2082C213.277 27.2046 213.268 27.1988 213.26 27.1914C213.253 27.1839 213.247 27.1749 213.243 27.165C213.24 27.1552 213.238 27.1446 213.239 27.1341C213.239 27.0726 213.239 27.0334 213.239 26.9384C213.197 26.601 213.039 26.2887 212.792 26.055C212.545 25.8213 212.225 25.6808 211.885 25.6574ZM203.411 24.6618C206.347 24.192 206.325 24.1696 206.677 24.1696C206.756 24.1696 206.795 24.1696 206.795 24.2087C206.795 24.3654 206.235 24.6786 206.09 24.6786C205.698 24.6786 204.35 24.975 203.136 25.1708L200.765 29.4945C200.254 30.2877 199.99 31.214 200.004 32.157C199.987 32.3464 200.011 32.5373 200.076 32.7161C200.141 32.895 200.244 33.0573 200.379 33.1918C200.513 33.3263 200.675 33.4296 200.854 33.4943C201.033 33.5591 201.224 33.5838 201.413 33.5666C203.066 33.4885 204.643 32.8537 205.889 31.7655C206.893 30.973 207.788 30.0514 208.551 29.0247C208.63 28.9072 208.669 28.9072 208.708 28.9072C208.728 28.9086 208.748 28.9172 208.762 28.9316C208.776 28.9461 208.785 28.9652 208.786 28.9856C208.786 29.0247 208.786 29.0247 208.747 29.103C207.976 30.1703 207.068 31.1313 206.045 31.9613C204.596 33.1359 202.689 34.2322 200.641 34.2322C199.523 34.2322 198.404 33.8015 198.404 32.3137C198.503 31.1366 198.902 30.0045 199.562 29.0247L201.732 25.4561C200.77 25.6167 199.815 25.8258 198.874 26.0825C198.756 26.1608 198.717 26.2 198.678 26.2C198.658 26.1987 198.638 26.19 198.624 26.1756C198.61 26.1612 198.601 26.142 198.6 26.1217C198.6 26.0825 198.6 26.0434 198.717 25.9651L199.277 25.5344C200.165 25.2289 201.084 25.0189 202.018 24.9079L203.483 22.4803C204.289 21.1491 204.932 19.9968 204.932 19.2921C204.932 18.8222 204.697 18.6264 204.373 18.6264C204.147 18.6125 203.923 18.6672 203.729 18.7831C203.416 18.9565 203.276 19.2305 203.142 19.2305C203.008 19.2305 203.041 19.1522 203.041 19.1131C203.041 19.0739 203.472 18.7047 203.601 18.6264C204.064 18.2788 204.613 18.0624 205.189 18C205.328 18.0028 205.464 18.0332 205.59 18.0892C205.716 18.1453 205.83 18.2259 205.925 18.3263C206.02 18.4268 206.093 18.5452 206.142 18.6745C206.19 18.8038 206.213 18.9415 206.208 19.0795C206.208 20.3324 204.373 22.9558 203.411 24.6618ZM200.054 39.1097C200.132 38.9923 200.172 38.9923 200.211 38.9923C200.231 38.9936 200.25 39.0022 200.265 39.0166C200.279 39.0311 200.288 39.0503 200.289 39.0706C200.289 39.1097 200.289 39.1097 200.25 39.188C199.748 39.9964 199.052 40.6655 198.224 41.1338C197.396 41.602 196.463 41.8543 195.512 41.8673C194.827 41.8535 194.152 41.7047 193.526 41.4293C192.899 41.1539 192.333 40.7574 191.86 40.2626C191.387 39.7678 191.016 39.1844 190.769 38.546C190.522 37.9075 190.404 37.2266 190.421 36.5423C190.421 32.2577 194.197 28.4765 194.197 26.8153C194.197 26.3231 193.845 25.9315 193.078 25.9315C191.708 25.9315 189.722 27.4977 188.603 28.7282C187.837 29.5505 186.958 31.2341 185.806 33.7624C185.745 33.919 185.649 33.919 185.493 33.919C184.938 33.963 184.388 34.0547 183.848 34.1931C183.848 34.1931 183.77 34.1931 183.77 34.1148C183.77 34.0364 184.044 33.7456 184.374 33.1359C185.062 31.9445 186.198 29.9644 186.723 29.0247C187.881 26.7873 188.961 25.1093 190.287 22.5475C191.406 20.4499 194.242 15.5389 194.242 13.4637C194.242 12.6414 193.682 11.8584 193.011 11.8584C192.541 11.8584 191.775 12.0933 190.774 12.9155C190.578 13.0721 190.46 13.1896 190.404 13.1896C190.391 13.1904 190.377 13.1884 190.365 13.1836C190.352 13.1788 190.341 13.1714 190.331 13.1619C190.322 13.1524 190.314 13.141 190.31 13.1284C190.305 13.1158 190.303 13.1024 190.304 13.0889C190.304 13.033 190.444 12.9155 190.678 12.7197C191.576 11.9571 192.68 11.4799 193.85 11.3494C195.377 11.3494 195.73 12.6414 195.73 13.5028C195.73 15.1809 193.145 19.4151 191.462 22.5475C190.265 24.7849 189.677 25.9035 188.368 28.3814C189.56 27.3243 191.831 25.1708 194.281 25.1708C194.49 25.1657 194.699 25.2043 194.892 25.284C195.086 25.3637 195.261 25.4828 195.406 25.6338C195.552 25.7847 195.664 25.9643 195.736 26.1609C195.808 26.3576 195.838 26.5671 195.825 26.7761C195.825 28.594 191.736 32.2577 191.736 36.973C191.736 39.4398 192.989 41.3807 196.121 41.3807C196.915 41.3637 197.692 41.1467 198.379 40.7497C199.067 40.3527 199.643 39.7886 200.054 39.1097ZM184.279 31.9613C182.556 33.2142 180.794 34.3105 178.562 34.3105C177.074 34.3105 175.53 33.7232 175.53 31.7487C175.53 28.3591 180.089 25.0366 182.204 25.0366C182.346 25.0367 182.487 25.0666 182.617 25.1242C182.747 25.1818 182.864 25.266 182.959 25.3712C183.055 25.4765 183.128 25.6006 183.173 25.7356C183.218 25.8706 183.235 26.0135 183.222 26.1553C183.222 26.6251 183.182 26.7426 182.478 27.1341C182.306 27.2349 182.116 27.3014 181.918 27.3299C181.879 27.3299 181.84 27.3299 181.84 27.2907C181.89 27.1527 181.917 27.007 181.918 26.86C181.929 26.7314 181.914 26.6019 181.875 26.4791C181.835 26.3562 181.772 26.2424 181.688 26.1441C181.604 26.0458 181.502 25.9651 181.387 25.9066C181.272 25.848 181.146 25.8127 181.018 25.8029C179.373 25.8029 177.102 29.3659 177.102 31.6536C177.102 33.0073 177.784 33.768 179.233 33.768C180.799 33.768 182.59 32.8282 184.089 31.7319C185.093 30.9394 185.988 30.0179 186.751 28.9912C186.83 28.8737 186.869 28.8737 186.908 28.8737C186.928 28.875 186.948 28.8837 186.962 28.8981C186.976 28.9125 186.985 28.9317 186.986 28.952C186.986 28.9911 186.986 28.9912 186.947 29.0695C186.189 30.1464 185.292 31.1188 184.279 31.9613ZM170.764 30.63C172.291 29.103 172.744 28.2416 172.744 27.9284C172.746 27.9074 172.743 27.8863 172.736 27.8665C172.728 27.8467 172.717 27.8288 172.702 27.8139C172.687 27.799 172.669 27.7875 172.649 27.7802C172.629 27.773 172.608 27.7701 172.587 27.7718C172.235 27.7718 171.295 29.5337 170.764 30.63ZM170.16 25.5232C167.575 25.5232 165.186 29.2037 165.186 31.7879C165.186 32.4535 165.36 33.3149 166.261 33.3149C167.318 33.3149 168.414 32.571 168.985 32.1179C169.313 30.99 169.815 29.92 170.473 28.9464C170.943 28.2808 171.804 27.2236 172.431 26.9887C172.244 26.5436 171.928 26.1654 171.522 25.9038C171.117 25.6422 170.642 25.5095 170.16 25.5232ZM175.015 31.9613C173.762 32.9401 172.078 34.1148 170.473 34.1148C169.511 34.1148 168.946 33.6449 168.946 32.5094C167.614 33.3317 166.261 33.9805 165.282 33.9805C164.068 33.9805 163.559 33.0408 163.559 31.827C163.559 28.8905 167.183 25.0534 170.215 25.0534C170.782 25.0418 171.338 25.2175 171.795 25.5532C172.252 25.8889 172.585 26.3659 172.744 26.9104C172.94 26.9104 173.253 26.9887 173.253 27.3411C173.253 28.5549 172.274 29.4162 171.53 30.1993C171.295 30.4342 170.971 30.7587 170.629 31.0607C170.473 31.4735 170.393 31.9114 170.394 32.3528C170.394 32.7444 170.512 33.3708 171.513 33.3708C172.632 33.3708 173.784 32.5878 174.87 31.7655C175.874 30.973 176.769 30.0514 177.532 29.0247C177.611 28.9072 177.65 28.9072 177.689 28.9072C177.709 28.9086 177.729 28.9172 177.743 28.9316C177.757 28.9461 177.766 28.9652 177.767 28.9856C177.767 29.0247 177.767 29.0247 177.728 29.103C176.954 30.171 176.041 31.1321 175.015 31.9613ZM163.033 31.9613C161.285 33.3236 159.31 34.3652 157.198 35.0377C155.772 37.3869 153.842 40.4186 153.842 40.4186C151.274 44.5298 147.688 47.4664 144.265 47.4664C143.881 47.4879 143.497 47.4302 143.137 47.2969C142.777 47.1635 142.448 46.9574 142.17 46.6913C141.893 46.4253 141.674 46.105 141.526 45.7504C141.378 45.3958 141.305 45.0146 141.311 44.6305C141.311 40.2452 147.202 37.9743 150.726 36.7605C152.645 36.1116 154.351 35.6026 155.995 35.0824C156.426 34.3161 157.579 32.241 157.579 32.241C156.304 33.3637 154.678 34.0084 152.98 34.0644C152.253 34.0644 151.431 33.6113 151.431 32.7891C151.431 30.479 154.485 27.934 154.485 26.0769C154.485 25.7246 154.289 25.568 153.926 25.568C153.413 25.582 152.919 25.7604 152.516 26.0769C152.398 26.1553 152.359 26.1944 152.32 26.1944C152.3 26.1931 152.281 26.1844 152.266 26.17C152.252 26.1556 152.243 26.1364 152.242 26.1161C152.242 26.0769 152.242 26.0378 152.359 25.9595C152.976 25.466 153.726 25.1662 154.513 25.0981C154.689 25.0741 154.867 25.089 155.036 25.1418C155.206 25.1946 155.361 25.2839 155.492 25.4035C155.623 25.5231 155.726 25.6699 155.793 25.8337C155.861 25.9974 155.892 26.174 155.884 26.351C155.884 27.6431 152.93 30.9153 152.93 32.4032C152.912 32.5367 152.925 32.6726 152.967 32.8004C153.01 32.9282 153.081 33.0446 153.176 33.1406C153.27 33.2367 153.385 33.3099 153.512 33.3547C153.639 33.3994 153.775 33.4145 153.909 33.3988C155.028 33.3988 156.902 32.4591 157.881 31.6369L159.995 27.5648C160.661 26.3119 160.778 25.6854 161.405 25.6071C161.796 25.568 162.305 25.5288 162.524 25.5288C162.554 25.5302 162.583 25.543 162.605 25.5647C162.627 25.5864 162.64 25.6156 162.641 25.6463C162.641 25.842 161.489 27.6431 160.879 28.7003C160.879 28.7003 158.764 32.4591 157.495 34.5734C159.423 33.9276 161.239 32.9839 162.876 31.7767C163.88 30.9842 164.776 30.0626 165.539 29.0359C165.617 28.9184 165.656 28.9184 165.696 28.9184C165.716 28.9197 165.735 28.9284 165.749 28.9428C165.764 28.9573 165.772 28.9764 165.774 28.9967C165.774 29.0359 165.774 29.0359 165.735 29.1142C164.963 30.1775 164.054 31.1348 163.033 31.9613ZM155.76 35.5467C154.082 36.106 152.337 36.6039 150.849 37.1296C146.793 38.5616 142.799 41.2241 142.799 44.4011C142.799 45.7324 143.358 46.7896 145.132 46.7896C147.638 46.7896 150.552 44.7927 152.963 40.5472C152.93 40.5193 154.496 37.7617 155.749 35.5243L155.76 35.5467Z" fill="white"/>
</g>
<defs>
<clipPath id="clip0_1966_2878">
<rect width="214" height="47.4662" fill="white"/>
</clipPath>
</defs>
</svg>
