<svg width="165" height="37" viewBox="0 0 165 37" fill="none" xmlns="http://www.w3.org/2000/svg">
<g clip-path="url(#clip0_1966_380)">
<path d="M130.279 3.83345L129.662 5.39465L129.054 6.93861L126.846 12.709H133.169L131.388 7.17581C131.202 6.62378 131.021 6.07174 130.835 5.51971C130.65 4.96768 130.482 4.40704 130.279 3.83345ZM131.215 -0.00056588L136.49 15.7021C136.67 16.1881 136.815 16.6869 136.921 17.1943C137.058 17.6968 137.114 18.2181 137.085 18.7382L138.879 18.6304L138.823 19.8423H132.82L132.845 18.9323C133.544 18.9323 134.006 18.7598 134.226 18.4622C134.449 18.1615 134.548 17.7861 134.502 17.4142C134.471 17.039 134.397 16.6685 134.282 16.3101L133.479 13.7225L126.414 13.8864L125.31 16.8406C125.142 17.2719 124.995 17.6298 124.879 17.8886C124.75 18.1833 124.606 18.4712 124.448 18.7511L126.518 18.6433L126.466 19.8552H121.416L121.446 18.9452C121.879 18.9403 122.297 18.7882 122.632 18.5139C123.005 18.1656 123.313 17.7538 123.542 17.2978C123.85 16.715 124.126 16.1161 124.37 15.5037L130.611 0.0209925L131.215 -0.00056588ZM106.285 1.5132C105.793 1.4677 105.302 1.6043 104.905 1.89704C104.61 2.19479 104.426 2.58434 104.383 3.0011C104.297 3.55986 104.241 4.12272 104.215 4.68736L103.913 10.1386L104.741 10.1904C105.028 10.211 105.316 10.211 105.603 10.1904C106.526 10.1707 107.439 10.0032 108.308 9.69442C109.061 9.42713 109.716 8.93676 110.184 8.2885C110.697 7.5396 110.976 6.65568 110.986 5.7483C111.032 5.13279 110.956 4.51424 110.762 3.92832C110.614 3.4177 110.327 2.95803 109.934 2.60002C109.518 2.20584 109.004 1.93031 108.446 1.80215C107.743 1.60178 107.015 1.50445 106.285 1.5132ZM106.453 0.465215C107.9 0.423607 109.342 0.657775 110.702 1.15524C111.635 1.48518 112.431 2.11643 112.966 2.94935C113.436 3.71842 113.649 4.61719 113.574 5.51542C113.527 6.25949 113.348 6.98938 113.048 7.67178C112.705 8.45154 112.162 9.12691 111.474 9.62975C110.502 10.3115 109.389 10.7655 108.217 10.9581L108.881 11.6998C109.028 11.8508 109.149 11.9759 109.239 12.088C109.358 12.2183 109.46 12.3632 109.541 12.5193C109.653 12.7047 109.817 12.9894 110.042 13.3818L111.767 16.336C112.065 16.832 112.341 17.2848 112.595 17.6902C112.856 18.0599 113.183 18.3773 113.561 18.6261C114.002 18.8617 114.498 18.9763 114.998 18.9582L114.941 19.8681H111.547C111.1 19.4741 110.701 19.0299 110.357 18.5441C109.988 17.9921 109.62 17.4171 109.252 16.819L107.57 13.8648C107.35 13.4594 107.1 13.0023 106.824 12.515C106.569 12.0439 106.243 11.6148 105.858 11.2427C105.62 11.2647 105.381 11.2748 105.142 11.2729H104.314C104.055 11.2729 103.882 11.2427 103.844 11.2427L103.568 16.5991C103.568 17.0951 103.52 17.5263 103.486 17.8929C103.451 18.2595 103.412 18.5355 103.374 18.7555C103.594 18.7555 103.805 18.7296 104.038 18.7296L104.698 18.6735C104.922 18.6735 105.129 18.6476 105.362 18.6476L105.306 19.8595H99.22L99.276 18.9495C99.804 18.9732 100.323 18.8064 100.738 18.4795C101.029 18.1493 101.204 17.7325 101.234 17.2935C101.29 16.7802 101.325 16.198 101.346 15.5684L101.98 3.64369C101.98 3.27711 102.024 2.92778 102.062 2.5957C102.101 2.26362 102.136 1.93154 102.174 1.65553L101.152 1.7116L100.156 1.76767L100.242 0.551475L103.305 0.499725C104.334 0.456597 105.383 0.446531 106.453 0.469532V0.465215ZM82.3426 1.18112C81.2579 1.16193 80.1886 1.43931 79.25 1.9833C78.3579 2.5266 77.5884 3.24912 76.9899 4.10515C76.3745 5.0044 75.899 5.99171 75.5795 7.03348C75.2514 8.05961 75.0841 9.13033 75.0835 10.2076C75.072 11.2108 75.1836 12.2117 75.4156 13.1877C75.6486 14.2038 76.0293 15.1803 76.5457 16.0859C77.0615 16.9678 77.7691 17.7224 78.616 18.294C79.5567 18.8874 80.6527 19.1877 81.7646 19.1565C82.8659 19.1823 83.9532 18.9064 84.9089 18.3587C85.8113 17.8257 86.5846 17.0996 87.1733 16.2325C87.785 15.326 88.2507 14.3291 88.5535 13.2783C88.8623 12.2484 89.0206 11.1793 89.0237 10.1041C89.0271 9.02274 88.8819 7.94601 88.5923 6.9041C88.3374 5.88036 87.9069 4.90857 87.32 4.03184C86.7923 3.18754 86.08 2.47386 85.2367 1.94448C84.3629 1.42351 83.3596 1.16036 82.3426 1.18543V1.18112ZM82.4806 0.0770599C83.9186 0.0410331 85.3457 0.336153 86.6514 0.939604C87.7564 1.47212 88.7277 2.24587 89.4938 3.20378C90.2438 4.11562 90.8066 5.16643 91.1501 6.29602C91.8826 8.58259 91.8432 11.0465 91.0379 13.3085C90.6231 14.5559 89.9972 15.7229 89.1876 16.7587C87.7743 18.3989 85.8745 19.5456 83.7646 20.0319C81.6546 20.5182 79.4445 20.3189 77.4557 19.4627C76.3491 18.9327 75.3706 18.1691 74.5875 17.2244C73.8614 16.328 73.3085 15.3043 72.9571 14.2055C72.6135 13.1172 72.4376 11.9829 72.4352 10.8416C72.4282 9.45908 72.6617 8.08584 73.1253 6.78334C73.5853 5.52439 74.2773 4.36289 75.1655 3.35906C76.0794 2.31833 77.2082 1.48825 78.4741 0.926101C79.74 0.363949 81.1128 0.0830871 82.4978 0.102935L82.4806 0.0770599ZM56.6404 1.5132C56.1489 1.4677 55.6577 1.6043 55.2602 1.89704C54.9655 2.19479 54.7813 2.58434 54.7383 3.0011C54.6528 3.55986 54.5967 4.12272 54.5701 4.68736L54.2682 10.1386L55.0963 10.1904C55.3907 10.212 55.6862 10.212 55.9805 10.1904C56.9027 10.1707 57.8157 10.0032 58.6849 9.69442C59.4385 9.42713 60.093 8.93676 60.5611 8.2885C61.0736 7.5396 61.3528 6.65568 61.3633 5.7483C61.4094 5.13279 61.3331 4.51424 61.1391 3.92832C60.9907 3.4177 60.7041 2.95803 60.3109 2.60002C59.8952 2.20584 59.3813 1.93031 58.8229 1.80215C58.1134 1.5997 57.3781 1.50235 56.6404 1.5132ZM56.8086 0.465215C58.2558 0.423607 59.6976 0.657775 61.0571 1.15524C61.9903 1.48518 62.787 2.11643 63.3215 2.94935C63.7916 3.71842 64.0046 4.61719 63.9297 5.51542C63.882 6.25949 63.7039 6.98938 63.4035 7.67178C63.0601 8.45154 62.517 9.12691 61.8292 9.62975C60.8573 10.3115 59.7442 10.7655 58.5727 10.9581L59.237 11.6998C59.3836 11.8508 59.5044 11.9759 59.5949 12.088C59.7136 12.2183 59.8151 12.3632 59.8969 12.5193C60.009 12.7047 60.1729 12.9894 60.3972 13.3818L62.1225 16.336C62.4201 16.832 62.6961 17.2848 62.9506 17.6902C63.2112 18.0599 63.539 18.3773 63.9167 18.6261C64.3577 18.8617 64.8533 18.9763 65.353 18.9582L65.297 19.8681H61.9327C61.4862 19.4741 61.0867 19.0299 60.7422 18.5441C60.3742 17.9921 60.0061 17.4171 59.6381 16.819L57.956 13.8648C57.736 13.4594 57.4858 13.0023 57.2098 12.515C56.9548 12.0439 56.6289 11.6148 56.2436 11.2427C56.0056 11.2647 55.7667 11.2748 55.5276 11.2729H54.6995C54.4407 11.2729 54.2682 11.2427 54.2294 11.2427L53.9533 16.5991C53.9533 17.0951 53.9059 17.5263 53.8714 17.8929C53.8369 18.2595 53.7981 18.5355 53.7592 18.7555C53.9792 18.7555 54.1906 18.7296 54.4235 18.7296L55.0834 18.6735C55.3077 18.6735 55.5147 18.6476 55.7476 18.6476L55.6915 19.8595H49.5755L49.6316 18.9495C50.1595 18.9732 50.6785 18.8064 51.0937 18.4795C51.3847 18.1493 51.559 17.7325 51.5897 17.2935C51.6458 16.7802 51.6803 16.198 51.7019 15.5684L52.3359 3.64369C52.3359 3.27711 52.379 2.92778 52.4179 2.5957C52.4567 2.26362 52.4912 1.93154 52.53 1.65553L51.5078 1.7116L50.5114 1.76767L50.5977 0.551475L53.66 0.499725C54.6923 0.456597 55.7419 0.446531 56.8086 0.469532V0.465215ZM42.8901 0.516966L42.8642 1.43126C42.3334 1.38965 41.8072 1.55676 41.3977 1.89704C41.1067 2.22891 40.9324 2.64703 40.9017 3.08736C40.8456 3.58332 40.8025 4.16122 40.7637 4.81245L40.3798 11.2599C40.3126 12.4194 40.1173 13.5678 39.7975 14.6842C39.5058 15.7265 39.0296 16.7081 38.3915 17.5824C37.7685 18.4235 36.9538 19.1036 36.0149 19.5662C34.9081 20.0737 33.6995 20.3201 32.4824 20.2865C31.2333 20.3235 29.9883 20.126 28.8119 19.7043C27.889 19.359 27.091 18.7445 26.5216 17.9404C25.9424 17.0071 25.5662 15.9623 25.4175 14.874C25.223 13.4103 25.1768 11.9308 25.2794 10.4578L25.6374 3.86364C25.6763 3.38493 25.7021 2.97953 25.7194 2.64745C25.7366 2.31537 25.8013 1.97467 25.8574 1.62534L24.8654 1.68141C24.5333 1.68141 24.2011 1.68141 23.869 1.7116L23.9251 0.521283H30.0541L29.998 1.43558C29.5159 1.39023 29.0342 1.52719 28.648 1.81942C28.38 2.06309 28.1882 2.37913 28.0959 2.72939C28.0292 3.0132 27.983 3.30147 27.9579 3.59194L27.5956 10.5742C27.5422 11.5806 27.5609 12.5895 27.6517 13.5931C27.7312 14.486 27.9556 15.36 28.3159 16.1808C28.6593 16.946 29.2261 17.5894 29.942 18.0266C30.8487 18.5108 31.8697 18.7404 32.8965 18.6908C34.0553 18.7396 35.1985 18.4096 36.1529 17.7506C37.0458 17.0921 37.735 16.1953 38.1413 15.163C38.6274 13.9486 38.9073 12.6615 38.9694 11.3548L39.4654 3.59194C39.5042 3.22536 39.5301 2.87603 39.5517 2.54395C39.5732 2.21187 39.625 1.87979 39.6595 1.60378L38.6675 1.65985L37.6712 1.71589L37.7272 0.499725L42.8901 0.516966ZM8.86354 3.82913L8.25538 5.39465L7.64723 6.93861L5.44321 12.6961H11.7663L9.97203 7.17581L9.41994 5.51971C9.24742 4.96337 9.06626 4.40704 8.86354 3.83345V3.82913ZM9.7995 -0.00488281L15.0745 15.6977C15.2549 16.1838 15.3991 16.6826 15.5058 17.1899C15.6428 17.6925 15.6982 18.2138 15.6697 18.7339L17.464 18.6261L17.4079 19.8379H11.404L11.4299 18.928C12.1286 18.928 12.5901 18.7555 12.8101 18.4579C13.0338 18.1572 13.1327 17.7817 13.0861 17.4099C13.0554 17.0346 12.9816 16.6642 12.8662 16.3058L12.0639 13.7182L4.99895 13.8821L3.89478 16.8363C3.72657 17.2676 3.57992 17.6255 3.46347 17.8843C3.33451 18.179 3.19055 18.4669 3.03215 18.7468L5.10246 18.639L5.05071 19.8509H0L0.0301953 18.9409C0.463072 18.936 0.88138 18.7839 1.21631 18.5096C1.58924 18.1613 1.89738 17.7495 2.12639 17.2935C2.43434 16.7107 2.71079 16.1118 2.95452 15.4994L9.19566 0.0167019L9.7995 -0.00488281Z" fill="black"/>
<path d="M163.37 19.7827C163.238 19.7699 163.104 19.7865 162.979 19.8315C162.854 19.8764 162.741 19.9486 162.647 20.0426C162.554 20.1367 162.482 20.2504 162.438 20.3754C162.393 20.5005 162.377 20.6339 162.391 20.766C162.391 21.8355 163.762 22.2754 163.762 23.6771C163.762 25.0787 162.33 26.3509 160.834 26.3509C159.251 26.3509 158.677 25.3375 158.677 24.7337C158.678 24.6826 158.689 24.6323 158.71 24.5856C158.731 24.539 158.76 24.497 158.798 24.462C159.341 24.0307 159.716 23.5994 159.747 23.5994C159.759 23.5981 159.771 23.5994 159.783 23.6035C159.794 23.6076 159.805 23.6142 159.814 23.6229C159.822 23.6316 159.829 23.6421 159.833 23.6538C159.837 23.6654 159.839 23.6777 159.837 23.69C159.837 23.7504 159.716 23.8237 159.626 24.035C159.563 24.1887 159.528 24.3522 159.522 24.518C159.527 24.7193 159.571 24.9176 159.654 25.1012C159.737 25.2848 159.855 25.4499 160.003 25.5867C160.151 25.7236 160.324 25.8293 160.514 25.8976C160.703 25.9659 160.904 25.9954 161.105 25.9843C161.314 25.9804 161.519 25.9355 161.71 25.8521C161.901 25.7687 162.074 25.6484 162.219 25.4982C162.363 25.3481 162.477 25.1709 162.553 24.9768C162.629 24.7827 162.666 24.5755 162.662 24.3671C162.662 22.7671 161.528 22.6032 161.528 21.4387C161.528 20.1449 162.766 19.3126 163.87 19.3126C164.14 19.2847 164.409 19.3641 164.621 19.5336C164.832 19.7031 164.969 19.949 165 20.2182C165 20.3519 164.927 20.4123 164.698 20.6495C164.595 20.7703 164.504 20.9816 164.474 20.9816C164.466 20.9823 164.458 20.9811 164.45 20.9783C164.442 20.9755 164.435 20.9711 164.43 20.9654C164.424 20.9596 164.42 20.9527 164.417 20.9451C164.414 20.9374 164.413 20.9293 164.413 20.9212C164.413 20.8738 164.413 20.8436 164.413 20.7703C164.381 20.5102 164.259 20.2694 164.069 20.0892C163.878 19.909 163.631 19.8007 163.37 19.7827ZM156.835 19.015C159.1 18.6527 159.082 18.6355 159.354 18.6355C159.414 18.6355 159.445 18.6355 159.445 18.6657C159.445 18.7864 159.013 19.0279 158.901 19.0279C158.599 19.0279 157.56 19.2565 156.624 19.4074L154.795 22.7412C154.402 23.3528 154.198 24.0669 154.208 24.794C154.195 24.9401 154.214 25.0872 154.264 25.2251C154.314 25.363 154.394 25.4882 154.497 25.5919C154.601 25.6956 154.726 25.7752 154.864 25.8251C155.002 25.8751 155.149 25.8941 155.295 25.8808C156.569 25.8206 157.785 25.3312 158.746 24.4922C159.52 23.8811 160.211 23.1706 160.799 22.3789C160.859 22.2884 160.89 22.2883 160.92 22.2883C160.935 22.2894 160.95 22.2961 160.961 22.3072C160.972 22.3183 160.979 22.333 160.98 22.3487C160.98 22.3789 160.98 22.3789 160.95 22.4393C160.355 23.2622 159.655 24.0032 158.867 24.6431C157.75 25.5488 156.279 26.3941 154.7 26.3941C153.838 26.3941 152.975 26.062 152.975 24.9148C153.052 24.0073 153.359 23.1344 153.868 22.3789L155.541 19.6274C154.799 19.7513 154.063 19.9125 153.337 20.1104C153.247 20.1708 153.216 20.201 153.186 20.201C153.171 20.2 153.156 20.1933 153.145 20.1822C153.134 20.1711 153.127 20.1563 153.126 20.1406C153.126 20.1104 153.126 20.0802 153.216 20.0198L153.648 19.6878C154.333 19.4522 155.042 19.2903 155.761 19.2048L156.891 17.333C157.512 16.3066 158.008 15.4182 158.008 14.8748C158.008 14.5125 157.827 14.3616 157.577 14.3616C157.403 14.3509 157.23 14.393 157.081 14.4823C156.84 14.616 156.732 14.8273 156.628 14.8273C156.525 14.8273 156.551 14.767 156.551 14.7368C156.551 14.7066 156.883 14.4219 156.982 14.3616C157.339 14.0935 157.763 13.9267 158.207 13.8785C158.313 13.8808 158.418 13.9041 158.516 13.9473C158.613 13.9906 158.701 14.0527 158.774 14.1302C158.847 14.2077 158.904 14.2989 158.941 14.3986C158.979 14.4983 158.996 14.6045 158.992 14.7109C158.992 15.6769 157.577 17.6996 156.835 19.015ZM154.247 30.1547C154.308 30.0642 154.338 30.0642 154.368 30.0642C154.384 30.0652 154.399 30.0719 154.41 30.083C154.421 30.0941 154.427 30.1089 154.428 30.1246C154.428 30.1548 154.428 30.1547 154.398 30.2151C154.012 30.8384 153.474 31.3543 152.836 31.7153C152.197 32.0764 151.478 32.2709 150.745 32.2809C150.217 32.2703 149.697 32.1555 149.214 31.9432C148.73 31.7309 148.294 31.4252 147.929 31.0437C147.565 30.6622 147.279 30.2123 147.088 29.7201C146.898 29.2278 146.807 28.7028 146.82 28.1752C146.82 24.8717 149.731 21.9563 149.731 20.6754C149.731 20.2959 149.46 19.994 148.869 19.994C147.812 19.994 146.281 21.2015 145.418 22.1503C144.827 22.7843 144.15 24.0824 143.262 26.0318C143.214 26.1525 143.141 26.1525 143.02 26.1525C142.592 26.1864 142.168 26.2571 141.752 26.3639C141.752 26.3639 141.692 26.3639 141.692 26.3035C141.692 26.2431 141.903 26.0188 142.158 25.5488C142.688 24.6301 143.564 23.1035 143.969 22.3789C144.862 20.6538 145.694 19.36 146.717 17.3848C147.579 15.7675 149.766 11.9809 149.766 10.3809C149.766 9.74696 149.335 9.14318 148.817 9.14318C148.455 9.14318 147.864 9.32432 147.092 9.95829C146.941 10.079 146.85 10.1696 146.807 10.1696C146.797 10.1702 146.786 10.1687 146.777 10.165C146.767 10.1613 146.758 10.1556 146.751 10.1483C146.743 10.1409 146.738 10.1321 146.734 10.1224C146.73 10.1127 146.729 10.1023 146.729 10.092C146.729 10.0489 146.837 9.95827 147.018 9.80733C147.71 9.21928 148.562 8.85136 149.464 8.75073C150.641 8.75073 150.913 9.74696 150.913 10.4111C150.913 11.7049 148.921 14.9697 147.622 17.3848C146.699 19.1099 146.246 19.9724 145.237 21.8829C146.156 21.0678 147.907 19.4074 149.796 19.4074C149.958 19.4035 150.118 19.4333 150.267 19.4947C150.417 19.5562 150.552 19.648 150.664 19.7644C150.776 19.8808 150.862 20.0192 150.918 20.1709C150.973 20.3225 150.997 20.484 150.987 20.6452C150.987 22.0468 147.834 24.8717 147.834 28.5073C147.834 30.4092 148.8 31.9057 151.215 31.9057C151.827 31.8926 152.426 31.7253 152.956 31.4192C153.486 31.1131 153.93 30.6782 154.247 30.1547ZM142.084 24.6431C140.756 25.6091 139.397 26.4544 137.676 26.4544C136.529 26.4544 135.338 26.0016 135.338 24.4792C135.338 21.8657 138.854 19.3039 140.484 19.3039C140.594 19.3041 140.702 19.3271 140.803 19.3715C140.903 19.4159 140.993 19.4808 141.067 19.562C141.141 19.6432 141.197 19.7388 141.232 19.8429C141.266 19.947 141.279 20.0572 141.269 20.1665C141.269 20.5288 141.239 20.6193 140.695 20.9212C140.563 20.9989 140.416 21.0502 140.264 21.0722C140.234 21.0722 140.204 21.0722 140.204 21.042C140.243 20.9355 140.263 20.8232 140.264 20.7099C140.272 20.6107 140.261 20.5109 140.23 20.4162C140.2 20.3214 140.151 20.2336 140.086 20.1579C140.022 20.0821 139.943 20.0199 139.854 19.9747C139.766 19.9296 139.669 19.9024 139.57 19.8948C138.302 19.8948 136.55 22.642 136.55 24.4059C136.55 25.4496 137.077 26.0361 138.194 26.0361C139.401 26.0361 140.782 25.3116 141.938 24.4663C142.712 23.8552 143.402 23.1447 143.991 22.353C144.051 22.2625 144.081 22.2625 144.111 22.2625C144.127 22.2635 144.142 22.2702 144.153 22.2813C144.164 22.2924 144.171 22.3072 144.172 22.3229C144.172 22.353 144.172 22.3531 144.142 22.4134C143.557 23.2438 142.865 23.9935 142.084 24.6431ZM131.664 23.6167C132.841 22.4393 133.19 21.7751 133.19 21.5336C133.192 21.5174 133.19 21.5012 133.184 21.4859C133.178 21.4707 133.169 21.4568 133.158 21.4454C133.146 21.4339 133.133 21.425 133.117 21.4194C133.102 21.4138 133.086 21.4116 133.07 21.4129C132.798 21.4129 132.073 22.7714 131.664 23.6167ZM131.198 19.6792C129.205 19.6792 127.363 22.5169 127.363 24.5094C127.363 25.0226 127.497 25.6868 128.192 25.6868C129.007 25.6868 129.852 25.1132 130.292 24.7638C130.545 23.8942 130.932 23.0693 131.439 22.3185C131.802 21.8053 132.466 20.9902 132.949 20.8091C132.805 20.4659 132.561 20.1743 132.249 19.9726C131.936 19.7709 131.57 19.6686 131.198 19.6792ZM134.942 24.6431C133.975 25.3978 132.677 26.3035 131.439 26.3035C130.697 26.3035 130.262 25.9412 130.262 25.0657C129.235 25.6997 128.192 26.2 127.437 26.2C126.501 26.2 126.108 25.4755 126.108 24.5396C126.108 22.2754 128.903 19.3169 131.241 19.3169C131.678 19.308 132.106 19.4434 132.458 19.7023C132.811 19.9611 133.068 20.3289 133.19 20.7487C133.341 20.7487 133.583 20.8091 133.583 21.0808C133.583 22.0166 132.828 22.6808 132.254 23.2846C132.073 23.4657 131.823 23.7159 131.56 23.9488C131.439 24.267 131.378 24.6046 131.379 24.945C131.379 25.2469 131.469 25.7299 132.242 25.7299C133.104 25.7299 133.993 25.1261 134.829 24.4922C135.604 23.8811 136.294 23.1706 136.883 22.3789C136.943 22.2884 136.973 22.2883 137.003 22.2883C137.019 22.2894 137.034 22.2961 137.045 22.3072C137.056 22.3183 137.063 22.333 137.064 22.3487C137.064 22.3789 137.064 22.3789 137.033 22.4393C136.436 23.2627 135.733 24.0037 134.942 24.6431ZM125.703 24.6431C124.355 25.6935 122.832 26.4966 121.204 27.0151C120.104 28.8264 118.616 31.1639 118.616 31.1639C116.637 34.3338 113.872 36.5979 111.232 36.5979C110.936 36.6146 110.64 36.5701 110.363 36.4673C110.085 36.3645 109.831 36.2055 109.617 36.0004C109.404 35.7952 109.235 35.5483 109.121 35.2749C109.007 35.0015 108.95 34.7076 108.955 34.4114C108.955 31.0302 113.497 29.2793 116.214 28.3434C117.693 27.8431 119.009 27.4507 120.277 27.0496C120.609 26.4588 121.497 24.8587 121.497 24.8587C120.515 25.7244 119.261 26.2214 117.952 26.2647C117.391 26.2647 116.757 25.9153 116.757 25.2814C116.757 23.5002 119.112 21.5379 119.112 20.1061C119.112 19.8344 118.961 19.7137 118.681 19.7137C118.286 19.7245 117.905 19.8621 117.594 20.1061C117.503 20.1665 117.473 20.1967 117.443 20.1967C117.427 20.1957 117.413 20.189 117.402 20.1779C117.39 20.1668 117.384 20.152 117.383 20.1363C117.383 20.1061 117.383 20.0759 117.473 20.0156C117.949 19.635 118.527 19.4039 119.134 19.3514C119.269 19.3329 119.407 19.3444 119.537 19.3851C119.668 19.4258 119.788 19.4947 119.889 19.5869C119.989 19.679 120.069 19.7923 120.121 19.9185C120.173 20.0448 120.197 20.181 120.191 20.3174C120.191 21.3137 117.913 23.8366 117.913 24.9838C117.899 25.0867 117.909 25.1915 117.942 25.2901C117.975 25.3886 118.03 25.4783 118.103 25.5524C118.176 25.6265 118.264 25.6829 118.362 25.7174C118.46 25.7519 118.565 25.7636 118.668 25.7515C119.531 25.7515 120.976 25.0269 121.73 24.393L123.361 21.2533C123.874 20.2873 123.965 19.8042 124.448 19.7439C124.75 19.7137 125.142 19.6835 125.31 19.6835C125.334 19.6845 125.356 19.6944 125.373 19.7112C125.39 19.7279 125.4 19.7504 125.401 19.774C125.401 19.925 124.512 21.3137 124.042 22.1288C124.042 22.1288 122.412 25.0269 121.433 26.6571C122.92 26.1592 124.32 25.4316 125.582 24.5008C126.356 23.8897 127.047 23.1792 127.635 22.3876C127.695 22.297 127.726 22.297 127.756 22.297C127.772 22.298 127.786 22.3047 127.797 22.3158C127.809 22.3269 127.815 22.3417 127.816 22.3574C127.816 22.3875 127.816 22.3875 127.786 22.4479C127.191 23.2678 126.49 24.0058 125.703 24.6431ZM120.096 27.4075C118.802 27.8388 117.456 28.2227 116.309 28.628C113.182 29.7321 110.102 31.785 110.102 34.2346C110.102 35.261 110.533 36.0761 111.901 36.0761C113.833 36.0761 116.08 34.5365 117.939 31.2631C117.913 31.2415 119.121 29.1154 120.087 27.3903L120.096 27.4075Z" fill="#BF8D55"/>
</g>
<defs>
<clipPath id="clip0_1966_380">
<rect width="165" height="36.5978" fill="white"/>
</clipPath>
</defs>
</svg>
