<svg width="32" height="32" viewBox="0 0 32 32" fill="none" xmlns="http://www.w3.org/2000/svg">
<path d="M18.4173 19.7249L17.5786 20.5639C17.3546 20.7883 17.0206 20.8621 16.723 20.753C15.8888 20.4461 14.8453 19.6672 13.5924 18.4138C12.3406 17.1615 11.5608 16.1176 11.2552 15.282C11.1458 14.9845 11.2191 14.6505 11.443 14.4261L12.2829 13.5871C13.83 12.0393 13.9715 9.60165 12.6077 7.9837L11.623 6.81297C10.4991 5.47581 8.4743 5.34107 7.09915 6.51067C6.58772 6.95156 6.20325 7.52106 5.98545 8.16032C5.89132 8.4386 5.83053 8.72708 5.80436 9.01969C5.3007 12.7594 7.10368 16.6849 11.2122 20.7949C15.3206 24.9049 19.2435 26.7074 22.983 26.2035C23.9545 26.1108 24.8529 25.6468 25.4911 24.9083C26.6614 23.5337 26.5256 21.507 25.19 20.3827L24.0198 19.3966C22.4001 18.0345 19.9645 18.1772 18.4173 19.7249ZM15.2082 16.7976C15.8067 17.3963 16.3286 17.8504 16.7505 18.1597C19.1764 15.7329 22.9512 15.5117 25.492 17.6485L26.6614 18.6339C28.9799 20.5857 29.2118 24.0636 27.2198 26.403C26.197 27.5867 24.7572 28.3302 23.288 28.4688C18.7384 29.0818 14.163 26.9794 9.59631 22.411C5.02952 17.8426 2.92698 13.2645 3.52839 8.816C3.57067 8.3433 3.66887 7.8773 3.82254 7.423C4.17159 6.39851 4.78775 5.48582 5.61896 4.76933C7.94659 2.78963 11.4216 3.02154 13.3715 5.34146L14.3546 6.51029C16.4936 9.04781 16.2745 12.8266 13.8976 15.2044C14.1558 15.6768 14.6095 16.1987 15.2082 16.7976Z" fill="#BF8D55"/>
</svg>
