<svg width="24" height="24" viewBox="0 0 24 24" fill="none" xmlns="http://www.w3.org/2000/svg">
<path d="M11.7793 1.96411C9.83692 1.96411 7.93817 2.54009 6.32315 3.61921C4.70813 4.69833 3.44938 6.23213 2.70606 8.02665C1.96275 9.82116 1.76827 11.7958 2.1472 13.7008C2.52614 15.6059 3.46148 17.3558 4.83494 18.7292C6.2084 20.1027 7.9583 21.038 9.86335 21.417C11.7684 21.7959 13.743 21.6014 15.5375 20.8581C17.3321 20.1148 18.8659 18.8561 19.945 17.241C21.0241 15.626 21.6001 13.7273 21.6001 11.7849C21.6002 10.4952 21.3462 9.21808 20.8527 8.02652C20.3592 6.83496 19.6358 5.75228 18.7239 4.84032C17.8119 3.92835 16.7292 3.20496 15.5377 2.71146C14.3461 2.21795 13.069 1.964 11.7793 1.96411V1.96411ZM14.9018 16.845C14.8651 16.9367 14.8091 17.0194 14.7378 17.0877C14.6664 17.156 14.5813 17.2082 14.4881 17.2409C14.3949 17.2736 14.2958 17.286 14.1975 17.2772C14.0991 17.2685 14.0037 17.2388 13.9178 17.1902L11.2518 15.1187L9.54066 16.6973C9.50096 16.7266 9.45451 16.7455 9.4056 16.7522C9.35669 16.7588 9.30688 16.7531 9.26077 16.7355L9.58878 13.8006L9.59928 13.8089L9.60599 13.751C9.60599 13.751 14.4034 9.38318 14.5989 9.19708C14.7967 9.01147 14.7315 8.97121 14.7315 8.97121C14.7427 8.74481 14.3764 8.97121 14.3764 8.97121L8.01989 13.0606L5.37271 12.1591C5.37271 12.1591 4.96613 12.0132 4.92783 11.6926C4.88756 11.3744 5.38596 11.2015 5.38596 11.2015L15.9109 7.02033C15.9109 7.02033 16.7761 6.63485 16.7761 7.27323L14.9018 16.845Z" fill="#BF8D55"/>
</svg>
