<svg width="25" height="24" viewBox="0 0 25 24" fill="none" xmlns="http://www.w3.org/2000/svg">
<path d="M22.224 6.43257C22.2129 6.00887 22.1802 5.58602 22.1258 5.16569C22.0524 4.79753 21.9302 4.44082 21.7624 4.10504C21.5869 3.7408 21.3511 3.40878 21.0651 3.12296C20.7765 2.84033 20.445 2.60501 20.083 2.42569C19.7468 2.26114 19.3901 2.14223 19.0224 2.07214C18.6061 2.00978 18.1862 1.9737 17.7653 1.96411H7.05086C6.62716 1.97515 6.20431 2.00793 5.78397 2.06232C5.41582 2.13565 5.05911 2.25785 4.72333 2.42569C4.35908 2.60122 4.02706 2.83696 3.74125 3.12296C3.45861 3.41161 3.22329 3.74304 3.04397 4.10504C2.87942 4.44127 2.76052 4.79797 2.69043 5.16569C2.62806 5.58203 2.59198 6.00188 2.5824 6.42275C2.5824 6.60934 2.5824 6.87451 2.5824 6.95307V16.6167C2.5824 16.7248 2.5824 16.9605 2.5824 17.1372C2.59343 17.5609 2.62621 17.9838 2.68061 18.4041C2.75394 18.7723 2.87614 19.129 3.04397 19.4648C3.21951 19.829 3.45524 20.161 3.74125 20.4468C4.02989 20.7295 4.36133 20.9648 4.72333 21.1441C5.05956 21.3087 5.41626 21.4276 5.78397 21.4977C6.20031 21.56 6.62016 21.5961 7.04104 21.6057H17.7555C18.1792 21.5947 18.6021 21.5619 19.0224 21.5075C19.3906 21.4342 19.7473 21.3119 20.083 21.1441C20.4473 20.9686 20.7793 20.7328 21.0651 20.4468C21.3478 20.1582 21.5831 19.8268 21.7624 19.4648C21.927 19.1285 22.0459 18.7718 22.1159 18.4041C22.1783 17.9878 22.2144 17.5679 22.224 17.1471C22.224 16.9605 22.224 16.7248 22.224 16.6167V6.95307C22.224 6.87451 22.224 6.60934 22.224 6.43257ZM12.6291 18.6595C11.4496 18.6536 10.2909 18.3496 9.26053 17.7756L5.52863 18.7577L6.51071 15.1043C5.87738 14.0402 5.53844 12.8268 5.52863 11.5885C5.53254 10.1968 5.94818 8.8374 6.7232 7.68149C7.49821 6.52557 8.59794 5.62484 9.88389 5.09274C11.1698 4.56063 12.5845 4.42095 13.9497 4.69128C15.3148 4.96162 16.5695 5.62988 17.5556 6.6119C18.5417 7.59392 19.2152 8.84579 19.4912 10.2098C19.7672 11.5739 19.6334 12.9891 19.1066 14.2772C18.5799 15.5654 17.6837 16.6688 16.5311 17.4487C15.3784 18.2285 14.0207 18.6498 12.6291 18.6595V18.6595ZM12.6291 5.76476C11.5879 5.77667 10.5684 6.06427 9.67454 6.59828C8.78064 7.13229 8.04421 7.89364 7.54022 8.8048C7.03624 9.71597 6.7827 10.7444 6.80542 11.7854C6.82814 12.8264 7.12631 13.8428 7.66957 14.7311L7.80706 14.957L7.21781 17.1078L9.45695 16.4989L9.67301 16.6265C10.5663 17.1527 11.5826 17.4339 12.6192 17.4417V17.4417C14.182 17.4417 15.6808 16.8209 16.7859 15.7158C17.8909 14.6108 18.5117 13.112 18.5117 11.5492C18.5117 9.98642 17.8909 8.48765 16.7859 7.38259C15.6808 6.27754 14.182 5.65673 12.6192 5.65673L12.6291 5.76476ZM16.0663 14.1321C15.9377 14.3466 15.7655 14.5318 15.5608 14.6756C15.3561 14.8194 15.1235 14.9186 14.878 14.9668C14.5113 15.0339 14.1337 15.0103 13.7781 14.8981C13.4436 14.7935 13.1156 14.6689 12.796 14.5249C11.5819 13.9157 10.5465 13.0021 9.79086 11.8733C9.38023 11.3503 9.13108 10.7189 9.07394 10.0564C9.06809 9.78125 9.12015 9.5079 9.22673 9.25413C9.33332 9.00035 9.49206 8.77181 9.69265 8.58332C9.75173 8.51633 9.82422 8.46249 9.90542 8.42527C9.98662 8.38805 10.0747 8.36829 10.164 8.36727H10.439C10.5471 8.36727 10.6944 8.36727 10.8319 8.67171C10.9694 8.97615 11.3327 9.88949 11.3818 9.97788C11.406 10.025 11.4185 10.0772 11.4185 10.1301C11.4185 10.183 11.406 10.2352 11.3818 10.2823C11.3384 10.389 11.2788 10.4884 11.2051 10.5769C11.1167 10.685 11.0185 10.8126 10.9399 10.8912C10.8613 10.9698 10.7631 11.068 10.8613 11.2448C11.1285 11.6957 11.4593 12.1059 11.8434 12.4625C12.2617 12.8321 12.7399 13.1277 13.2576 13.3366C13.4344 13.425 13.5424 13.4152 13.6406 13.3366C13.7388 13.258 14.0825 12.8259 14.2004 12.6491C14.3182 12.4724 14.4361 12.5018 14.5932 12.5607C14.7504 12.6197 15.6244 13.042 15.8012 13.1303C15.978 13.2187 16.086 13.258 16.1351 13.3366C16.1777 13.5936 16.154 13.8573 16.0663 14.1026V14.1321Z" fill="#BF8D55"/>
</svg>
